%TF.GenerationSoftware,KiCad,Pcbnew,9.0.0*%
%TF.CreationDate,2025-03-15T13:46:52+01:00*%
%TF.ProjectId,snowbackpack,736e6f77-6261-4636-9b70-61636b2e6b69,rev?*%
%TF.SameCoordinates,Original*%
%TF.FileFunction,Drillmap*%
%TF.FilePolarity,Positive*%
%FSLAX45Y45*%
G04 Gerber Fmt 4.5, Leading zero omitted, Abs format (unit mm)*
G04 Created by KiCad (PCBNEW 9.0.0) date 2025-03-15 13:46:52*
%MOMM*%
%LPD*%
G01*
G04 APERTURE LIST*
%ADD10C,0.100000*%
%ADD11C,0.200000*%
G04 APERTURE END LIST*
D10*
X7410000Y-8200000D02*
X11370000Y-8200000D01*
X11370000Y-10000000D01*
X7410000Y-10000000D01*
X7410000Y-8200000D01*
D11*
D10*
X9058499Y-9381954D02*
X9123498Y-9446953D01*
X9123498Y-9381954D02*
X9058499Y-9446953D01*
X9636503Y-9381954D02*
X9701501Y-9446953D01*
X9701501Y-9381954D02*
X9636503Y-9446953D01*
D11*
X7665777Y-10316484D02*
X7665777Y-10116484D01*
X7665777Y-10116484D02*
X7713396Y-10116484D01*
X7713396Y-10116484D02*
X7741967Y-10126008D01*
X7741967Y-10126008D02*
X7761015Y-10145055D01*
X7761015Y-10145055D02*
X7770539Y-10164103D01*
X7770539Y-10164103D02*
X7780062Y-10202198D01*
X7780062Y-10202198D02*
X7780062Y-10230770D01*
X7780062Y-10230770D02*
X7770539Y-10268865D01*
X7770539Y-10268865D02*
X7761015Y-10287912D01*
X7761015Y-10287912D02*
X7741967Y-10306960D01*
X7741967Y-10306960D02*
X7713396Y-10316484D01*
X7713396Y-10316484D02*
X7665777Y-10316484D01*
X7865777Y-10316484D02*
X7865777Y-10183150D01*
X7865777Y-10221246D02*
X7875301Y-10202198D01*
X7875301Y-10202198D02*
X7884824Y-10192674D01*
X7884824Y-10192674D02*
X7903872Y-10183150D01*
X7903872Y-10183150D02*
X7922920Y-10183150D01*
X7989586Y-10316484D02*
X7989586Y-10183150D01*
X7989586Y-10116484D02*
X7980062Y-10126008D01*
X7980062Y-10126008D02*
X7989586Y-10135531D01*
X7989586Y-10135531D02*
X7999110Y-10126008D01*
X7999110Y-10126008D02*
X7989586Y-10116484D01*
X7989586Y-10116484D02*
X7989586Y-10135531D01*
X8113396Y-10316484D02*
X8094348Y-10306960D01*
X8094348Y-10306960D02*
X8084824Y-10287912D01*
X8084824Y-10287912D02*
X8084824Y-10116484D01*
X8218158Y-10316484D02*
X8199110Y-10306960D01*
X8199110Y-10306960D02*
X8189586Y-10287912D01*
X8189586Y-10287912D02*
X8189586Y-10116484D01*
X8446729Y-10316484D02*
X8446729Y-10116484D01*
X8446729Y-10116484D02*
X8513396Y-10259341D01*
X8513396Y-10259341D02*
X8580063Y-10116484D01*
X8580063Y-10116484D02*
X8580063Y-10316484D01*
X8761015Y-10316484D02*
X8761015Y-10211722D01*
X8761015Y-10211722D02*
X8751491Y-10192674D01*
X8751491Y-10192674D02*
X8732444Y-10183150D01*
X8732444Y-10183150D02*
X8694348Y-10183150D01*
X8694348Y-10183150D02*
X8675301Y-10192674D01*
X8761015Y-10306960D02*
X8741967Y-10316484D01*
X8741967Y-10316484D02*
X8694348Y-10316484D01*
X8694348Y-10316484D02*
X8675301Y-10306960D01*
X8675301Y-10306960D02*
X8665777Y-10287912D01*
X8665777Y-10287912D02*
X8665777Y-10268865D01*
X8665777Y-10268865D02*
X8675301Y-10249817D01*
X8675301Y-10249817D02*
X8694348Y-10240293D01*
X8694348Y-10240293D02*
X8741967Y-10240293D01*
X8741967Y-10240293D02*
X8761015Y-10230770D01*
X8856253Y-10183150D02*
X8856253Y-10383150D01*
X8856253Y-10192674D02*
X8875301Y-10183150D01*
X8875301Y-10183150D02*
X8913396Y-10183150D01*
X8913396Y-10183150D02*
X8932444Y-10192674D01*
X8932444Y-10192674D02*
X8941967Y-10202198D01*
X8941967Y-10202198D02*
X8951491Y-10221246D01*
X8951491Y-10221246D02*
X8951491Y-10278389D01*
X8951491Y-10278389D02*
X8941967Y-10297436D01*
X8941967Y-10297436D02*
X8932444Y-10306960D01*
X8932444Y-10306960D02*
X8913396Y-10316484D01*
X8913396Y-10316484D02*
X8875301Y-10316484D01*
X8875301Y-10316484D02*
X8856253Y-10306960D01*
X9037205Y-10297436D02*
X9046729Y-10306960D01*
X9046729Y-10306960D02*
X9037205Y-10316484D01*
X9037205Y-10316484D02*
X9027682Y-10306960D01*
X9027682Y-10306960D02*
X9037205Y-10297436D01*
X9037205Y-10297436D02*
X9037205Y-10316484D01*
X9037205Y-10192674D02*
X9046729Y-10202198D01*
X9046729Y-10202198D02*
X9037205Y-10211722D01*
X9037205Y-10211722D02*
X9027682Y-10202198D01*
X9027682Y-10202198D02*
X9037205Y-10192674D01*
X9037205Y-10192674D02*
X9037205Y-10211722D01*
D10*
X7340001Y-10612501D02*
X7405000Y-10677499D01*
X7405000Y-10612501D02*
X7340001Y-10677499D01*
D11*
X7703872Y-10536484D02*
X7722920Y-10536484D01*
X7722920Y-10536484D02*
X7741967Y-10546008D01*
X7741967Y-10546008D02*
X7751491Y-10555531D01*
X7751491Y-10555531D02*
X7761015Y-10574579D01*
X7761015Y-10574579D02*
X7770539Y-10612674D01*
X7770539Y-10612674D02*
X7770539Y-10660293D01*
X7770539Y-10660293D02*
X7761015Y-10698389D01*
X7761015Y-10698389D02*
X7751491Y-10717436D01*
X7751491Y-10717436D02*
X7741967Y-10726960D01*
X7741967Y-10726960D02*
X7722920Y-10736484D01*
X7722920Y-10736484D02*
X7703872Y-10736484D01*
X7703872Y-10736484D02*
X7684824Y-10726960D01*
X7684824Y-10726960D02*
X7675301Y-10717436D01*
X7675301Y-10717436D02*
X7665777Y-10698389D01*
X7665777Y-10698389D02*
X7656253Y-10660293D01*
X7656253Y-10660293D02*
X7656253Y-10612674D01*
X7656253Y-10612674D02*
X7665777Y-10574579D01*
X7665777Y-10574579D02*
X7675301Y-10555531D01*
X7675301Y-10555531D02*
X7684824Y-10546008D01*
X7684824Y-10546008D02*
X7703872Y-10536484D01*
X7856253Y-10717436D02*
X7865777Y-10726960D01*
X7865777Y-10726960D02*
X7856253Y-10736484D01*
X7856253Y-10736484D02*
X7846729Y-10726960D01*
X7846729Y-10726960D02*
X7856253Y-10717436D01*
X7856253Y-10717436D02*
X7856253Y-10736484D01*
X8037205Y-10536484D02*
X7999110Y-10536484D01*
X7999110Y-10536484D02*
X7980062Y-10546008D01*
X7980062Y-10546008D02*
X7970539Y-10555531D01*
X7970539Y-10555531D02*
X7951491Y-10584103D01*
X7951491Y-10584103D02*
X7941967Y-10622198D01*
X7941967Y-10622198D02*
X7941967Y-10698389D01*
X7941967Y-10698389D02*
X7951491Y-10717436D01*
X7951491Y-10717436D02*
X7961015Y-10726960D01*
X7961015Y-10726960D02*
X7980062Y-10736484D01*
X7980062Y-10736484D02*
X8018158Y-10736484D01*
X8018158Y-10736484D02*
X8037205Y-10726960D01*
X8037205Y-10726960D02*
X8046729Y-10717436D01*
X8046729Y-10717436D02*
X8056253Y-10698389D01*
X8056253Y-10698389D02*
X8056253Y-10650770D01*
X8056253Y-10650770D02*
X8046729Y-10631722D01*
X8046729Y-10631722D02*
X8037205Y-10622198D01*
X8037205Y-10622198D02*
X8018158Y-10612674D01*
X8018158Y-10612674D02*
X7980062Y-10612674D01*
X7980062Y-10612674D02*
X7961015Y-10622198D01*
X7961015Y-10622198D02*
X7951491Y-10631722D01*
X7951491Y-10631722D02*
X7941967Y-10650770D01*
X8237205Y-10536484D02*
X8141967Y-10536484D01*
X8141967Y-10536484D02*
X8132443Y-10631722D01*
X8132443Y-10631722D02*
X8141967Y-10622198D01*
X8141967Y-10622198D02*
X8161015Y-10612674D01*
X8161015Y-10612674D02*
X8208634Y-10612674D01*
X8208634Y-10612674D02*
X8227682Y-10622198D01*
X8227682Y-10622198D02*
X8237205Y-10631722D01*
X8237205Y-10631722D02*
X8246729Y-10650770D01*
X8246729Y-10650770D02*
X8246729Y-10698389D01*
X8246729Y-10698389D02*
X8237205Y-10717436D01*
X8237205Y-10717436D02*
X8227682Y-10726960D01*
X8227682Y-10726960D02*
X8208634Y-10736484D01*
X8208634Y-10736484D02*
X8161015Y-10736484D01*
X8161015Y-10736484D02*
X8141967Y-10726960D01*
X8141967Y-10726960D02*
X8132443Y-10717436D01*
X8370539Y-10536484D02*
X8389586Y-10536484D01*
X8389586Y-10536484D02*
X8408634Y-10546008D01*
X8408634Y-10546008D02*
X8418158Y-10555531D01*
X8418158Y-10555531D02*
X8427682Y-10574579D01*
X8427682Y-10574579D02*
X8437205Y-10612674D01*
X8437205Y-10612674D02*
X8437205Y-10660293D01*
X8437205Y-10660293D02*
X8427682Y-10698389D01*
X8427682Y-10698389D02*
X8418158Y-10717436D01*
X8418158Y-10717436D02*
X8408634Y-10726960D01*
X8408634Y-10726960D02*
X8389586Y-10736484D01*
X8389586Y-10736484D02*
X8370539Y-10736484D01*
X8370539Y-10736484D02*
X8351491Y-10726960D01*
X8351491Y-10726960D02*
X8341967Y-10717436D01*
X8341967Y-10717436D02*
X8332443Y-10698389D01*
X8332443Y-10698389D02*
X8322920Y-10660293D01*
X8322920Y-10660293D02*
X8322920Y-10612674D01*
X8322920Y-10612674D02*
X8332443Y-10574579D01*
X8332443Y-10574579D02*
X8341967Y-10555531D01*
X8341967Y-10555531D02*
X8351491Y-10546008D01*
X8351491Y-10546008D02*
X8370539Y-10536484D01*
X8522920Y-10736484D02*
X8522920Y-10603150D01*
X8522920Y-10622198D02*
X8532444Y-10612674D01*
X8532444Y-10612674D02*
X8551491Y-10603150D01*
X8551491Y-10603150D02*
X8580063Y-10603150D01*
X8580063Y-10603150D02*
X8599110Y-10612674D01*
X8599110Y-10612674D02*
X8608634Y-10631722D01*
X8608634Y-10631722D02*
X8608634Y-10736484D01*
X8608634Y-10631722D02*
X8618158Y-10612674D01*
X8618158Y-10612674D02*
X8637205Y-10603150D01*
X8637205Y-10603150D02*
X8665777Y-10603150D01*
X8665777Y-10603150D02*
X8684825Y-10612674D01*
X8684825Y-10612674D02*
X8694348Y-10631722D01*
X8694348Y-10631722D02*
X8694348Y-10736484D01*
X8789586Y-10736484D02*
X8789586Y-10603150D01*
X8789586Y-10622198D02*
X8799110Y-10612674D01*
X8799110Y-10612674D02*
X8818158Y-10603150D01*
X8818158Y-10603150D02*
X8846729Y-10603150D01*
X8846729Y-10603150D02*
X8865777Y-10612674D01*
X8865777Y-10612674D02*
X8875301Y-10631722D01*
X8875301Y-10631722D02*
X8875301Y-10736484D01*
X8875301Y-10631722D02*
X8884825Y-10612674D01*
X8884825Y-10612674D02*
X8903872Y-10603150D01*
X8903872Y-10603150D02*
X8932444Y-10603150D01*
X8932444Y-10603150D02*
X8951491Y-10612674D01*
X8951491Y-10612674D02*
X8961015Y-10631722D01*
X8961015Y-10631722D02*
X8961015Y-10736484D01*
X9351491Y-10526960D02*
X9180063Y-10784103D01*
X9608634Y-10536484D02*
X9627682Y-10536484D01*
X9627682Y-10536484D02*
X9646729Y-10546008D01*
X9646729Y-10546008D02*
X9656253Y-10555531D01*
X9656253Y-10555531D02*
X9665777Y-10574579D01*
X9665777Y-10574579D02*
X9675301Y-10612674D01*
X9675301Y-10612674D02*
X9675301Y-10660293D01*
X9675301Y-10660293D02*
X9665777Y-10698389D01*
X9665777Y-10698389D02*
X9656253Y-10717436D01*
X9656253Y-10717436D02*
X9646729Y-10726960D01*
X9646729Y-10726960D02*
X9627682Y-10736484D01*
X9627682Y-10736484D02*
X9608634Y-10736484D01*
X9608634Y-10736484D02*
X9589587Y-10726960D01*
X9589587Y-10726960D02*
X9580063Y-10717436D01*
X9580063Y-10717436D02*
X9570539Y-10698389D01*
X9570539Y-10698389D02*
X9561015Y-10660293D01*
X9561015Y-10660293D02*
X9561015Y-10612674D01*
X9561015Y-10612674D02*
X9570539Y-10574579D01*
X9570539Y-10574579D02*
X9580063Y-10555531D01*
X9580063Y-10555531D02*
X9589587Y-10546008D01*
X9589587Y-10546008D02*
X9608634Y-10536484D01*
X9761015Y-10717436D02*
X9770539Y-10726960D01*
X9770539Y-10726960D02*
X9761015Y-10736484D01*
X9761015Y-10736484D02*
X9751491Y-10726960D01*
X9751491Y-10726960D02*
X9761015Y-10717436D01*
X9761015Y-10717436D02*
X9761015Y-10736484D01*
X9894348Y-10536484D02*
X9913396Y-10536484D01*
X9913396Y-10536484D02*
X9932444Y-10546008D01*
X9932444Y-10546008D02*
X9941968Y-10555531D01*
X9941968Y-10555531D02*
X9951491Y-10574579D01*
X9951491Y-10574579D02*
X9961015Y-10612674D01*
X9961015Y-10612674D02*
X9961015Y-10660293D01*
X9961015Y-10660293D02*
X9951491Y-10698389D01*
X9951491Y-10698389D02*
X9941968Y-10717436D01*
X9941968Y-10717436D02*
X9932444Y-10726960D01*
X9932444Y-10726960D02*
X9913396Y-10736484D01*
X9913396Y-10736484D02*
X9894348Y-10736484D01*
X9894348Y-10736484D02*
X9875301Y-10726960D01*
X9875301Y-10726960D02*
X9865777Y-10717436D01*
X9865777Y-10717436D02*
X9856253Y-10698389D01*
X9856253Y-10698389D02*
X9846729Y-10660293D01*
X9846729Y-10660293D02*
X9846729Y-10612674D01*
X9846729Y-10612674D02*
X9856253Y-10574579D01*
X9856253Y-10574579D02*
X9865777Y-10555531D01*
X9865777Y-10555531D02*
X9875301Y-10546008D01*
X9875301Y-10546008D02*
X9894348Y-10536484D01*
X10037206Y-10555531D02*
X10046729Y-10546008D01*
X10046729Y-10546008D02*
X10065777Y-10536484D01*
X10065777Y-10536484D02*
X10113396Y-10536484D01*
X10113396Y-10536484D02*
X10132444Y-10546008D01*
X10132444Y-10546008D02*
X10141968Y-10555531D01*
X10141968Y-10555531D02*
X10151491Y-10574579D01*
X10151491Y-10574579D02*
X10151491Y-10593627D01*
X10151491Y-10593627D02*
X10141968Y-10622198D01*
X10141968Y-10622198D02*
X10027682Y-10736484D01*
X10027682Y-10736484D02*
X10151491Y-10736484D01*
X10332444Y-10536484D02*
X10237206Y-10536484D01*
X10237206Y-10536484D02*
X10227682Y-10631722D01*
X10227682Y-10631722D02*
X10237206Y-10622198D01*
X10237206Y-10622198D02*
X10256253Y-10612674D01*
X10256253Y-10612674D02*
X10303872Y-10612674D01*
X10303872Y-10612674D02*
X10322920Y-10622198D01*
X10322920Y-10622198D02*
X10332444Y-10631722D01*
X10332444Y-10631722D02*
X10341968Y-10650770D01*
X10341968Y-10650770D02*
X10341968Y-10698389D01*
X10341968Y-10698389D02*
X10332444Y-10717436D01*
X10332444Y-10717436D02*
X10322920Y-10726960D01*
X10322920Y-10726960D02*
X10303872Y-10736484D01*
X10303872Y-10736484D02*
X10256253Y-10736484D01*
X10256253Y-10736484D02*
X10237206Y-10726960D01*
X10237206Y-10726960D02*
X10227682Y-10717436D01*
X10513396Y-10536484D02*
X10475301Y-10536484D01*
X10475301Y-10536484D02*
X10456253Y-10546008D01*
X10456253Y-10546008D02*
X10446729Y-10555531D01*
X10446729Y-10555531D02*
X10427682Y-10584103D01*
X10427682Y-10584103D02*
X10418158Y-10622198D01*
X10418158Y-10622198D02*
X10418158Y-10698389D01*
X10418158Y-10698389D02*
X10427682Y-10717436D01*
X10427682Y-10717436D02*
X10437206Y-10726960D01*
X10437206Y-10726960D02*
X10456253Y-10736484D01*
X10456253Y-10736484D02*
X10494349Y-10736484D01*
X10494349Y-10736484D02*
X10513396Y-10726960D01*
X10513396Y-10726960D02*
X10522920Y-10717436D01*
X10522920Y-10717436D02*
X10532444Y-10698389D01*
X10532444Y-10698389D02*
X10532444Y-10650770D01*
X10532444Y-10650770D02*
X10522920Y-10631722D01*
X10522920Y-10631722D02*
X10513396Y-10622198D01*
X10513396Y-10622198D02*
X10494349Y-10612674D01*
X10494349Y-10612674D02*
X10456253Y-10612674D01*
X10456253Y-10612674D02*
X10437206Y-10622198D01*
X10437206Y-10622198D02*
X10427682Y-10631722D01*
X10427682Y-10631722D02*
X10418158Y-10650770D01*
X10608634Y-10536484D02*
X10608634Y-10574579D01*
X10684825Y-10536484D02*
X10684825Y-10574579D01*
X10980063Y-10812674D02*
X10970539Y-10803150D01*
X10970539Y-10803150D02*
X10951491Y-10774579D01*
X10951491Y-10774579D02*
X10941968Y-10755531D01*
X10941968Y-10755531D02*
X10932444Y-10726960D01*
X10932444Y-10726960D02*
X10922920Y-10679341D01*
X10922920Y-10679341D02*
X10922920Y-10641246D01*
X10922920Y-10641246D02*
X10932444Y-10593627D01*
X10932444Y-10593627D02*
X10941968Y-10565055D01*
X10941968Y-10565055D02*
X10951491Y-10546008D01*
X10951491Y-10546008D02*
X10970539Y-10517436D01*
X10970539Y-10517436D02*
X10980063Y-10507912D01*
X11046730Y-10555531D02*
X11056253Y-10546008D01*
X11056253Y-10546008D02*
X11075301Y-10536484D01*
X11075301Y-10536484D02*
X11122920Y-10536484D01*
X11122920Y-10536484D02*
X11141968Y-10546008D01*
X11141968Y-10546008D02*
X11151491Y-10555531D01*
X11151491Y-10555531D02*
X11161015Y-10574579D01*
X11161015Y-10574579D02*
X11161015Y-10593627D01*
X11161015Y-10593627D02*
X11151491Y-10622198D01*
X11151491Y-10622198D02*
X11037206Y-10736484D01*
X11037206Y-10736484D02*
X11161015Y-10736484D01*
X11399110Y-10736484D02*
X11399110Y-10536484D01*
X11484825Y-10736484D02*
X11484825Y-10631722D01*
X11484825Y-10631722D02*
X11475301Y-10612674D01*
X11475301Y-10612674D02*
X11456253Y-10603150D01*
X11456253Y-10603150D02*
X11427682Y-10603150D01*
X11427682Y-10603150D02*
X11408634Y-10612674D01*
X11408634Y-10612674D02*
X11399110Y-10622198D01*
X11608634Y-10736484D02*
X11589587Y-10726960D01*
X11589587Y-10726960D02*
X11580063Y-10717436D01*
X11580063Y-10717436D02*
X11570539Y-10698389D01*
X11570539Y-10698389D02*
X11570539Y-10641246D01*
X11570539Y-10641246D02*
X11580063Y-10622198D01*
X11580063Y-10622198D02*
X11589587Y-10612674D01*
X11589587Y-10612674D02*
X11608634Y-10603150D01*
X11608634Y-10603150D02*
X11637206Y-10603150D01*
X11637206Y-10603150D02*
X11656253Y-10612674D01*
X11656253Y-10612674D02*
X11665777Y-10622198D01*
X11665777Y-10622198D02*
X11675301Y-10641246D01*
X11675301Y-10641246D02*
X11675301Y-10698389D01*
X11675301Y-10698389D02*
X11665777Y-10717436D01*
X11665777Y-10717436D02*
X11656253Y-10726960D01*
X11656253Y-10726960D02*
X11637206Y-10736484D01*
X11637206Y-10736484D02*
X11608634Y-10736484D01*
X11789587Y-10736484D02*
X11770539Y-10726960D01*
X11770539Y-10726960D02*
X11761015Y-10707912D01*
X11761015Y-10707912D02*
X11761015Y-10536484D01*
X11941968Y-10726960D02*
X11922920Y-10736484D01*
X11922920Y-10736484D02*
X11884825Y-10736484D01*
X11884825Y-10736484D02*
X11865777Y-10726960D01*
X11865777Y-10726960D02*
X11856253Y-10707912D01*
X11856253Y-10707912D02*
X11856253Y-10631722D01*
X11856253Y-10631722D02*
X11865777Y-10612674D01*
X11865777Y-10612674D02*
X11884825Y-10603150D01*
X11884825Y-10603150D02*
X11922920Y-10603150D01*
X11922920Y-10603150D02*
X11941968Y-10612674D01*
X11941968Y-10612674D02*
X11951491Y-10631722D01*
X11951491Y-10631722D02*
X11951491Y-10650770D01*
X11951491Y-10650770D02*
X11856253Y-10669817D01*
X12027682Y-10726960D02*
X12046730Y-10736484D01*
X12046730Y-10736484D02*
X12084825Y-10736484D01*
X12084825Y-10736484D02*
X12103872Y-10726960D01*
X12103872Y-10726960D02*
X12113396Y-10707912D01*
X12113396Y-10707912D02*
X12113396Y-10698389D01*
X12113396Y-10698389D02*
X12103872Y-10679341D01*
X12103872Y-10679341D02*
X12084825Y-10669817D01*
X12084825Y-10669817D02*
X12056253Y-10669817D01*
X12056253Y-10669817D02*
X12037206Y-10660293D01*
X12037206Y-10660293D02*
X12027682Y-10641246D01*
X12027682Y-10641246D02*
X12027682Y-10631722D01*
X12027682Y-10631722D02*
X12037206Y-10612674D01*
X12037206Y-10612674D02*
X12056253Y-10603150D01*
X12056253Y-10603150D02*
X12084825Y-10603150D01*
X12084825Y-10603150D02*
X12103872Y-10612674D01*
X12180063Y-10812674D02*
X12189587Y-10803150D01*
X12189587Y-10803150D02*
X12208634Y-10774579D01*
X12208634Y-10774579D02*
X12218158Y-10755531D01*
X12218158Y-10755531D02*
X12227682Y-10726960D01*
X12227682Y-10726960D02*
X12237206Y-10679341D01*
X12237206Y-10679341D02*
X12237206Y-10641246D01*
X12237206Y-10641246D02*
X12227682Y-10593627D01*
X12227682Y-10593627D02*
X12218158Y-10565055D01*
X12218158Y-10565055D02*
X12208634Y-10546008D01*
X12208634Y-10546008D02*
X12189587Y-10517436D01*
X12189587Y-10517436D02*
X12180063Y-10507912D01*
X12541968Y-10812674D02*
X12532444Y-10803150D01*
X12532444Y-10803150D02*
X12513396Y-10774579D01*
X12513396Y-10774579D02*
X12503872Y-10755531D01*
X12503872Y-10755531D02*
X12494349Y-10726960D01*
X12494349Y-10726960D02*
X12484825Y-10679341D01*
X12484825Y-10679341D02*
X12484825Y-10641246D01*
X12484825Y-10641246D02*
X12494349Y-10593627D01*
X12494349Y-10593627D02*
X12503872Y-10565055D01*
X12503872Y-10565055D02*
X12513396Y-10546008D01*
X12513396Y-10546008D02*
X12532444Y-10517436D01*
X12532444Y-10517436D02*
X12541968Y-10507912D01*
X12618158Y-10603150D02*
X12618158Y-10736484D01*
X12618158Y-10622198D02*
X12627682Y-10612674D01*
X12627682Y-10612674D02*
X12646730Y-10603150D01*
X12646730Y-10603150D02*
X12675301Y-10603150D01*
X12675301Y-10603150D02*
X12694349Y-10612674D01*
X12694349Y-10612674D02*
X12703872Y-10631722D01*
X12703872Y-10631722D02*
X12703872Y-10736484D01*
X12827682Y-10736484D02*
X12808634Y-10726960D01*
X12808634Y-10726960D02*
X12799111Y-10717436D01*
X12799111Y-10717436D02*
X12789587Y-10698389D01*
X12789587Y-10698389D02*
X12789587Y-10641246D01*
X12789587Y-10641246D02*
X12799111Y-10622198D01*
X12799111Y-10622198D02*
X12808634Y-10612674D01*
X12808634Y-10612674D02*
X12827682Y-10603150D01*
X12827682Y-10603150D02*
X12856253Y-10603150D01*
X12856253Y-10603150D02*
X12875301Y-10612674D01*
X12875301Y-10612674D02*
X12884825Y-10622198D01*
X12884825Y-10622198D02*
X12894349Y-10641246D01*
X12894349Y-10641246D02*
X12894349Y-10698389D01*
X12894349Y-10698389D02*
X12884825Y-10717436D01*
X12884825Y-10717436D02*
X12875301Y-10726960D01*
X12875301Y-10726960D02*
X12856253Y-10736484D01*
X12856253Y-10736484D02*
X12827682Y-10736484D01*
X12951492Y-10603150D02*
X13027682Y-10603150D01*
X12980063Y-10536484D02*
X12980063Y-10707912D01*
X12980063Y-10707912D02*
X12989587Y-10726960D01*
X12989587Y-10726960D02*
X13008634Y-10736484D01*
X13008634Y-10736484D02*
X13027682Y-10736484D01*
X13246730Y-10603150D02*
X13246730Y-10803150D01*
X13246730Y-10612674D02*
X13265777Y-10603150D01*
X13265777Y-10603150D02*
X13303873Y-10603150D01*
X13303873Y-10603150D02*
X13322920Y-10612674D01*
X13322920Y-10612674D02*
X13332444Y-10622198D01*
X13332444Y-10622198D02*
X13341968Y-10641246D01*
X13341968Y-10641246D02*
X13341968Y-10698389D01*
X13341968Y-10698389D02*
X13332444Y-10717436D01*
X13332444Y-10717436D02*
X13322920Y-10726960D01*
X13322920Y-10726960D02*
X13303873Y-10736484D01*
X13303873Y-10736484D02*
X13265777Y-10736484D01*
X13265777Y-10736484D02*
X13246730Y-10726960D01*
X13456253Y-10736484D02*
X13437206Y-10726960D01*
X13437206Y-10726960D02*
X13427682Y-10707912D01*
X13427682Y-10707912D02*
X13427682Y-10536484D01*
X13618158Y-10736484D02*
X13618158Y-10631722D01*
X13618158Y-10631722D02*
X13608634Y-10612674D01*
X13608634Y-10612674D02*
X13589587Y-10603150D01*
X13589587Y-10603150D02*
X13551492Y-10603150D01*
X13551492Y-10603150D02*
X13532444Y-10612674D01*
X13618158Y-10726960D02*
X13599111Y-10736484D01*
X13599111Y-10736484D02*
X13551492Y-10736484D01*
X13551492Y-10736484D02*
X13532444Y-10726960D01*
X13532444Y-10726960D02*
X13522920Y-10707912D01*
X13522920Y-10707912D02*
X13522920Y-10688865D01*
X13522920Y-10688865D02*
X13532444Y-10669817D01*
X13532444Y-10669817D02*
X13551492Y-10660293D01*
X13551492Y-10660293D02*
X13599111Y-10660293D01*
X13599111Y-10660293D02*
X13618158Y-10650770D01*
X13684825Y-10603150D02*
X13761015Y-10603150D01*
X13713396Y-10536484D02*
X13713396Y-10707912D01*
X13713396Y-10707912D02*
X13722920Y-10726960D01*
X13722920Y-10726960D02*
X13741968Y-10736484D01*
X13741968Y-10736484D02*
X13761015Y-10736484D01*
X13903873Y-10726960D02*
X13884825Y-10736484D01*
X13884825Y-10736484D02*
X13846730Y-10736484D01*
X13846730Y-10736484D02*
X13827682Y-10726960D01*
X13827682Y-10726960D02*
X13818158Y-10707912D01*
X13818158Y-10707912D02*
X13818158Y-10631722D01*
X13818158Y-10631722D02*
X13827682Y-10612674D01*
X13827682Y-10612674D02*
X13846730Y-10603150D01*
X13846730Y-10603150D02*
X13884825Y-10603150D01*
X13884825Y-10603150D02*
X13903873Y-10612674D01*
X13903873Y-10612674D02*
X13913396Y-10631722D01*
X13913396Y-10631722D02*
X13913396Y-10650770D01*
X13913396Y-10650770D02*
X13818158Y-10669817D01*
X14084825Y-10736484D02*
X14084825Y-10536484D01*
X14084825Y-10726960D02*
X14065777Y-10736484D01*
X14065777Y-10736484D02*
X14027682Y-10736484D01*
X14027682Y-10736484D02*
X14008634Y-10726960D01*
X14008634Y-10726960D02*
X13999111Y-10717436D01*
X13999111Y-10717436D02*
X13989587Y-10698389D01*
X13989587Y-10698389D02*
X13989587Y-10641246D01*
X13989587Y-10641246D02*
X13999111Y-10622198D01*
X13999111Y-10622198D02*
X14008634Y-10612674D01*
X14008634Y-10612674D02*
X14027682Y-10603150D01*
X14027682Y-10603150D02*
X14065777Y-10603150D01*
X14065777Y-10603150D02*
X14084825Y-10612674D01*
X14161015Y-10812674D02*
X14170539Y-10803150D01*
X14170539Y-10803150D02*
X14189587Y-10774579D01*
X14189587Y-10774579D02*
X14199111Y-10755531D01*
X14199111Y-10755531D02*
X14208634Y-10726960D01*
X14208634Y-10726960D02*
X14218158Y-10679341D01*
X14218158Y-10679341D02*
X14218158Y-10641246D01*
X14218158Y-10641246D02*
X14208634Y-10593627D01*
X14208634Y-10593627D02*
X14199111Y-10565055D01*
X14199111Y-10565055D02*
X14189587Y-10546008D01*
X14189587Y-10546008D02*
X14170539Y-10517436D01*
X14170539Y-10517436D02*
X14161015Y-10507912D01*
M02*
