G04 #@! TF.GenerationSoftware,KiCad,Pcbnew,9.0.0*
G04 #@! TF.CreationDate,2025-03-15T13:46:40+01:00*
G04 #@! TF.ProjectId,snowbackpack,736e6f77-6261-4636-9b70-61636b2e6b69,rev?*
G04 #@! TF.SameCoordinates,Original*
G04 #@! TF.FileFunction,Soldermask,Bot*
G04 #@! TF.FilePolarity,Negative*
%FSLAX46Y46*%
G04 Gerber Fmt 4.6, Leading zero omitted, Abs format (unit mm)*
G04 Created by KiCad (PCBNEW 9.0.0) date 2025-03-15 13:46:40*
%MOMM*%
%LPD*%
G01*
G04 APERTURE LIST*
G04 Aperture macros list*
%AMFreePoly0*
4,1,21,0.530354,0.450354,0.530500,0.450000,0.530500,-0.450000,0.530354,-0.450354,0.530000,-0.450500,0.440000,-0.450500,0.439646,-0.450354,0.439500,-0.450000,0.439500,-0.050500,0.350000,-0.050500,0.350000,-0.450000,-0.350000,-0.450000,-0.350000,0.450000,0.350000,0.450000,0.350000,0.050500,0.439500,0.050500,0.439500,0.450000,0.439646,0.450354,0.440000,0.450500,0.530000,0.450500,
0.530354,0.450354,0.530354,0.450354,$1*%
%AMFreePoly1*
4,1,13,0.040354,0.250354,0.040500,0.250000,0.040500,-0.300000,0.040354,-0.300354,0.040000,-0.300500,-0.050000,-0.300500,-0.050354,-0.300354,-0.050500,-0.300000,-0.050500,0.250000,-0.050354,0.250354,-0.050000,0.250500,0.040000,0.250500,0.040354,0.250354,0.040354,0.250354,$1*%
%AMFreePoly2*
4,1,13,0.050354,0.160354,0.050500,0.160000,0.050500,-0.140000,0.050354,-0.140354,0.050000,-0.140500,-0.040000,-0.140500,-0.040354,-0.140354,-0.040500,-0.140000,-0.040500,0.160000,-0.040354,0.160354,-0.040000,0.160500,0.050000,0.160500,0.050354,0.160354,0.050354,0.160354,$1*%
%AMFreePoly3*
4,1,23,0.350000,0.100060,0.649972,0.300042,0.650010,0.300049,0.650042,0.300028,0.650050,0.300000,0.650050,0.000050,0.950000,0.000050,0.950035,0.000035,0.950050,0.000000,0.950035,-0.000035,0.950028,-0.000042,0.500028,-0.300042,0.499990,-0.300049,0.499958,-0.300028,0.499950,-0.300000,0.499950,-0.050094,0.350028,-0.150042,0.350000,-0.150047,0.350000,-0.450000,-0.350000,-0.450000,
-0.350000,0.450000,0.350000,0.450000,0.350000,0.100060,0.350000,0.100060,$1*%
%AMFreePoly4*
4,1,18,0.750354,0.450354,0.750500,0.450000,0.750354,0.449646,0.300708,0.000000,0.750354,-0.449646,0.750500,-0.450000,0.750354,-0.450354,0.750000,-0.450500,0.000000,-0.450500,-0.000354,-0.450354,-0.000500,-0.450000,-0.300000,-0.450000,-0.300000,0.450000,-0.000500,0.450000,-0.000354,0.450354,0.000000,0.450500,0.750000,0.450500,0.750354,0.450354,0.750354,0.450354,$1*%
%AMFreePoly5*
4,1,17,0.550355,0.450146,0.550708,0.449999,0.550854,0.449645,0.550708,0.449292,0.101416,0.000000,0.550708,-0.449292,0.550854,-0.449646,0.550708,-0.450000,0.550355,-0.450146,0.350001,-0.450500,0.349646,-0.450354,-0.100354,-0.000354,-0.100500,0.000000,-0.100354,0.000354,0.349646,0.450354,0.350001,0.450500,0.550355,0.450146,0.550355,0.450146,$1*%
G04 Aperture macros list end*
%ADD10C,0.649987*%
%ADD11O,1.000000X2.100000*%
%ADD12O,1.000000X1.800000*%
%ADD13C,0.900000*%
%ADD14FreePoly0,90.000000*%
%ADD15FreePoly1,90.000000*%
%ADD16FreePoly2,90.000000*%
%ADD17C,1.000000*%
%ADD18FreePoly3,90.000000*%
%ADD19FreePoly0,270.000000*%
%ADD20FreePoly1,270.000000*%
%ADD21FreePoly2,270.000000*%
%ADD22FreePoly3,180.000000*%
%ADD23FreePoly3,270.000000*%
%ADD24FreePoly3,0.000000*%
%ADD25FreePoly0,0.000000*%
%ADD26FreePoly1,0.000000*%
%ADD27FreePoly2,0.000000*%
%ADD28FreePoly0,180.000000*%
%ADD29FreePoly1,180.000000*%
%ADD30FreePoly2,180.000000*%
%ADD31FreePoly4,90.000000*%
%ADD32FreePoly5,90.000000*%
G04 APERTURE END LIST*
D10*
X90909982Y-94144532D03*
X96690018Y-94144532D03*
D11*
X98120041Y-93644913D03*
D12*
X98120041Y-97825000D03*
X89479959Y-97825000D03*
D11*
X89479959Y-93644913D03*
D13*
X108750000Y-100000000D03*
D14*
X108750000Y-99650000D03*
D15*
X108750000Y-98980000D03*
D16*
X108750000Y-98810000D03*
D17*
X86800000Y-95300000D03*
D13*
X101250000Y-100000000D03*
D18*
X101250000Y-99650000D03*
D13*
X108650000Y-82000000D03*
D19*
X108650000Y-82350000D03*
D20*
X108650000Y-83020000D03*
D21*
X108650000Y-83190000D03*
D17*
X87700000Y-93150000D03*
X84700000Y-95300000D03*
D13*
X113625025Y-92450000D03*
D22*
X113275025Y-92450000D03*
D13*
X78850000Y-100000000D03*
D14*
X78850000Y-99650000D03*
D15*
X78850000Y-98980000D03*
D16*
X78850000Y-98810000D03*
D13*
X101150000Y-82000000D03*
D23*
X101150000Y-82350000D03*
D13*
X74024975Y-92550000D03*
D24*
X74374975Y-92550000D03*
D13*
X74004750Y-97550000D03*
D25*
X74354750Y-97550000D03*
D26*
X75024750Y-97550000D03*
D27*
X75194750Y-97550000D03*
D13*
X86450000Y-82000000D03*
D23*
X86450000Y-82350000D03*
D17*
X90900000Y-86500000D03*
X82600000Y-95300000D03*
D13*
X113645250Y-97450000D03*
D28*
X113295250Y-97450000D03*
D29*
X112625250Y-97450000D03*
D30*
X112455250Y-97450000D03*
D17*
X88800000Y-86500000D03*
D13*
X86350000Y-100000000D03*
D18*
X86350000Y-99650000D03*
D13*
X83850000Y-100000000D03*
D31*
X83850000Y-99700000D03*
D32*
X83850000Y-99200000D03*
D17*
X80500000Y-95300000D03*
M02*
