G04 #@! TF.GenerationSoftware,KiCad,Pcbnew,9.0.0*
G04 #@! TF.CreationDate,2025-03-15T13:46:40+01:00*
G04 #@! TF.ProjectId,snowbackpack,736e6f77-6261-4636-9b70-61636b2e6b69,rev?*
G04 #@! TF.SameCoordinates,Original*
G04 #@! TF.FileFunction,Paste,Top*
G04 #@! TF.FilePolarity,Positive*
%FSLAX46Y46*%
G04 Gerber Fmt 4.6, Leading zero omitted, Abs format (unit mm)*
G04 Created by KiCad (PCBNEW 9.0.0) date 2025-03-15 13:46:40*
%MOMM*%
%LPD*%
G01*
G04 APERTURE LIST*
G04 Aperture macros list*
%AMRoundRect*
0 Rectangle with rounded corners*
0 $1 Rounding radius*
0 $2 $3 $4 $5 $6 $7 $8 $9 X,Y pos of 4 corners*
0 Add a 4 corners polygon primitive as box body*
4,1,4,$2,$3,$4,$5,$6,$7,$8,$9,$2,$3,0*
0 Add four circle primitives for the rounded corners*
1,1,$1+$1,$2,$3*
1,1,$1+$1,$4,$5*
1,1,$1+$1,$6,$7*
1,1,$1+$1,$8,$9*
0 Add four rect primitives between the rounded corners*
20,1,$1+$1,$2,$3,$4,$5,0*
20,1,$1+$1,$4,$5,$6,$7,0*
20,1,$1+$1,$6,$7,$8,$9,0*
20,1,$1+$1,$8,$9,$2,$3,0*%
G04 Aperture macros list end*
%ADD10RoundRect,0.135000X0.185000X-0.135000X0.185000X0.135000X-0.185000X0.135000X-0.185000X-0.135000X0*%
%ADD11RoundRect,0.135000X0.135000X0.185000X-0.135000X0.185000X-0.135000X-0.185000X0.135000X-0.185000X0*%
%ADD12R,1.100000X0.700000*%
%ADD13RoundRect,0.140000X0.170000X-0.140000X0.170000X0.140000X-0.170000X0.140000X-0.170000X-0.140000X0*%
%ADD14RoundRect,0.140000X0.140000X0.170000X-0.140000X0.170000X-0.140000X-0.170000X0.140000X-0.170000X0*%
%ADD15RoundRect,0.147500X-0.147500X-0.172500X0.147500X-0.172500X0.147500X0.172500X-0.147500X0.172500X0*%
%ADD16RoundRect,0.140000X-0.170000X0.140000X-0.170000X-0.140000X0.170000X-0.140000X0.170000X0.140000X0*%
%ADD17RoundRect,0.147500X-0.172500X0.147500X-0.172500X-0.147500X0.172500X-0.147500X0.172500X0.147500X0*%
%ADD18RoundRect,0.135000X-0.135000X-0.185000X0.135000X-0.185000X0.135000X0.185000X-0.135000X0.185000X0*%
%ADD19RoundRect,0.135000X-0.185000X0.135000X-0.185000X-0.135000X0.185000X-0.135000X0.185000X0.135000X0*%
%ADD20RoundRect,0.150000X0.587500X0.150000X-0.587500X0.150000X-0.587500X-0.150000X0.587500X-0.150000X0*%
%ADD21RoundRect,0.093750X0.093750X-0.156250X0.093750X0.156250X-0.093750X0.156250X-0.093750X-0.156250X0*%
%ADD22RoundRect,0.075000X0.075000X-0.250000X0.075000X0.250000X-0.075000X0.250000X-0.075000X-0.250000X0*%
%ADD23RoundRect,0.140000X-0.140000X-0.170000X0.140000X-0.170000X0.140000X0.170000X-0.140000X0.170000X0*%
%ADD24R,1.600000X0.600000*%
%ADD25R,2.200000X1.200000*%
%ADD26RoundRect,0.218750X0.256250X-0.218750X0.256250X0.218750X-0.256250X0.218750X-0.256250X-0.218750X0*%
%ADD27R,0.680010X0.280010*%
%ADD28RoundRect,0.150000X0.150000X-0.512500X0.150000X0.512500X-0.150000X0.512500X-0.150000X-0.512500X0*%
%ADD29R,0.729997X0.600000*%
%ADD30R,0.700000X0.200000*%
%ADD31R,0.200000X0.700000*%
%ADD32R,2.700000X2.700000*%
%ADD33R,0.550013X1.229997*%
%ADD34R,1.000000X1.500000*%
%ADD35R,0.300000X1.150013*%
%ADD36R,0.280010X0.500000*%
%ADD37R,0.500000X0.280010*%
%ADD38R,0.800000X1.700000*%
G04 APERTURE END LIST*
D10*
X92000000Y-90740001D03*
X92000000Y-91759999D03*
D11*
X89859999Y-89300000D03*
X88840001Y-89300000D03*
D12*
X105894006Y-96951081D03*
X105894006Y-96001118D03*
X105894006Y-95049125D03*
X103305994Y-95049125D03*
X103305994Y-96949047D03*
D13*
X81924994Y-88280000D03*
X81924994Y-87320000D03*
D14*
X104079999Y-86100000D03*
X103119999Y-86100000D03*
D15*
X93315000Y-87550000D03*
X94285000Y-87550000D03*
D16*
X80111517Y-92734213D03*
X80111517Y-93694213D03*
D17*
X83174994Y-87315000D03*
X83174994Y-88285000D03*
D11*
X76509999Y-94500000D03*
X75490001Y-94500000D03*
X79109999Y-94600000D03*
X78090001Y-94600000D03*
D18*
X104090001Y-98400000D03*
X105109999Y-98400000D03*
D13*
X80946378Y-88280000D03*
X80946378Y-87320000D03*
D10*
X79587495Y-97297498D03*
X79587495Y-96277500D03*
D18*
X85690001Y-94900000D03*
X86709999Y-94900000D03*
D17*
X107600000Y-95515000D03*
X107600000Y-96485000D03*
D18*
X85690001Y-96899998D03*
X86709999Y-96899998D03*
D19*
X97000000Y-86190128D03*
X97000000Y-87210126D03*
D17*
X111462500Y-88915000D03*
X111462500Y-89885000D03*
D20*
X109600000Y-91350000D03*
X109600000Y-89450000D03*
X107724999Y-90400000D03*
D17*
X75100000Y-86865000D03*
X75100000Y-87835000D03*
D13*
X87450000Y-87180000D03*
X87450000Y-86220000D03*
D16*
X80274994Y-89245000D03*
X80274994Y-90205000D03*
D14*
X104180000Y-93600001D03*
X103220000Y-93600001D03*
D15*
X78353724Y-90225000D03*
X79323724Y-90225000D03*
D21*
X93262500Y-91250000D03*
D22*
X93800000Y-91325000D03*
D21*
X94337500Y-91250000D03*
X94337500Y-89550000D03*
D22*
X93800000Y-89475000D03*
D21*
X93262500Y-89550000D03*
D18*
X107790002Y-83800000D03*
X108810000Y-83800000D03*
D23*
X107760184Y-87200000D03*
X108720184Y-87200000D03*
D16*
X85524994Y-85208961D03*
X85524994Y-86168961D03*
D11*
X102110000Y-95100000D03*
X101090000Y-95100000D03*
D16*
X106400000Y-85020000D03*
X106400000Y-85980000D03*
D10*
X111462501Y-91824998D03*
X111462501Y-90805000D03*
D13*
X101000000Y-87280000D03*
X101000000Y-86320000D03*
D24*
X75100000Y-82450000D03*
X75100000Y-85599999D03*
D18*
X85490001Y-87600000D03*
X86509999Y-87600000D03*
D23*
X105120000Y-93600000D03*
X106080000Y-93600000D03*
D25*
X110800000Y-86528143D03*
X110800000Y-84471755D03*
D26*
X101100000Y-98187501D03*
X101100000Y-96612499D03*
D20*
X78024994Y-97750000D03*
X78024994Y-95850000D03*
X76149993Y-96800000D03*
D27*
X108880163Y-86000000D03*
X108880163Y-85500127D03*
X108880163Y-85000000D03*
X107600000Y-85000000D03*
X107600000Y-85500127D03*
X107600000Y-86000000D03*
D13*
X81924994Y-86180000D03*
X81924994Y-85220000D03*
X83600000Y-95980000D03*
X83600000Y-95020000D03*
D28*
X103150001Y-90037500D03*
X104100000Y-90037500D03*
X105049999Y-90037500D03*
X105049999Y-87762500D03*
X103150001Y-87762500D03*
D29*
X83174955Y-86099924D03*
X84275033Y-86099924D03*
X84275033Y-85300076D03*
X83174955Y-85300076D03*
D15*
X78636567Y-91800000D03*
X79606567Y-91800000D03*
D23*
X103119999Y-91700000D03*
X104079999Y-91700000D03*
D14*
X87704994Y-91800000D03*
X86744994Y-91800000D03*
D10*
X97000000Y-89110126D03*
X97000000Y-88090128D03*
D30*
X81624993Y-90200102D03*
X81624994Y-90599898D03*
X81624994Y-91000203D03*
X81624994Y-91398984D03*
X81624994Y-91800051D03*
X81624994Y-92200102D03*
X81624993Y-92599898D03*
D31*
X82425096Y-93400001D03*
X82824892Y-93400000D03*
X83224943Y-93400000D03*
X83624994Y-93399238D03*
X84024791Y-93400000D03*
X84425096Y-93400000D03*
X84824892Y-93400001D03*
D30*
X85624995Y-92599898D03*
X85624994Y-92200102D03*
X85624994Y-91799797D03*
X85624995Y-91400000D03*
X85624994Y-91000203D03*
X85624994Y-90599898D03*
X85624995Y-90200102D03*
D31*
X84824892Y-89399999D03*
X84425096Y-89400000D03*
X84024791Y-89400000D03*
X83624994Y-89400254D03*
X83225197Y-89400000D03*
X82824892Y-89400000D03*
X82425096Y-89399999D03*
D32*
X83624994Y-91400255D03*
D23*
X100045019Y-84600128D03*
X101005019Y-84600128D03*
D18*
X99190001Y-91650000D03*
X100209999Y-91650000D03*
D17*
X81700000Y-95115000D03*
X81700000Y-96085000D03*
D16*
X78131618Y-92734213D03*
X78131618Y-93694213D03*
D33*
X110199873Y-98192558D03*
X110999975Y-98192558D03*
D34*
X112149835Y-96407442D03*
X109050013Y-96407442D03*
D18*
X85690001Y-95900000D03*
X86709999Y-95900000D03*
D10*
X95600000Y-91709999D03*
X95600000Y-90690001D03*
D11*
X89859999Y-90299998D03*
X88840001Y-90299998D03*
D13*
X77424509Y-91155000D03*
X77424509Y-90195000D03*
D35*
X90449987Y-93080016D03*
X91250089Y-93080016D03*
X92550064Y-93080016D03*
X93550064Y-93080016D03*
X94049936Y-93080016D03*
X95049936Y-93080016D03*
X96349911Y-93080016D03*
X97150013Y-93080016D03*
X96850038Y-93080016D03*
X96049936Y-93080016D03*
X95550064Y-93080016D03*
X94550064Y-93080016D03*
X93049936Y-93080016D03*
X92049936Y-93080016D03*
X91550064Y-93080016D03*
X90749962Y-93080016D03*
D16*
X79121567Y-92734211D03*
X79121567Y-93694211D03*
D36*
X98349936Y-87975083D03*
X98850064Y-87975083D03*
X99349936Y-87975083D03*
X99850064Y-87975083D03*
D37*
X100025019Y-87300000D03*
X100025019Y-86800127D03*
X100025019Y-86300000D03*
D36*
X99850064Y-85625171D03*
X99349936Y-85625171D03*
X98850064Y-85625171D03*
X98349936Y-85625171D03*
D37*
X98174981Y-86300000D03*
X98174981Y-86800127D03*
X98174981Y-87300000D03*
D18*
X95990001Y-85300127D03*
X97009999Y-85300127D03*
D38*
X88499999Y-86700000D03*
X91900001Y-86700000D03*
M02*
