M48
; DRILL file {KiCad 9.0.0} date 2025-03-15T13:46:52+0100
; FORMAT={-:-/ absolute / metric / decimal}
; #@! TF.CreationDate,2025-03-15T13:46:52+01:00
; #@! TF.GenerationSoftware,Kicad,Pcbnew,9.0.0
; #@! TF.FileFunction,Plated,1,2,PTH
FMAT,2
METRIC
; #@! TA.AperFunction,Plated,PTH,ViaDrill
T1C0.300
; #@! TA.AperFunction,Plated,PTH,ComponentDrill
T2C0.600
%
G90
G05
T1
X76.65Y-93.2
X77.4Y-89.25
X77.4Y-92.05
X78.35Y-89.25
X79.3Y-89.25
X79.3Y-95.3
X79.8Y-98.4
X80.363Y-91.498
X80.505Y-94.07
X80.7Y-92.0
X80.95Y-97.7
X81.0Y-85.35
X81.0Y-86.4
X81.6Y-93.1
X82.0Y-84.45
X82.338Y-94.394
X82.935Y-94.453
X83.0Y-90.7
X83.0Y-92.1
X83.55Y-84.45
X83.625Y-91.4
X84.085Y-94.391
X84.2Y-87.075
X84.3Y-90.7
X84.631Y-94.139
X85.2Y-84.45
X86.059Y-96.569
X86.375Y-93.225
X86.4Y-94.05
X86.425Y-92.482
X87.2Y-87.7
X87.525Y-85.25
X88.8Y-91.8
X88.95Y-85.25
X89.5Y-87.2
X89.85Y-91.8
X90.2Y-87.2
X90.3Y-88.25
X90.35Y-85.25
X90.85Y-91.8
X91.7Y-85.25
X91.7Y-88.2
X92.95Y-85.25
X94.7Y-85.25
X95.925Y-88.125
X96.203Y-87.199
X97.675Y-89.125
X99.0Y-86.4
X99.3Y-95.2
X100.375Y-88.5
X100.55Y-89.85
X100.8Y-92.4
X101.375Y-90.55
X101.375Y-91.5
X101.6Y-92.9
X101.8Y-85.05
X102.1Y-86.45
X103.7Y-91.05
X104.3Y-82.8
X104.55Y-91.05
X104.6Y-95.05
X104.6Y-96.0
X104.6Y-96.95
X105.3Y-82.8
X106.15Y-86.95
X106.15Y-87.8
X106.9Y-84.4
X107.0Y-87.8
X110.2Y-96.65
X111.0Y-96.65
X111.55Y-82.9
X112.75Y-82.9
X112.75Y-84.0
T2
X74.005Y-97.55
X74.025Y-92.55
X78.85Y-100.0
X83.85Y-100.0
X86.35Y-100.0
X86.45Y-82.0
X101.15Y-82.0
X101.25Y-100.0
X108.65Y-82.0
X108.75Y-100.0
X113.625Y-92.45
X113.645Y-97.45
T2
X89.48Y-93.095G85X89.48Y-94.195
G05
X89.48Y-97.425G85X89.48Y-98.225
G05
X98.12Y-93.095G85X98.12Y-94.195
G05
X98.12Y-97.425G85X98.12Y-98.225
G05
M30
