G04 #@! TF.GenerationSoftware,KiCad,Pcbnew,9.0.0*
G04 #@! TF.CreationDate,2025-03-15T13:46:40+01:00*
G04 #@! TF.ProjectId,snowbackpack,736e6f77-6261-4636-9b70-61636b2e6b69,rev?*
G04 #@! TF.SameCoordinates,Original*
G04 #@! TF.FileFunction,Copper,L1,Top*
G04 #@! TF.FilePolarity,Positive*
%FSLAX46Y46*%
G04 Gerber Fmt 4.6, Leading zero omitted, Abs format (unit mm)*
G04 Created by KiCad (PCBNEW 9.0.0) date 2025-03-15 13:46:40*
%MOMM*%
%LPD*%
G01*
G04 APERTURE LIST*
G04 Aperture macros list*
%AMRoundRect*
0 Rectangle with rounded corners*
0 $1 Rounding radius*
0 $2 $3 $4 $5 $6 $7 $8 $9 X,Y pos of 4 corners*
0 Add a 4 corners polygon primitive as box body*
4,1,4,$2,$3,$4,$5,$6,$7,$8,$9,$2,$3,0*
0 Add four circle primitives for the rounded corners*
1,1,$1+$1,$2,$3*
1,1,$1+$1,$4,$5*
1,1,$1+$1,$6,$7*
1,1,$1+$1,$8,$9*
0 Add four rect primitives between the rounded corners*
20,1,$1+$1,$2,$3,$4,$5,0*
20,1,$1+$1,$4,$5,$6,$7,0*
20,1,$1+$1,$6,$7,$8,$9,0*
20,1,$1+$1,$8,$9,$2,$3,0*%
%AMFreePoly0*
4,1,23,0.500000,-0.750000,0.000000,-0.750000,0.000000,-0.745722,-0.065263,-0.745722,-0.191342,-0.711940,-0.304381,-0.646677,-0.396677,-0.554381,-0.461940,-0.441342,-0.495722,-0.315263,-0.495722,-0.250000,-0.500000,-0.250000,-0.500000,0.250000,-0.495722,0.250000,-0.495722,0.315263,-0.461940,0.441342,-0.396677,0.554381,-0.304381,0.646677,-0.191342,0.711940,-0.065263,0.745722,0.000000,0.745722,
0.000000,0.750000,0.500000,0.750000,0.500000,-0.750000,0.500000,-0.750000,$1*%
%AMFreePoly1*
4,1,23,0.000000,0.745722,0.065263,0.745722,0.191342,0.711940,0.304381,0.646677,0.396677,0.554381,0.461940,0.441342,0.495722,0.315263,0.495722,0.250000,0.500000,0.250000,0.500000,-0.250000,0.495722,-0.250000,0.495722,-0.315263,0.461940,-0.441342,0.396677,-0.554381,0.304381,-0.646677,0.191342,-0.711940,0.065263,-0.745722,0.000000,-0.745722,0.000000,-0.750000,-0.500000,-0.750000,
-0.500000,0.750000,0.000000,0.750000,0.000000,0.745722,0.000000,0.745722,$1*%
G04 Aperture macros list end*
G04 #@! TA.AperFunction,SMDPad,CuDef*
%ADD10RoundRect,0.135000X0.185000X-0.135000X0.185000X0.135000X-0.185000X0.135000X-0.185000X-0.135000X0*%
G04 #@! TD*
G04 #@! TA.AperFunction,SMDPad,CuDef*
%ADD11RoundRect,0.135000X0.135000X0.185000X-0.135000X0.185000X-0.135000X-0.185000X0.135000X-0.185000X0*%
G04 #@! TD*
G04 #@! TA.AperFunction,SMDPad,CuDef*
%ADD12FreePoly0,180.000000*%
G04 #@! TD*
G04 #@! TA.AperFunction,SMDPad,CuDef*
%ADD13FreePoly1,180.000000*%
G04 #@! TD*
G04 #@! TA.AperFunction,SMDPad,CuDef*
%ADD14R,1.100000X0.700000*%
G04 #@! TD*
G04 #@! TA.AperFunction,SMDPad,CuDef*
%ADD15RoundRect,0.140000X0.170000X-0.140000X0.170000X0.140000X-0.170000X0.140000X-0.170000X-0.140000X0*%
G04 #@! TD*
G04 #@! TA.AperFunction,SMDPad,CuDef*
%ADD16RoundRect,0.140000X0.140000X0.170000X-0.140000X0.170000X-0.140000X-0.170000X0.140000X-0.170000X0*%
G04 #@! TD*
G04 #@! TA.AperFunction,SMDPad,CuDef*
%ADD17RoundRect,0.147500X-0.147500X-0.172500X0.147500X-0.172500X0.147500X0.172500X-0.147500X0.172500X0*%
G04 #@! TD*
G04 #@! TA.AperFunction,SMDPad,CuDef*
%ADD18RoundRect,0.140000X-0.170000X0.140000X-0.170000X-0.140000X0.170000X-0.140000X0.170000X0.140000X0*%
G04 #@! TD*
G04 #@! TA.AperFunction,SMDPad,CuDef*
%ADD19RoundRect,0.147500X-0.172500X0.147500X-0.172500X-0.147500X0.172500X-0.147500X0.172500X0.147500X0*%
G04 #@! TD*
G04 #@! TA.AperFunction,SMDPad,CuDef*
%ADD20RoundRect,0.135000X-0.135000X-0.185000X0.135000X-0.185000X0.135000X0.185000X-0.135000X0.185000X0*%
G04 #@! TD*
G04 #@! TA.AperFunction,SMDPad,CuDef*
%ADD21RoundRect,0.135000X-0.185000X0.135000X-0.185000X-0.135000X0.185000X-0.135000X0.185000X0.135000X0*%
G04 #@! TD*
G04 #@! TA.AperFunction,SMDPad,CuDef*
%ADD22RoundRect,0.150000X0.587500X0.150000X-0.587500X0.150000X-0.587500X-0.150000X0.587500X-0.150000X0*%
G04 #@! TD*
G04 #@! TA.AperFunction,SMDPad,CuDef*
%ADD23RoundRect,0.093750X0.093750X-0.156250X0.093750X0.156250X-0.093750X0.156250X-0.093750X-0.156250X0*%
G04 #@! TD*
G04 #@! TA.AperFunction,SMDPad,CuDef*
%ADD24RoundRect,0.075000X0.075000X-0.250000X0.075000X0.250000X-0.075000X0.250000X-0.075000X-0.250000X0*%
G04 #@! TD*
G04 #@! TA.AperFunction,SMDPad,CuDef*
%ADD25RoundRect,0.140000X-0.140000X-0.170000X0.140000X-0.170000X0.140000X0.170000X-0.140000X0.170000X0*%
G04 #@! TD*
G04 #@! TA.AperFunction,SMDPad,CuDef*
%ADD26R,1.600000X0.600000*%
G04 #@! TD*
G04 #@! TA.AperFunction,SMDPad,CuDef*
%ADD27R,2.200000X1.200000*%
G04 #@! TD*
G04 #@! TA.AperFunction,SMDPad,CuDef*
%ADD28RoundRect,0.218750X0.256250X-0.218750X0.256250X0.218750X-0.256250X0.218750X-0.256250X-0.218750X0*%
G04 #@! TD*
G04 #@! TA.AperFunction,SMDPad,CuDef*
%ADD29C,1.000000*%
G04 #@! TD*
G04 #@! TA.AperFunction,SMDPad,CuDef*
%ADD30R,0.680010X0.280010*%
G04 #@! TD*
G04 #@! TA.AperFunction,SMDPad,CuDef*
%ADD31RoundRect,0.150000X0.150000X-0.512500X0.150000X0.512500X-0.150000X0.512500X-0.150000X-0.512500X0*%
G04 #@! TD*
G04 #@! TA.AperFunction,SMDPad,CuDef*
%ADD32R,0.729997X0.600000*%
G04 #@! TD*
G04 #@! TA.AperFunction,SMDPad,CuDef*
%ADD33R,0.700000X0.200000*%
G04 #@! TD*
G04 #@! TA.AperFunction,SMDPad,CuDef*
%ADD34R,0.200000X0.700000*%
G04 #@! TD*
G04 #@! TA.AperFunction,SMDPad,CuDef*
%ADD35R,2.700000X2.700000*%
G04 #@! TD*
G04 #@! TA.AperFunction,SMDPad,CuDef*
%ADD36R,0.550013X1.229997*%
G04 #@! TD*
G04 #@! TA.AperFunction,SMDPad,CuDef*
%ADD37R,1.000000X1.500000*%
G04 #@! TD*
G04 #@! TA.AperFunction,ComponentPad*
%ADD38O,1.000000X2.100000*%
G04 #@! TD*
G04 #@! TA.AperFunction,ComponentPad*
%ADD39O,1.000000X1.800000*%
G04 #@! TD*
G04 #@! TA.AperFunction,SMDPad,CuDef*
%ADD40R,0.300000X1.150013*%
G04 #@! TD*
G04 #@! TA.AperFunction,SMDPad,CuDef*
%ADD41R,0.280010X0.500000*%
G04 #@! TD*
G04 #@! TA.AperFunction,SMDPad,CuDef*
%ADD42R,0.500000X0.280010*%
G04 #@! TD*
G04 #@! TA.AperFunction,SMDPad,CuDef*
%ADD43R,0.800000X1.700000*%
G04 #@! TD*
G04 #@! TA.AperFunction,ComponentPad*
%ADD44C,0.900000*%
G04 #@! TD*
G04 #@! TA.AperFunction,ViaPad*
%ADD45C,0.400000*%
G04 #@! TD*
G04 #@! TA.AperFunction,Conductor*
%ADD46C,0.200000*%
G04 #@! TD*
G04 #@! TA.AperFunction,Conductor*
%ADD47C,0.300000*%
G04 #@! TD*
G04 #@! TA.AperFunction,Conductor*
%ADD48C,0.120000*%
G04 #@! TD*
G04 #@! TA.AperFunction,Conductor*
%ADD49C,0.100000*%
G04 #@! TD*
G04 APERTURE END LIST*
D10*
X92000000Y-90740001D03*
X92000000Y-91759999D03*
D11*
X89859999Y-89300000D03*
X88840001Y-89300000D03*
D12*
X100349999Y-89850000D03*
D13*
X99050001Y-89850000D03*
D14*
X105894006Y-96951081D03*
X105894006Y-96001118D03*
X105894006Y-95049125D03*
X103305994Y-95049125D03*
X103305994Y-96949047D03*
D15*
X81924994Y-88280000D03*
X81924994Y-87320000D03*
D16*
X104079999Y-86100000D03*
X103119999Y-86100000D03*
D17*
X93315000Y-87550000D03*
X94285000Y-87550000D03*
D18*
X80111517Y-92734213D03*
X80111517Y-93694213D03*
D19*
X83174994Y-87315000D03*
X83174994Y-88285000D03*
D11*
X76509999Y-94500000D03*
X75490001Y-94500000D03*
X79109999Y-94600000D03*
X78090001Y-94600000D03*
D20*
X104090001Y-98400000D03*
X105109999Y-98400000D03*
D15*
X80946378Y-88280000D03*
X80946378Y-87320000D03*
D10*
X79587495Y-97297498D03*
X79587495Y-96277500D03*
D20*
X85690001Y-94900000D03*
X86709999Y-94900000D03*
D19*
X107600000Y-95515000D03*
X107600000Y-96485000D03*
D20*
X85690001Y-96899998D03*
X86709999Y-96899998D03*
D21*
X97000000Y-86190128D03*
X97000000Y-87210126D03*
D19*
X111462500Y-88915000D03*
X111462500Y-89885000D03*
D22*
X109600000Y-91350000D03*
X109600000Y-89450000D03*
X107724999Y-90400000D03*
D19*
X75100000Y-86865000D03*
X75100000Y-87835000D03*
D15*
X87450000Y-87180000D03*
X87450000Y-86220000D03*
D18*
X80274994Y-89245000D03*
X80274994Y-90205000D03*
D16*
X104180000Y-93600001D03*
X103220000Y-93600001D03*
D17*
X78353724Y-90225000D03*
X79323724Y-90225000D03*
D23*
X93262500Y-91250000D03*
D24*
X93800000Y-91325000D03*
D23*
X94337500Y-91250000D03*
X94337500Y-89550000D03*
D24*
X93800000Y-89475000D03*
D23*
X93262500Y-89550000D03*
D20*
X107790002Y-83800000D03*
X108810000Y-83800000D03*
D25*
X107760184Y-87200000D03*
X108720184Y-87200000D03*
D18*
X85524994Y-85208961D03*
X85524994Y-86168961D03*
D11*
X102110000Y-95100000D03*
X101090000Y-95100000D03*
D18*
X106400000Y-85020000D03*
X106400000Y-85980000D03*
D10*
X111462501Y-91824998D03*
X111462501Y-90805000D03*
D15*
X101000000Y-87280000D03*
X101000000Y-86320000D03*
D26*
X75100000Y-82450000D03*
X75100000Y-85599999D03*
D20*
X85490001Y-87600000D03*
X86509999Y-87600000D03*
D25*
X105120000Y-93600000D03*
X106080000Y-93600000D03*
D27*
X110800000Y-86528143D03*
X110800000Y-84471755D03*
D28*
X101100000Y-98187501D03*
X101100000Y-96612499D03*
D29*
X102700000Y-84300000D03*
D22*
X78024994Y-97750000D03*
X78024994Y-95850000D03*
X76149993Y-96800000D03*
D30*
X108880163Y-86000000D03*
X108880163Y-85500127D03*
X108880163Y-85000000D03*
X107600000Y-85000000D03*
X107600000Y-85500127D03*
X107600000Y-86000000D03*
D15*
X81924994Y-86180000D03*
X81924994Y-85220000D03*
X83600000Y-95980000D03*
X83600000Y-95020000D03*
D31*
X103150001Y-90037500D03*
X104100000Y-90037500D03*
X105049999Y-90037500D03*
X105049999Y-87762500D03*
X103150001Y-87762500D03*
D32*
X83174955Y-86099924D03*
X84275033Y-86099924D03*
X84275033Y-85300076D03*
X83174955Y-85300076D03*
D17*
X78636567Y-91800000D03*
X79606567Y-91800000D03*
D29*
X99800000Y-93600000D03*
D25*
X103119999Y-91700000D03*
X104079999Y-91700000D03*
D16*
X87704994Y-91800000D03*
X86744994Y-91800000D03*
D10*
X97000000Y-89110126D03*
X97000000Y-88090128D03*
D33*
X81624993Y-90200102D03*
X81624994Y-90599898D03*
X81624994Y-91000203D03*
X81624994Y-91398984D03*
X81624994Y-91800051D03*
X81624994Y-92200102D03*
X81624993Y-92599898D03*
D34*
X82425096Y-93400001D03*
X82824892Y-93400000D03*
X83224943Y-93400000D03*
X83624994Y-93399238D03*
X84024791Y-93400000D03*
X84425096Y-93400000D03*
X84824892Y-93400001D03*
D33*
X85624995Y-92599898D03*
X85624994Y-92200102D03*
X85624994Y-91799797D03*
X85624995Y-91400000D03*
X85624994Y-91000203D03*
X85624994Y-90599898D03*
X85624995Y-90200102D03*
D34*
X84824892Y-89399999D03*
X84425096Y-89400000D03*
X84024791Y-89400000D03*
X83624994Y-89400254D03*
X83225197Y-89400000D03*
X82824892Y-89400000D03*
X82425096Y-89399999D03*
D35*
X83624994Y-91400255D03*
D25*
X100045019Y-84600128D03*
X101005019Y-84600128D03*
D29*
X104800000Y-84300000D03*
D20*
X99190001Y-91650000D03*
X100209999Y-91650000D03*
D19*
X81700000Y-95115000D03*
X81700000Y-96085000D03*
D18*
X78131618Y-92734213D03*
X78131618Y-93694213D03*
D36*
X110199873Y-98192558D03*
X110999975Y-98192558D03*
D37*
X112149835Y-96407442D03*
X109050013Y-96407442D03*
D20*
X85690001Y-95900000D03*
X86709999Y-95900000D03*
D10*
X95600000Y-91709999D03*
X95600000Y-90690001D03*
D29*
X107750000Y-93500000D03*
D11*
X89859999Y-90299998D03*
X88840001Y-90299998D03*
D15*
X77424509Y-91155000D03*
X77424509Y-90195000D03*
D38*
X98120041Y-93644913D03*
D39*
X98120041Y-97825000D03*
X89479959Y-97825000D03*
D38*
X89479959Y-93644913D03*
D40*
X90449987Y-93080016D03*
X91250089Y-93080016D03*
X92550064Y-93080016D03*
X93550064Y-93080016D03*
X94049936Y-93080016D03*
X95049936Y-93080016D03*
X96349911Y-93080016D03*
X97150013Y-93080016D03*
X96850038Y-93080016D03*
X96049936Y-93080016D03*
X95550064Y-93080016D03*
X94550064Y-93080016D03*
X93049936Y-93080016D03*
X92049936Y-93080016D03*
X91550064Y-93080016D03*
X90749962Y-93080016D03*
D18*
X79121567Y-92734211D03*
X79121567Y-93694211D03*
D41*
X98349936Y-87975083D03*
X98850064Y-87975083D03*
X99349936Y-87975083D03*
X99850064Y-87975083D03*
D42*
X100025019Y-87300000D03*
X100025019Y-86800127D03*
X100025019Y-86300000D03*
D41*
X99850064Y-85625171D03*
X99349936Y-85625171D03*
X98850064Y-85625171D03*
X98349936Y-85625171D03*
D42*
X98174981Y-86300000D03*
X98174981Y-86800127D03*
X98174981Y-87300000D03*
D20*
X95990001Y-85300127D03*
X97009999Y-85300127D03*
D43*
X88499999Y-86700000D03*
X91900001Y-86700000D03*
D44*
X108750000Y-100000000D03*
X101250000Y-100000000D03*
X108650000Y-82000000D03*
X113625025Y-92450000D03*
X78850000Y-100000000D03*
X101150000Y-82000000D03*
X74024975Y-92550000D03*
X74004750Y-97550000D03*
X86450000Y-82000000D03*
X113645250Y-97450000D03*
X86350000Y-100000000D03*
X83850000Y-100000000D03*
D45*
X90850000Y-91800000D03*
X89850000Y-91800000D03*
X88800000Y-91800000D03*
X104600000Y-96950000D03*
X104600000Y-96000000D03*
X104600000Y-95050000D03*
X111000000Y-96650000D03*
X112750000Y-84000000D03*
X112750000Y-82900000D03*
X106150000Y-86950000D03*
X107000000Y-87800000D03*
X106150000Y-87800000D03*
X102100000Y-86450000D03*
X80950000Y-97700000D03*
X91700000Y-88200000D03*
X90300000Y-88250000D03*
X84300000Y-90700000D03*
X83000000Y-92100000D03*
X101600000Y-92900000D03*
X97675000Y-89125000D03*
X100550000Y-89850000D03*
X99300000Y-95200000D03*
X87200000Y-87700000D03*
X81600000Y-93100000D03*
X86375000Y-93225000D03*
X90200000Y-87200000D03*
X79300000Y-95300000D03*
X81000000Y-85350000D03*
X91700000Y-85250000D03*
X104550000Y-91050000D03*
X82000000Y-84450000D03*
X87525000Y-85250000D03*
X83000000Y-90700000D03*
X80504730Y-94069730D03*
X83550000Y-84450000D03*
X81000000Y-86400000D03*
X76650000Y-93200000D03*
X90350000Y-85250000D03*
X77400000Y-89250000D03*
X92950000Y-85250000D03*
X103700000Y-91050000D03*
X100800000Y-92400000D03*
X101375270Y-91500000D03*
X78350000Y-89250000D03*
X88950000Y-85250000D03*
X110200000Y-96650000D03*
X86400000Y-94050000D03*
X111550000Y-82900000D03*
X83624994Y-91400255D03*
X101375000Y-90550000D03*
X77400000Y-92050000D03*
X85200000Y-84450000D03*
X101800000Y-85050000D03*
X79300000Y-89250000D03*
X94700000Y-85250000D03*
X84200000Y-87075000D03*
X104300000Y-82800000D03*
X105300000Y-82800000D03*
X80700000Y-92000000D03*
X95925270Y-88125270D03*
X86058934Y-96568742D03*
X89500000Y-87200000D03*
X86425156Y-92481774D03*
X106900000Y-84400000D03*
X84084994Y-94390892D03*
X84630606Y-94138731D03*
X80363182Y-91497984D03*
X96202885Y-87199217D03*
X100374981Y-88500000D03*
X82337753Y-94393825D03*
X82934824Y-94453063D03*
X99000000Y-86400000D03*
X79800000Y-98400000D03*
D46*
X91815576Y-89755539D02*
X91815576Y-89710000D01*
X92215576Y-89710000D02*
X92215576Y-89755539D01*
X91815576Y-89710000D02*
X91815576Y-89550000D01*
X93262500Y-89550000D02*
X92375576Y-89550000D01*
X91015576Y-89710000D02*
G75*
G03*
X90855576Y-89550024I-159976J0D01*
G01*
X91975576Y-89915539D02*
G75*
G02*
X91815561Y-89755539I24J160039D01*
G01*
X91175576Y-90255321D02*
G75*
G02*
X91015579Y-90095321I24J160021D01*
G01*
X91815576Y-89450000D02*
G75*
G03*
X91715576Y-89350024I-99976J0D01*
G01*
X90855576Y-89550000D02*
X90775576Y-89550000D01*
X91415576Y-90095321D02*
G75*
G02*
X91255576Y-90255276I-159976J21D01*
G01*
X92215576Y-89755539D02*
G75*
G02*
X92055576Y-89915476I-159976J39D01*
G01*
X90045354Y-90114643D02*
X89859999Y-90299998D01*
X92055576Y-89915539D02*
X91975576Y-89915539D01*
X91515576Y-89350000D02*
G75*
G03*
X91415600Y-89450000I24J-100000D01*
G01*
X92375576Y-89550000D02*
G75*
G03*
X92215600Y-89710000I24J-160000D01*
G01*
X91815576Y-89550000D02*
X91815576Y-89450000D01*
X91715576Y-89350000D02*
X91515576Y-89350000D01*
X91415576Y-89450000D02*
X91415576Y-89550000D01*
X91415576Y-89550000D02*
X91415576Y-89710000D01*
X91415576Y-89710000D02*
X91415576Y-90095321D01*
X91255576Y-90255321D02*
X91175576Y-90255321D01*
X91015576Y-90095321D02*
X91015576Y-89710000D01*
X90291798Y-89868198D02*
X90045354Y-90114643D01*
X90775576Y-89550000D02*
X90609997Y-89550000D01*
X90609997Y-89550000D02*
X90291798Y-89868198D01*
X95550064Y-93080016D02*
X95550064Y-91759935D01*
X95550064Y-91759935D02*
X95600000Y-91709999D01*
X92550064Y-93080016D02*
X92550064Y-92310063D01*
X92550064Y-92310063D02*
X92000000Y-91759999D01*
D47*
X96349911Y-90228862D02*
X95510525Y-89389475D01*
D46*
X93800000Y-89823358D02*
X94077642Y-90101000D01*
X93800000Y-89475000D02*
X93800000Y-89823358D01*
X94077642Y-90101000D02*
X94799000Y-90101000D01*
X94799000Y-90101000D02*
X95510525Y-89389475D01*
D47*
X95510525Y-89389475D02*
X94371049Y-88250000D01*
D46*
X89859999Y-89300000D02*
X90310999Y-88849000D01*
X94337500Y-89153676D02*
X94337500Y-89550000D01*
X90310999Y-88849000D02*
X94032824Y-88849000D01*
X94032824Y-88849000D02*
X94337500Y-89153676D01*
D47*
X96349911Y-93255016D02*
X96349911Y-90228862D01*
X93315000Y-87869999D02*
X93315000Y-87550000D01*
X94371049Y-88250000D02*
X93695001Y-88250000D01*
X93695001Y-88250000D02*
X93315000Y-87869999D01*
X96850911Y-90021342D02*
X94379569Y-87550000D01*
X94379569Y-87550000D02*
X94285000Y-87550000D01*
X96850911Y-90021342D02*
X96850911Y-90600911D01*
X96850911Y-90600911D02*
X99800000Y-93550000D01*
X99800000Y-93550000D02*
X99800000Y-93600000D01*
X93262500Y-91250000D02*
X93051064Y-91461436D01*
X93051064Y-91461436D02*
X93051064Y-93078888D01*
X94049936Y-93080016D02*
X94049936Y-93807150D01*
X94049936Y-93807150D02*
X93951064Y-93906022D01*
X93951064Y-93906022D02*
X93257086Y-93906022D01*
X93257086Y-93906022D02*
X93051064Y-93700000D01*
X93051064Y-93700000D02*
X93051064Y-93080016D01*
X94548936Y-91461436D02*
X94548936Y-92250000D01*
X93550064Y-93080016D02*
X93550064Y-92352882D01*
X93550064Y-92352882D02*
X93652946Y-92250000D01*
X93652946Y-92250000D02*
X94548936Y-92250000D01*
X94337500Y-91250000D02*
X94548936Y-91461436D01*
X94548936Y-92250000D02*
X94548936Y-93078888D01*
D48*
X84608885Y-85300076D02*
X84275033Y-85300076D01*
X83624994Y-89400254D02*
X83624994Y-88739487D01*
X85524994Y-85208961D02*
X84366148Y-85208961D01*
X84901031Y-85592222D02*
X84608885Y-85300076D01*
X84366148Y-85208961D02*
X84275033Y-85300076D01*
X83624994Y-88739487D02*
X84901031Y-87463450D01*
X84901031Y-87463450D02*
X84901031Y-85592222D01*
X78024994Y-95850000D02*
X79159995Y-95850000D01*
X79622500Y-96277500D02*
X82425096Y-93474904D01*
X79159995Y-95850000D02*
X79587495Y-96277500D01*
X82425096Y-93474904D02*
X82425096Y-93400001D01*
X79587495Y-96277500D02*
X79622500Y-96277500D01*
D46*
X100025019Y-87300000D02*
X100960127Y-87300000D01*
X78024994Y-97295533D02*
X76986494Y-96257033D01*
X100349999Y-89850000D02*
X101000000Y-89199999D01*
X79587495Y-97227505D02*
X81700000Y-95115000D01*
X78024994Y-97750000D02*
X79134993Y-97750000D01*
X100045019Y-84600128D02*
X100045019Y-85430216D01*
X80946378Y-88280000D02*
X80580000Y-88280000D01*
X86500000Y-84550000D02*
X95239874Y-84550000D01*
X97660126Y-89110126D02*
X97675000Y-89125000D01*
X96880002Y-86190128D02*
X95990001Y-85300127D01*
D47*
X103150001Y-86130002D02*
X103119999Y-86100000D01*
D46*
X81100000Y-83900000D02*
X85850000Y-83900000D01*
X97000000Y-89110126D02*
X97660126Y-89110126D01*
X79587495Y-97297498D02*
X79587495Y-97227505D01*
X100745147Y-83900000D02*
X102300000Y-83900000D01*
X84211000Y-96306550D02*
X84200000Y-96317550D01*
D48*
X77900000Y-94600000D02*
X78090001Y-94600000D01*
D46*
X77500000Y-94995526D02*
X77047763Y-95447763D01*
D48*
X86744791Y-91799797D02*
X86744994Y-91800000D01*
D46*
X80300000Y-84700000D02*
X81100000Y-83900000D01*
X84200000Y-96350337D02*
X85370661Y-97520998D01*
D47*
X78636567Y-91800000D02*
X78636567Y-92229264D01*
X78636567Y-91800000D02*
X78636567Y-92249211D01*
D46*
X85850000Y-83900000D02*
X86500000Y-84550000D01*
X83624994Y-95044994D02*
X84200000Y-95620000D01*
X87500000Y-92555006D02*
X87500000Y-95109999D01*
X84200000Y-95620000D02*
X84200000Y-95642450D01*
X77047763Y-95447763D02*
X77895526Y-94600000D01*
X85490001Y-87409999D02*
X86500000Y-86400000D01*
X78024994Y-97750000D02*
X78024994Y-97295533D01*
X100960127Y-87300000D02*
X101000000Y-87260127D01*
D48*
X83624994Y-94995006D02*
X83600000Y-95020000D01*
D46*
X76986494Y-96257033D02*
X76986494Y-95509032D01*
X95990001Y-85300127D02*
X96690000Y-84600128D01*
X100045019Y-85430216D02*
X99850064Y-85625171D01*
D47*
X102100000Y-92400000D02*
X101600000Y-92900000D01*
D46*
X84200000Y-95642450D02*
X84211000Y-95653450D01*
X82824892Y-89224892D02*
X82824892Y-89400000D01*
D47*
X102700000Y-85680001D02*
X103119999Y-86100000D01*
D46*
X84211000Y-95653450D02*
X84211000Y-96306550D01*
X81924994Y-88280000D02*
X80946378Y-88280000D01*
D47*
X103150001Y-87762500D02*
X102100000Y-88812501D01*
D46*
X96690000Y-84600128D02*
X100045019Y-84600128D01*
X84200000Y-96317550D02*
X84200000Y-96350337D01*
D47*
X87409997Y-96200000D02*
X86709999Y-96899998D01*
D46*
X82425096Y-88825096D02*
X82425096Y-89399999D01*
D47*
X78636567Y-92229264D02*
X78131618Y-92734213D01*
X78636567Y-92249211D02*
X79121567Y-92734211D01*
D46*
X81924994Y-88324994D02*
X81924994Y-88280000D01*
D47*
X102700000Y-84300000D02*
X102700000Y-85680001D01*
X102100000Y-89100000D02*
X102100000Y-92400000D01*
D46*
X101000000Y-89199999D02*
X101000000Y-87260127D01*
X97000000Y-86190128D02*
X96880002Y-86190128D01*
X79134993Y-97750000D02*
X79587495Y-97297498D01*
X85490001Y-87800000D02*
X85490001Y-87409999D01*
X80300000Y-88000000D02*
X80300000Y-84700000D01*
X82425096Y-88825096D02*
X81924994Y-88324994D01*
X85370661Y-97520998D02*
X86088999Y-97520998D01*
X86709999Y-96899998D02*
X86709999Y-95900000D01*
X86500000Y-86400000D02*
X86500000Y-84550000D01*
D47*
X99300000Y-95200000D02*
X98300000Y-96200000D01*
X98300000Y-96200000D02*
X87409997Y-96200000D01*
D46*
X77895526Y-94600000D02*
X78090001Y-94600000D01*
X76986494Y-95509032D02*
X77047763Y-95447763D01*
D47*
X103150001Y-87762500D02*
X103150001Y-86130002D01*
D48*
X83624994Y-93399238D02*
X83624994Y-94995006D01*
D47*
X102647628Y-87260127D02*
X103150001Y-87762500D01*
D49*
X82376440Y-89351343D02*
X82374255Y-89349160D01*
D46*
X82425096Y-88825096D02*
X82824892Y-89224892D01*
X95990001Y-85300127D02*
X95239874Y-84550000D01*
D47*
X101000000Y-87260127D02*
X102647628Y-87260127D01*
D48*
X85624994Y-91799797D02*
X86744791Y-91799797D01*
D46*
X102300000Y-83900000D02*
X102700000Y-84300000D01*
X81700000Y-95115000D02*
X83505000Y-95115000D01*
X80580000Y-88280000D02*
X80300000Y-88000000D01*
X86744994Y-91800000D02*
X87500000Y-92555006D01*
X83505000Y-95115000D02*
X83624994Y-94995006D01*
X100045019Y-84600128D02*
X100745147Y-83900000D01*
X86088999Y-97520998D02*
X86709999Y-96899998D01*
X77500000Y-93365831D02*
X77500000Y-94995526D01*
X87500000Y-95109999D02*
X86709999Y-95900000D01*
D48*
X83624994Y-93399238D02*
X83600000Y-93424232D01*
D46*
X78131618Y-92734213D02*
X77500000Y-93365831D01*
D49*
X82091416Y-88225101D02*
X82080082Y-88213768D01*
D47*
X102100000Y-88812501D02*
X102100000Y-89100000D01*
D46*
X98349936Y-87975083D02*
X98349936Y-89149935D01*
X99190001Y-89990000D02*
X99050001Y-89850000D01*
X99190001Y-91650000D02*
X99190001Y-89990000D01*
X98349936Y-89149935D02*
X99050001Y-89850000D01*
X81150000Y-90997984D02*
X81546882Y-90601102D01*
X81546882Y-90601102D02*
X81573898Y-90601102D01*
X81150000Y-90997984D02*
X81624994Y-90997984D01*
X80111517Y-92304950D02*
X79606567Y-91800000D01*
X79606567Y-91393433D02*
X80002016Y-90997984D01*
X80111517Y-92734213D02*
X80111517Y-92304950D01*
X79606567Y-91800000D02*
X79606567Y-91393433D01*
X80002016Y-90997984D02*
X81150000Y-90997984D01*
D47*
X75100000Y-86865000D02*
X75100000Y-85599999D01*
D48*
X87500000Y-87230000D02*
X87450000Y-87180000D01*
X81624993Y-92599898D02*
X81624993Y-93075007D01*
X87500000Y-87400000D02*
X87500000Y-87230000D01*
X81624993Y-93075007D02*
X81600000Y-93100000D01*
X86609999Y-87700000D02*
X86509999Y-87800000D01*
X87200000Y-87700000D02*
X86609999Y-87700000D01*
X88019999Y-87180000D02*
X88499999Y-86700000D01*
X87450000Y-87180000D02*
X88019999Y-87180000D01*
X87200000Y-87700000D02*
X87500000Y-87400000D01*
X85624995Y-92599898D02*
X85624995Y-94810001D01*
X85749898Y-92599898D02*
X86375000Y-93225000D01*
X85624995Y-92599898D02*
X85749898Y-92599898D01*
X85690001Y-94900000D02*
X85690001Y-95900000D01*
D47*
X103150001Y-91669998D02*
X103119999Y-91700000D01*
X108720184Y-87200000D02*
X108720184Y-88570184D01*
X105049999Y-89612321D02*
X105049999Y-90037500D01*
X103501002Y-89024000D02*
X104461678Y-89024000D01*
X103150001Y-90037500D02*
X103150001Y-91669998D01*
X104461678Y-89024000D02*
X105049999Y-89612321D01*
X103150001Y-90037500D02*
X103150001Y-89375001D01*
X106517315Y-88570184D02*
X108720184Y-88570184D01*
X110800000Y-86528143D02*
X109408306Y-86528143D01*
X109600000Y-89450000D02*
X110135000Y-88915000D01*
X108720184Y-87200000D02*
X108736449Y-87200000D01*
X108736449Y-87200000D02*
X109408306Y-86528143D01*
X108720184Y-88570184D02*
X109600000Y-89450000D01*
X105049999Y-90037500D02*
X106517315Y-88570184D01*
X109408306Y-86528143D02*
X108880163Y-86000000D01*
X110135000Y-88915000D02*
X111462500Y-88915000D01*
X103150001Y-89375001D02*
X103501002Y-89024000D01*
D48*
X81924994Y-86180000D02*
X83094879Y-86180000D01*
X83174994Y-86099963D02*
X83174955Y-86099924D01*
X83094879Y-86180000D02*
X83174955Y-86099924D01*
X83174994Y-87315000D02*
X83174994Y-86099963D01*
D47*
X101100000Y-95110000D02*
X101090000Y-95100000D01*
X101100000Y-96612499D02*
X101100000Y-95110000D01*
D48*
X84425096Y-89400000D02*
X84425096Y-88881962D01*
X88904961Y-88521000D02*
X90200000Y-87225961D01*
X84786058Y-88521000D02*
X88904961Y-88521000D01*
X84425096Y-88881962D02*
X84786058Y-88521000D01*
X90200000Y-87225961D02*
X90200000Y-87200000D01*
X79109999Y-94600000D02*
X80625000Y-94600000D01*
X81013993Y-92386007D02*
X81199898Y-92200102D01*
X79109999Y-95109999D02*
X79300000Y-95300000D01*
X79109999Y-94600000D02*
X79109999Y-95109999D01*
X81199898Y-92200102D02*
X81624994Y-92200102D01*
X81013993Y-94211007D02*
X81013993Y-92386007D01*
X80625000Y-94600000D02*
X81013993Y-94211007D01*
X86709999Y-94900000D02*
X86709999Y-94359999D01*
X80111517Y-93694213D02*
X80129213Y-93694213D01*
X84275033Y-86999967D02*
X84200000Y-87075000D01*
X80129213Y-93694213D02*
X80504730Y-94069730D01*
X85414818Y-86315910D02*
X85334741Y-86235837D01*
X84275033Y-86099924D02*
X84275033Y-86999967D01*
X86709999Y-94359999D02*
X86400000Y-94050000D01*
X83225197Y-88335203D02*
X83174994Y-88285000D01*
X83225197Y-89400000D02*
X83225197Y-88335203D01*
D46*
X88715001Y-89400000D02*
X88840001Y-89275000D01*
X88740001Y-89400000D02*
X88840001Y-89300000D01*
D47*
X85150000Y-89400000D02*
X85250000Y-89500000D01*
D48*
X84824892Y-89399999D02*
X85150000Y-89400000D01*
D47*
X85250000Y-89500000D02*
X88640001Y-89500000D01*
X88640001Y-89500000D02*
X88840001Y-89300000D01*
X80254994Y-90200000D02*
X80274994Y-90180000D01*
X81051826Y-90205000D02*
X81051871Y-90205045D01*
D49*
X80295096Y-90200102D02*
X80274994Y-90180000D01*
D47*
X80274994Y-90205000D02*
X81051826Y-90205000D01*
X79323724Y-90225000D02*
X80254994Y-90225000D01*
D46*
X81148898Y-90198898D02*
X81624993Y-90198898D01*
D49*
X79343724Y-90180000D02*
X79323724Y-90200000D01*
D46*
X80274994Y-90180000D02*
X80480000Y-90180000D01*
X106420000Y-85000000D02*
X106400000Y-85020000D01*
X76509999Y-94500000D02*
X74559999Y-92550000D01*
X107600000Y-85500127D02*
X107600000Y-85000000D01*
X107600000Y-85000000D02*
X106420000Y-85000000D01*
D47*
X106400000Y-85020000D02*
X105520000Y-85020000D01*
X105520000Y-85020000D02*
X104800000Y-84300000D01*
D46*
X74559999Y-92550000D02*
X74301000Y-92550000D01*
D47*
X105300000Y-82800000D02*
X104800000Y-83300000D01*
X104300000Y-82800000D02*
X104800000Y-83300000D01*
D46*
X106880127Y-85500127D02*
X106400000Y-85020000D01*
X107600000Y-85500127D02*
X106880127Y-85500127D01*
D47*
X104800000Y-83300000D02*
X104800000Y-84300000D01*
X106100000Y-94843131D02*
X106100000Y-93620000D01*
X107724999Y-90400000D02*
X107724999Y-93224999D01*
X105894006Y-95049125D02*
X106100000Y-94843131D01*
X106100000Y-93620000D02*
X106080000Y-93600000D01*
X107134125Y-95049125D02*
X105894006Y-95049125D01*
X107600000Y-93650000D02*
X107750000Y-93500000D01*
X107600000Y-95515000D02*
X107600000Y-93650000D01*
X107600000Y-95515000D02*
X107134125Y-95049125D01*
X107724999Y-93224999D02*
X108000000Y-93500000D01*
D46*
X108880163Y-85500127D02*
X109771628Y-85500127D01*
X109771628Y-85500127D02*
X110800000Y-84471755D01*
D47*
X88550003Y-90010000D02*
X88840001Y-90299998D01*
D48*
X86199898Y-90200102D02*
X86200000Y-90200000D01*
D46*
X88740003Y-90200000D02*
X88840001Y-90299998D01*
D47*
X86200000Y-90200000D02*
X86390000Y-90010000D01*
D46*
X88765003Y-90200000D02*
X88840001Y-90274998D01*
D47*
X86390000Y-90010000D02*
X88550003Y-90010000D01*
D48*
X85624995Y-90200102D02*
X86199898Y-90200102D01*
D47*
X105450049Y-99071000D02*
X101983499Y-99071000D01*
X105894006Y-96951081D02*
X105894006Y-98627043D01*
X105894006Y-98627043D02*
X105450049Y-99071000D01*
X101983499Y-99071000D02*
X101100000Y-98187501D01*
X108883129Y-98192558D02*
X110199873Y-98192558D01*
X107600000Y-96909429D02*
X108883129Y-98192558D01*
X107600000Y-96485000D02*
X107600000Y-96909429D01*
D46*
X97109872Y-88090128D02*
X97000000Y-88090128D01*
X98174981Y-87300000D02*
X97900000Y-87300000D01*
D48*
X96964858Y-88125270D02*
X97000000Y-88090128D01*
D46*
X97900000Y-87300000D02*
X97109872Y-88090128D01*
D48*
X95925270Y-88125270D02*
X96964858Y-88125270D01*
X80899949Y-91800051D02*
X80700000Y-92000000D01*
X81624994Y-91800051D02*
X80899949Y-91800051D01*
D47*
X103305994Y-97615993D02*
X104090001Y-98400000D01*
X103305994Y-96949047D02*
X103305994Y-97615993D01*
X110917501Y-91350000D02*
X111462501Y-90805000D01*
D46*
X103220000Y-93600001D02*
X103220000Y-93525531D01*
D47*
X102110000Y-94510000D02*
X102110000Y-95100000D01*
X103255119Y-95100000D02*
X103305994Y-95049125D01*
X103305994Y-95049125D02*
X103250000Y-94993131D01*
D46*
X108503467Y-89799000D02*
X109600000Y-90895533D01*
D47*
X103250000Y-94993131D02*
X103250000Y-93630001D01*
X111462501Y-90805000D02*
X111462500Y-89885000D01*
X99800000Y-93600000D02*
X101200000Y-93600000D01*
D46*
X109600000Y-90895533D02*
X109600000Y-91350000D01*
D47*
X101200000Y-93600000D02*
X102110000Y-94510000D01*
D46*
X106946531Y-89799000D02*
X108503467Y-89799000D01*
D47*
X102110000Y-95100000D02*
X103255119Y-95100000D01*
D46*
X103220000Y-93525531D02*
X106946531Y-89799000D01*
D47*
X109600000Y-91350000D02*
X110917501Y-91350000D01*
X103250000Y-93630001D02*
X103220000Y-93600001D01*
D48*
X85100000Y-96309997D02*
X85100000Y-93675109D01*
X85690001Y-96899998D02*
X85727678Y-96899998D01*
X85100000Y-93675109D02*
X84824892Y-93400001D01*
X85727678Y-96899998D02*
X86058934Y-96568742D01*
X85690001Y-96899998D02*
X85100000Y-96309997D01*
X89500000Y-87471999D02*
X89500000Y-87200000D01*
X84653096Y-88200000D02*
X88771999Y-88200000D01*
X84024791Y-88828305D02*
X84653096Y-88200000D01*
X88771999Y-88200000D02*
X89500000Y-87471999D01*
X84024791Y-89400000D02*
X84024791Y-88828305D01*
X106900000Y-84400000D02*
X106919000Y-84381000D01*
D46*
X108880163Y-85000000D02*
X108880163Y-83870163D01*
X108880163Y-83870163D02*
X108810000Y-83800000D01*
D48*
X86143484Y-92200102D02*
X86425156Y-92481774D01*
X108229000Y-84381000D02*
X108810000Y-83800000D01*
X106919000Y-84381000D02*
X108229000Y-84381000D01*
X85624994Y-92200102D02*
X86143484Y-92200102D01*
X84084994Y-94390892D02*
X84024791Y-94330689D01*
X84024791Y-94330689D02*
X84024791Y-93400000D01*
X84425096Y-93933221D02*
X84630606Y-94138731D01*
X84425096Y-93400000D02*
X84425096Y-93933221D01*
X96989874Y-87200000D02*
X97000000Y-87210126D01*
D46*
X98174981Y-86800127D02*
X97409999Y-86800127D01*
D48*
X96202885Y-87199217D02*
X96203668Y-87200000D01*
X81624994Y-91398984D02*
X80462182Y-91398984D01*
D46*
X97409999Y-86800127D02*
X97000000Y-87210126D01*
D48*
X80462182Y-91398984D02*
X80363182Y-91497984D01*
X96203668Y-87200000D02*
X96989874Y-87200000D01*
X82824892Y-93906686D02*
X82337753Y-94393825D01*
X100374981Y-88500000D02*
X99850064Y-87975083D01*
X82824892Y-93400000D02*
X82824892Y-93906686D01*
X83224943Y-94064075D02*
X82934824Y-94354194D01*
X83224943Y-93400000D02*
X83224943Y-94064075D01*
X82934824Y-94354194D02*
X82934824Y-94453063D01*
X99000000Y-86400000D02*
X99349936Y-86050064D01*
X99349936Y-86050064D02*
X99349936Y-85625171D01*
D46*
X98174981Y-86300000D02*
X97175108Y-85300127D01*
X97175108Y-85300127D02*
X97009999Y-85300127D01*
D47*
X91250089Y-93255016D02*
X91548936Y-93255016D01*
D46*
X94800000Y-95700000D02*
X92400000Y-95700000D01*
X92400000Y-95700000D02*
X91550064Y-94850064D01*
X93751000Y-89475000D02*
X93751000Y-89500000D01*
X91550064Y-94850064D02*
X91550064Y-93255016D01*
X96049936Y-93255016D02*
X96049936Y-94450064D01*
X93800000Y-89475000D02*
X93751000Y-89475000D01*
X96049936Y-94450064D02*
X94800000Y-95700000D01*
D47*
X77424509Y-90195000D02*
X78323724Y-90195000D01*
X78323724Y-90195000D02*
X78353724Y-90225000D01*
X76020000Y-90195000D02*
X77424509Y-90195000D01*
D49*
X77454509Y-90225000D02*
X77424509Y-90195000D01*
D47*
X75100000Y-89275000D02*
X76020000Y-90195000D01*
X75100000Y-87860000D02*
X75100000Y-89275000D01*
D48*
X77352096Y-98400000D02*
X79800000Y-98400000D01*
X77352096Y-98400000D02*
X76149993Y-97197897D01*
D46*
X75490001Y-94500000D02*
X75490001Y-96140008D01*
X75490001Y-96140008D02*
X76149993Y-96800000D01*
D48*
X76149993Y-97197897D02*
X76149993Y-96800000D01*
G04 #@! TA.AperFunction,Conductor*
G36*
X85831835Y-82222174D02*
G01*
X85847876Y-82246181D01*
X85873534Y-82308126D01*
X85873535Y-82308127D01*
X85944724Y-82414669D01*
X86035331Y-82505276D01*
X86141873Y-82576465D01*
X86260256Y-82625501D01*
X86260258Y-82625501D01*
X86260260Y-82625502D01*
X86302903Y-82633984D01*
X86385931Y-82650500D01*
X86385933Y-82650500D01*
X86514067Y-82650500D01*
X86514069Y-82650500D01*
X86639744Y-82625501D01*
X86758127Y-82576465D01*
X86864669Y-82505276D01*
X86955276Y-82414669D01*
X87026465Y-82308127D01*
X87052124Y-82246180D01*
X87092173Y-82206133D01*
X87120491Y-82200500D01*
X100479509Y-82200500D01*
X100531835Y-82222174D01*
X100547876Y-82246181D01*
X100573534Y-82308126D01*
X100573535Y-82308127D01*
X100644724Y-82414669D01*
X100735331Y-82505276D01*
X100841873Y-82576465D01*
X100960256Y-82625501D01*
X100960258Y-82625501D01*
X100960260Y-82625502D01*
X101002903Y-82633984D01*
X101085931Y-82650500D01*
X101085933Y-82650500D01*
X101214067Y-82650500D01*
X101214069Y-82650500D01*
X101339744Y-82625501D01*
X101458127Y-82576465D01*
X101564669Y-82505276D01*
X101655276Y-82414669D01*
X101726465Y-82308127D01*
X101752124Y-82246180D01*
X101792173Y-82206133D01*
X101820491Y-82200500D01*
X113425500Y-82200500D01*
X113477826Y-82222174D01*
X113499500Y-82274500D01*
X113499500Y-91750994D01*
X113477826Y-91803320D01*
X113439941Y-91823571D01*
X113435289Y-91824496D01*
X113435282Y-91824498D01*
X113316901Y-91873533D01*
X113210356Y-91944723D01*
X113210355Y-91944725D01*
X113119750Y-92035330D01*
X113119748Y-92035331D01*
X113048558Y-92141876D01*
X112999523Y-92260257D01*
X112999522Y-92260260D01*
X112987540Y-92320500D01*
X112977596Y-92370495D01*
X112974525Y-92385932D01*
X112974525Y-92514067D01*
X112999522Y-92639739D01*
X112999523Y-92639742D01*
X113043293Y-92745413D01*
X113048560Y-92758127D01*
X113089729Y-92819741D01*
X113116249Y-92859432D01*
X113119749Y-92864669D01*
X113210356Y-92955276D01*
X113316898Y-93026465D01*
X113435281Y-93075501D01*
X113439935Y-93076426D01*
X113487028Y-93107891D01*
X113499500Y-93149005D01*
X113499500Y-99725500D01*
X113477826Y-99777826D01*
X113425500Y-99799500D01*
X101920491Y-99799500D01*
X101868165Y-99777826D01*
X101852124Y-99753819D01*
X101826465Y-99691873D01*
X101755276Y-99585331D01*
X101664668Y-99494723D01*
X101629473Y-99471207D01*
X101558127Y-99423535D01*
X101558124Y-99423533D01*
X101558123Y-99423533D01*
X101439742Y-99374498D01*
X101439739Y-99374497D01*
X101349696Y-99356586D01*
X101314069Y-99349500D01*
X101185931Y-99349500D01*
X101154726Y-99355707D01*
X101060260Y-99374497D01*
X101060257Y-99374498D01*
X100941876Y-99423533D01*
X100835331Y-99494723D01*
X100835330Y-99494725D01*
X100744725Y-99585330D01*
X100744723Y-99585331D01*
X100673534Y-99691873D01*
X100647876Y-99753819D01*
X100607827Y-99793867D01*
X100579509Y-99799500D01*
X87020491Y-99799500D01*
X86968165Y-99777826D01*
X86952124Y-99753819D01*
X86926465Y-99691873D01*
X86855276Y-99585331D01*
X86764668Y-99494723D01*
X86729473Y-99471207D01*
X86658127Y-99423535D01*
X86658124Y-99423533D01*
X86658123Y-99423533D01*
X86539742Y-99374498D01*
X86539739Y-99374497D01*
X86449696Y-99356586D01*
X86414069Y-99349500D01*
X86285931Y-99349500D01*
X86254726Y-99355707D01*
X86160260Y-99374497D01*
X86160257Y-99374498D01*
X86041876Y-99423533D01*
X85935331Y-99494723D01*
X85935330Y-99494725D01*
X85844725Y-99585330D01*
X85844723Y-99585331D01*
X85773534Y-99691873D01*
X85747876Y-99753819D01*
X85707827Y-99793867D01*
X85679509Y-99799500D01*
X84520491Y-99799500D01*
X84468165Y-99777826D01*
X84452124Y-99753819D01*
X84426465Y-99691873D01*
X84355276Y-99585331D01*
X84264668Y-99494723D01*
X84229473Y-99471207D01*
X84158127Y-99423535D01*
X84158124Y-99423533D01*
X84158123Y-99423533D01*
X84039742Y-99374498D01*
X84039739Y-99374497D01*
X83949696Y-99356586D01*
X83914069Y-99349500D01*
X83785931Y-99349500D01*
X83754726Y-99355707D01*
X83660260Y-99374497D01*
X83660257Y-99374498D01*
X83541876Y-99423533D01*
X83435331Y-99494723D01*
X83435330Y-99494725D01*
X83344725Y-99585330D01*
X83344723Y-99585331D01*
X83273534Y-99691873D01*
X83247876Y-99753819D01*
X83207827Y-99793867D01*
X83179509Y-99799500D01*
X74374500Y-99799500D01*
X74322174Y-99777826D01*
X74300500Y-99725500D01*
X74300500Y-93187802D01*
X74322174Y-93135476D01*
X74333382Y-93126277D01*
X74439644Y-93055276D01*
X74487648Y-93007272D01*
X74539974Y-92985598D01*
X74592300Y-93007272D01*
X75438202Y-93853174D01*
X75459876Y-93905500D01*
X75438202Y-93957826D01*
X75385876Y-93979500D01*
X75315685Y-93979500D01*
X75304319Y-93980996D01*
X75266829Y-93985931D01*
X75159596Y-94035935D01*
X75075936Y-94119595D01*
X75025932Y-94226828D01*
X75019501Y-94275685D01*
X75019501Y-94724314D01*
X75025932Y-94773171D01*
X75075936Y-94880404D01*
X75164175Y-94968643D01*
X75162600Y-94970217D01*
X75188376Y-95010674D01*
X75189501Y-95023526D01*
X75189501Y-96179572D01*
X75209978Y-96255993D01*
X75209980Y-96255998D01*
X75213780Y-96262579D01*
X75237967Y-96304472D01*
X75249541Y-96324519D01*
X75271885Y-96346863D01*
X75274702Y-96350479D01*
X75281106Y-96373698D01*
X75290326Y-96395956D01*
X75288671Y-96401122D01*
X75289762Y-96405077D01*
X75284351Y-96414608D01*
X75276554Y-96438952D01*
X75273294Y-96443518D01*
X75221920Y-96548605D01*
X75221920Y-96548606D01*
X75211993Y-96616735D01*
X75211993Y-96983264D01*
X75221920Y-97051393D01*
X75221920Y-97051394D01*
X75273294Y-97156482D01*
X75273295Y-97156483D01*
X75356010Y-97239198D01*
X75461100Y-97290573D01*
X75529233Y-97300500D01*
X75861085Y-97300500D01*
X75913411Y-97322174D01*
X75924976Y-97339484D01*
X75925104Y-97339399D01*
X75929151Y-97345456D01*
X75929152Y-97345458D01*
X77131255Y-98547561D01*
X77204535Y-98620841D01*
X77300279Y-98660500D01*
X79463455Y-98660500D01*
X79515781Y-98682174D01*
X79554087Y-98720480D01*
X79645413Y-98773207D01*
X79747270Y-98800499D01*
X79747271Y-98800500D01*
X79747273Y-98800500D01*
X79852729Y-98800500D01*
X79852729Y-98800499D01*
X79954587Y-98773207D01*
X80045913Y-98720480D01*
X80120480Y-98645913D01*
X80173207Y-98554587D01*
X80200499Y-98452729D01*
X80200500Y-98452729D01*
X80200500Y-98347271D01*
X80200499Y-98347270D01*
X80173208Y-98245417D01*
X80173207Y-98245413D01*
X80120480Y-98154087D01*
X80045913Y-98079520D01*
X79995649Y-98050500D01*
X79954591Y-98026795D01*
X79954582Y-98026791D01*
X79870740Y-98004326D01*
X79852729Y-97999500D01*
X79852727Y-97999500D01*
X79747273Y-97999500D01*
X79747271Y-97999500D01*
X79645417Y-98026791D01*
X79645408Y-98026795D01*
X79554086Y-98079520D01*
X79515781Y-98117826D01*
X79463455Y-98139500D01*
X79337531Y-98139500D01*
X79285205Y-98117826D01*
X79263531Y-98065500D01*
X79285205Y-98013174D01*
X79300531Y-98001414D01*
X79303846Y-97999500D01*
X79319504Y-97990460D01*
X79374210Y-97935754D01*
X100424500Y-97935754D01*
X100424500Y-98439247D01*
X100440049Y-98537421D01*
X100500340Y-98655750D01*
X100594250Y-98749660D01*
X100619109Y-98762326D01*
X100712579Y-98809951D01*
X100712579Y-98809952D01*
X100810753Y-98825501D01*
X100810754Y-98825501D01*
X101211666Y-98825501D01*
X101263992Y-98847175D01*
X101703030Y-99286212D01*
X101768287Y-99351469D01*
X101768289Y-99351470D01*
X101768290Y-99351471D01*
X101808175Y-99374499D01*
X101848211Y-99397614D01*
X101848212Y-99397614D01*
X101848214Y-99397615D01*
X101892783Y-99409557D01*
X101937352Y-99421499D01*
X101937353Y-99421500D01*
X101937355Y-99421500D01*
X105496195Y-99421500D01*
X105496195Y-99421499D01*
X105585337Y-99397614D01*
X105625373Y-99374499D01*
X105665261Y-99351470D01*
X106174476Y-98842255D01*
X106220620Y-98762331D01*
X106230190Y-98726614D01*
X106244506Y-98673187D01*
X106244506Y-97575581D01*
X106266180Y-97523255D01*
X106318506Y-97501581D01*
X106463752Y-97501581D01*
X106463754Y-97501581D01*
X106522237Y-97489948D01*
X106588558Y-97445633D01*
X106632873Y-97379312D01*
X106644506Y-97320829D01*
X106644506Y-96581333D01*
X106632873Y-96522850D01*
X106588558Y-96456529D01*
X106547353Y-96428996D01*
X106522238Y-96412214D01*
X106522239Y-96412214D01*
X106492995Y-96406397D01*
X106463754Y-96400581D01*
X105324258Y-96400581D01*
X105295016Y-96406397D01*
X105265773Y-96412214D01*
X105199455Y-96456528D01*
X105199453Y-96456530D01*
X105155139Y-96522848D01*
X105149639Y-96550499D01*
X105143911Y-96579300D01*
X105143506Y-96581334D01*
X105143506Y-97320827D01*
X105155139Y-97379313D01*
X105182659Y-97420498D01*
X105199454Y-97445633D01*
X105238633Y-97471812D01*
X105265773Y-97489947D01*
X105265774Y-97489947D01*
X105265775Y-97489948D01*
X105324258Y-97501581D01*
X105469506Y-97501581D01*
X105521832Y-97523255D01*
X105543506Y-97575581D01*
X105543506Y-98451209D01*
X105521832Y-98503535D01*
X105326541Y-98698826D01*
X105274215Y-98720500D01*
X104632219Y-98720500D01*
X104579893Y-98698826D01*
X104558219Y-98646500D01*
X104558852Y-98636842D01*
X104560501Y-98624315D01*
X104560501Y-98175685D01*
X104554069Y-98126828D01*
X104554069Y-98126827D01*
X104504066Y-98019596D01*
X104420405Y-97935935D01*
X104313174Y-97885932D01*
X104313172Y-97885931D01*
X104277179Y-97881193D01*
X104264317Y-97879500D01*
X104264315Y-97879500D01*
X104095834Y-97879500D01*
X104043508Y-97857826D01*
X103811556Y-97625873D01*
X103789882Y-97573547D01*
X103811556Y-97521221D01*
X103863882Y-97499547D01*
X103875740Y-97499547D01*
X103875742Y-97499547D01*
X103934225Y-97487914D01*
X104000546Y-97443599D01*
X104044861Y-97377278D01*
X104056494Y-97318795D01*
X104056494Y-96579299D01*
X104044861Y-96520816D01*
X104000546Y-96454495D01*
X103962385Y-96428996D01*
X103934226Y-96410180D01*
X103934227Y-96410180D01*
X103904983Y-96404363D01*
X103875742Y-96398547D01*
X102736246Y-96398547D01*
X102707004Y-96404363D01*
X102677761Y-96410180D01*
X102611443Y-96454494D01*
X102611441Y-96454496D01*
X102567127Y-96520814D01*
X102564336Y-96534848D01*
X102555494Y-96579299D01*
X102555494Y-97318795D01*
X102559609Y-97339484D01*
X102567127Y-97377279D01*
X102587654Y-97407999D01*
X102611442Y-97443599D01*
X102653665Y-97471812D01*
X102677761Y-97487913D01*
X102677762Y-97487913D01*
X102677763Y-97487914D01*
X102736246Y-97499547D01*
X102881494Y-97499547D01*
X102933820Y-97521221D01*
X102955494Y-97573547D01*
X102955494Y-97662139D01*
X102979378Y-97751277D01*
X102979380Y-97751282D01*
X103019919Y-97821497D01*
X103025524Y-97831205D01*
X103321147Y-98126828D01*
X103597827Y-98403507D01*
X103619501Y-98455833D01*
X103619501Y-98624315D01*
X103621150Y-98636842D01*
X103606491Y-98691549D01*
X103557441Y-98719867D01*
X103547783Y-98720500D01*
X102159332Y-98720500D01*
X102107006Y-98698826D01*
X101797174Y-98388993D01*
X101775500Y-98336667D01*
X101775500Y-97935754D01*
X101767609Y-97885932D01*
X101759951Y-97837581D01*
X101724527Y-97768058D01*
X101699659Y-97719251D01*
X101605749Y-97625341D01*
X101487420Y-97565050D01*
X101487420Y-97565049D01*
X101389247Y-97549501D01*
X101389246Y-97549501D01*
X100810754Y-97549501D01*
X100810753Y-97549501D01*
X100712579Y-97565049D01*
X100712579Y-97565050D01*
X100594250Y-97625341D01*
X100500340Y-97719251D01*
X100440049Y-97837580D01*
X100440048Y-97837580D01*
X100424500Y-97935754D01*
X79374210Y-97935754D01*
X79375453Y-97934511D01*
X79520292Y-97789672D01*
X79572618Y-97767998D01*
X79811809Y-97767998D01*
X79811811Y-97767998D01*
X79860668Y-97761566D01*
X79967899Y-97711563D01*
X80051560Y-97627902D01*
X80101563Y-97520671D01*
X80107995Y-97471814D01*
X80107995Y-97162628D01*
X80129669Y-97110302D01*
X81607797Y-95632174D01*
X81660123Y-95610500D01*
X81905522Y-95610500D01*
X81905528Y-95610500D01*
X81973170Y-95600645D01*
X82077511Y-95549636D01*
X82159636Y-95467511D01*
X82159636Y-95467510D01*
X82159637Y-95467510D01*
X82159637Y-95467509D01*
X82164775Y-95457000D01*
X82207228Y-95419510D01*
X82231256Y-95415500D01*
X83173308Y-95415500D01*
X83225634Y-95437174D01*
X83231684Y-95443224D01*
X83340513Y-95493972D01*
X83390099Y-95500500D01*
X83624876Y-95500499D01*
X83677202Y-95522173D01*
X83888826Y-95733797D01*
X83910500Y-95786123D01*
X83910500Y-96227194D01*
X83907978Y-96246347D01*
X83899500Y-96277985D01*
X83899500Y-96389901D01*
X83919977Y-96466322D01*
X83919979Y-96466327D01*
X83951439Y-96520816D01*
X83952613Y-96522850D01*
X83959540Y-96534848D01*
X85186150Y-97761458D01*
X85186152Y-97761459D01*
X85186153Y-97761460D01*
X85197581Y-97768058D01*
X85254673Y-97801020D01*
X85331099Y-97821498D01*
X85331101Y-97821498D01*
X86128563Y-97821498D01*
X86128563Y-97821497D01*
X86204988Y-97801019D01*
X86273510Y-97761458D01*
X86329459Y-97705509D01*
X86592796Y-97442172D01*
X86645122Y-97420498D01*
X86884313Y-97420498D01*
X86884315Y-97420498D01*
X86933172Y-97414066D01*
X87040403Y-97364063D01*
X87124064Y-97280402D01*
X87174067Y-97173171D01*
X87180499Y-97124314D01*
X87180499Y-96955832D01*
X87202173Y-96903506D01*
X87533505Y-96572174D01*
X87585831Y-96550500D01*
X98346146Y-96550500D01*
X98346146Y-96550499D01*
X98435288Y-96526614D01*
X98453646Y-96516015D01*
X98515212Y-96480470D01*
X99396701Y-95598979D01*
X99429876Y-95579828D01*
X99454580Y-95573209D01*
X99454584Y-95573208D01*
X99454584Y-95573207D01*
X99454587Y-95573207D01*
X99545913Y-95520480D01*
X99620480Y-95445913D01*
X99673207Y-95354587D01*
X99700499Y-95252729D01*
X99700500Y-95252729D01*
X99700500Y-95147271D01*
X99700499Y-95147270D01*
X99700002Y-95145417D01*
X99673207Y-95045413D01*
X99620480Y-94954087D01*
X99545913Y-94879520D01*
X99520696Y-94864961D01*
X99454591Y-94826795D01*
X99454582Y-94826791D01*
X99352729Y-94799500D01*
X99352727Y-94799500D01*
X99247273Y-94799500D01*
X99247271Y-94799500D01*
X99145417Y-94826791D01*
X99145408Y-94826795D01*
X99054086Y-94879520D01*
X98979520Y-94954086D01*
X98926793Y-95045411D01*
X98926791Y-95045416D01*
X98920171Y-95070124D01*
X98901019Y-95103297D01*
X98176492Y-95827826D01*
X98124166Y-95849500D01*
X95254123Y-95849500D01*
X95201797Y-95827826D01*
X95180123Y-95775500D01*
X95201797Y-95723174D01*
X95472645Y-95452326D01*
X96290396Y-94634575D01*
X96298295Y-94620894D01*
X96302747Y-94613181D01*
X96347677Y-94578701D01*
X96403830Y-94586089D01*
X96403835Y-94586092D01*
X96464114Y-94620894D01*
X96487185Y-94634214D01*
X96487186Y-94634214D01*
X96487188Y-94634215D01*
X96554010Y-94652120D01*
X96620832Y-94670025D01*
X96620833Y-94670026D01*
X96620835Y-94670026D01*
X96759203Y-94670026D01*
X96759203Y-94670025D01*
X96892851Y-94634214D01*
X97012679Y-94565031D01*
X97110517Y-94467193D01*
X97179700Y-94347365D01*
X97215511Y-94213717D01*
X97215512Y-94213717D01*
X97215512Y-94075347D01*
X97215511Y-94075346D01*
X97209583Y-94053224D01*
X97186876Y-93968481D01*
X97179701Y-93941702D01*
X97179699Y-93941697D01*
X97151308Y-93892523D01*
X97110517Y-93821871D01*
X97012679Y-93724033D01*
X96978539Y-93704322D01*
X96892852Y-93654850D01*
X96892847Y-93654848D01*
X96755258Y-93617980D01*
X96710325Y-93583501D01*
X96700411Y-93546502D01*
X96700411Y-91124745D01*
X96722085Y-91072419D01*
X96774411Y-91050745D01*
X96826737Y-91072419D01*
X99102361Y-93348043D01*
X99124035Y-93400369D01*
X99122613Y-93414805D01*
X99105568Y-93500499D01*
X99099500Y-93531007D01*
X99099500Y-93668993D01*
X99106529Y-93704328D01*
X99126418Y-93804322D01*
X99126421Y-93804332D01*
X99179223Y-93931808D01*
X99254263Y-94044114D01*
X99255886Y-94046542D01*
X99353458Y-94144114D01*
X99468189Y-94220775D01*
X99468190Y-94220775D01*
X99468191Y-94220776D01*
X99595667Y-94273578D01*
X99595672Y-94273580D01*
X99731007Y-94300500D01*
X99731009Y-94300500D01*
X99868991Y-94300500D01*
X99868993Y-94300500D01*
X100004328Y-94273580D01*
X100131811Y-94220775D01*
X100246542Y-94144114D01*
X100344114Y-94046542D01*
X100386312Y-93983387D01*
X100433404Y-93951922D01*
X100447841Y-93950500D01*
X101024166Y-93950500D01*
X101076492Y-93972174D01*
X101707598Y-94603280D01*
X101729272Y-94655606D01*
X101719170Y-94692930D01*
X101714350Y-94701180D01*
X101695935Y-94719596D01*
X101665620Y-94784604D01*
X101663898Y-94787554D01*
X101643857Y-94802771D01*
X101625309Y-94819767D01*
X101621682Y-94819608D01*
X101618790Y-94821805D01*
X101593858Y-94818394D01*
X101568726Y-94817297D01*
X101566013Y-94814584D01*
X101562676Y-94814128D01*
X101553587Y-94802158D01*
X101532933Y-94781504D01*
X101504065Y-94719596D01*
X101420404Y-94635935D01*
X101313173Y-94585932D01*
X101313171Y-94585931D01*
X101277178Y-94581193D01*
X101264316Y-94579500D01*
X100915684Y-94579500D01*
X100904318Y-94580996D01*
X100866828Y-94585931D01*
X100759595Y-94635935D01*
X100675935Y-94719595D01*
X100625931Y-94826828D01*
X100619500Y-94875685D01*
X100619500Y-95324314D01*
X100625931Y-95373171D01*
X100675935Y-95480404D01*
X100727826Y-95532295D01*
X100749500Y-95584621D01*
X100749500Y-95925889D01*
X100727826Y-95978215D01*
X100709096Y-95991823D01*
X100594248Y-96050341D01*
X100500340Y-96144249D01*
X100440049Y-96262578D01*
X100440048Y-96262578D01*
X100424500Y-96360752D01*
X100424500Y-96864245D01*
X100440049Y-96962419D01*
X100500340Y-97080748D01*
X100594250Y-97174658D01*
X100633491Y-97194652D01*
X100712579Y-97234949D01*
X100712579Y-97234950D01*
X100810753Y-97250499D01*
X100810754Y-97250499D01*
X101389247Y-97250499D01*
X101487420Y-97234950D01*
X101605751Y-97174657D01*
X101699658Y-97080750D01*
X101759951Y-96962419D01*
X101775500Y-96864245D01*
X101775500Y-96360753D01*
X101759951Y-96262579D01*
X101709814Y-96164180D01*
X101699659Y-96144249D01*
X101605751Y-96050341D01*
X101490904Y-95991823D01*
X101454122Y-95948756D01*
X101450500Y-95925889D01*
X101450500Y-95564621D01*
X101462664Y-95523972D01*
X101466821Y-95517647D01*
X101504065Y-95480404D01*
X101535210Y-95413613D01*
X101538164Y-95409120D01*
X101557479Y-95396003D01*
X101574690Y-95380232D01*
X101580339Y-95380478D01*
X101585019Y-95377301D01*
X101607952Y-95381683D01*
X101631273Y-95382702D01*
X101635524Y-95386953D01*
X101640649Y-95387933D01*
X101649420Y-95400849D01*
X101667066Y-95418495D01*
X101668374Y-95421299D01*
X101695933Y-95480402D01*
X101695935Y-95480404D01*
X101779596Y-95564065D01*
X101886827Y-95614068D01*
X101935684Y-95620500D01*
X101935686Y-95620500D01*
X102284314Y-95620500D01*
X102284316Y-95620500D01*
X102333173Y-95614068D01*
X102440404Y-95564065D01*
X102487340Y-95517129D01*
X102539665Y-95495454D01*
X102591991Y-95517128D01*
X102601193Y-95528339D01*
X102604294Y-95532979D01*
X102611442Y-95543677D01*
X102655554Y-95573152D01*
X102677761Y-95587991D01*
X102677762Y-95587991D01*
X102677763Y-95587992D01*
X102736246Y-95599625D01*
X102736248Y-95599625D01*
X103875740Y-95599625D01*
X103875742Y-95599625D01*
X103934225Y-95587992D01*
X104000546Y-95543677D01*
X104044861Y-95477356D01*
X104056494Y-95418873D01*
X104056494Y-94679377D01*
X104044861Y-94620894D01*
X104038887Y-94611954D01*
X104026774Y-94593825D01*
X104000546Y-94554573D01*
X103963380Y-94529739D01*
X103934226Y-94510258D01*
X103934227Y-94510258D01*
X103904983Y-94504441D01*
X103875742Y-94498625D01*
X103875740Y-94498625D01*
X103674500Y-94498625D01*
X103622174Y-94476951D01*
X103600500Y-94424625D01*
X103600500Y-94041693D01*
X103622174Y-93989367D01*
X103632041Y-93979500D01*
X103643224Y-93968317D01*
X103693972Y-93859488D01*
X103700500Y-93809902D01*
X103700499Y-93500652D01*
X103722172Y-93448328D01*
X106660674Y-90509827D01*
X106712999Y-90488154D01*
X106765325Y-90509828D01*
X106786999Y-90562154D01*
X106786999Y-90583264D01*
X106796926Y-90651393D01*
X106796926Y-90651394D01*
X106848300Y-90756482D01*
X106848301Y-90756483D01*
X106931016Y-90839198D01*
X107036106Y-90890573D01*
X107104239Y-90900500D01*
X107300499Y-90900500D01*
X107352825Y-90922174D01*
X107374499Y-90974500D01*
X107374499Y-92868863D01*
X107352825Y-92921189D01*
X107341612Y-92930391D01*
X107303464Y-92955881D01*
X107303460Y-92955884D01*
X107205883Y-93053461D01*
X107129223Y-93168191D01*
X107076421Y-93295667D01*
X107076418Y-93295677D01*
X107056529Y-93395672D01*
X107049500Y-93431007D01*
X107049500Y-93568993D01*
X107055311Y-93598207D01*
X107076418Y-93704322D01*
X107076421Y-93704332D01*
X107129223Y-93831808D01*
X107203143Y-93942438D01*
X107205886Y-93946542D01*
X107227826Y-93968482D01*
X107249500Y-94020807D01*
X107249500Y-94624625D01*
X107227826Y-94676951D01*
X107175500Y-94698625D01*
X106709065Y-94698625D01*
X106656739Y-94676951D01*
X106636487Y-94639063D01*
X106635523Y-94634215D01*
X106632873Y-94620894D01*
X106632872Y-94620892D01*
X106632872Y-94620891D01*
X106601988Y-94574672D01*
X106588558Y-94554573D01*
X106551392Y-94529739D01*
X106522238Y-94510258D01*
X106522239Y-94510258D01*
X106510061Y-94507836D01*
X106462970Y-94476368D01*
X106450500Y-94435258D01*
X106450500Y-94051692D01*
X106472174Y-93999366D01*
X106485609Y-93985931D01*
X106503224Y-93968316D01*
X106553972Y-93859487D01*
X106560500Y-93809901D01*
X106560499Y-93390100D01*
X106553972Y-93340513D01*
X106503224Y-93231684D01*
X106418316Y-93146776D01*
X106309487Y-93096028D01*
X106309485Y-93096027D01*
X106272955Y-93091218D01*
X106259901Y-93089500D01*
X106259899Y-93089500D01*
X105900100Y-93089500D01*
X105850514Y-93096027D01*
X105850512Y-93096028D01*
X105741683Y-93146776D01*
X105656776Y-93231683D01*
X105606027Y-93340514D01*
X105599500Y-93390100D01*
X105599500Y-93809899D01*
X105606027Y-93859485D01*
X105606028Y-93859487D01*
X105656776Y-93968316D01*
X105727826Y-94039366D01*
X105749500Y-94091692D01*
X105749500Y-94424625D01*
X105727826Y-94476951D01*
X105675500Y-94498625D01*
X105324258Y-94498625D01*
X105295016Y-94504441D01*
X105265773Y-94510258D01*
X105199455Y-94554572D01*
X105199453Y-94554574D01*
X105155139Y-94620892D01*
X105150059Y-94646431D01*
X105143506Y-94679377D01*
X105143506Y-95418873D01*
X105148350Y-95443223D01*
X105155139Y-95477357D01*
X105181714Y-95517128D01*
X105199454Y-95543677D01*
X105243566Y-95573152D01*
X105265773Y-95587991D01*
X105265774Y-95587991D01*
X105265775Y-95587992D01*
X105324258Y-95599625D01*
X105324260Y-95599625D01*
X106463752Y-95599625D01*
X106463754Y-95599625D01*
X106522237Y-95587992D01*
X106588558Y-95543677D01*
X106624303Y-95490182D01*
X106632872Y-95477358D01*
X106632872Y-95477357D01*
X106632873Y-95477356D01*
X106636487Y-95459186D01*
X106667954Y-95412096D01*
X106709065Y-95399625D01*
X106958291Y-95399625D01*
X107010617Y-95421299D01*
X107057826Y-95468508D01*
X107079500Y-95520834D01*
X107079500Y-95695532D01*
X107089355Y-95763170D01*
X107089355Y-95763171D01*
X107140363Y-95867510D01*
X107220527Y-95947674D01*
X107242201Y-96000000D01*
X107220527Y-96052326D01*
X107140363Y-96132489D01*
X107089355Y-96236828D01*
X107089355Y-96236829D01*
X107079500Y-96304467D01*
X107079500Y-96665532D01*
X107089355Y-96733170D01*
X107089355Y-96733171D01*
X107140363Y-96837510D01*
X107226825Y-96923972D01*
X107226004Y-96924792D01*
X107250853Y-96960625D01*
X107260599Y-96996995D01*
X107260599Y-96996997D01*
X107273384Y-97044712D01*
X107273386Y-97044717D01*
X107319530Y-97124641D01*
X108602660Y-98407770D01*
X108667917Y-98473027D01*
X108667919Y-98473028D01*
X108667920Y-98473029D01*
X108720757Y-98503535D01*
X108747841Y-98519172D01*
X108747842Y-98519172D01*
X108747844Y-98519173D01*
X108792413Y-98531115D01*
X108836982Y-98543057D01*
X108836983Y-98543058D01*
X108836985Y-98543058D01*
X109650366Y-98543058D01*
X109702692Y-98564732D01*
X109724366Y-98617058D01*
X109724366Y-98827305D01*
X109732121Y-98866293D01*
X109735999Y-98885789D01*
X109765474Y-98929900D01*
X109780314Y-98952109D01*
X109824426Y-98981584D01*
X109846633Y-98996423D01*
X109846634Y-98996423D01*
X109846635Y-98996424D01*
X109905118Y-99008057D01*
X109905120Y-99008057D01*
X110494626Y-99008057D01*
X110494628Y-99008057D01*
X110553111Y-98996424D01*
X110619432Y-98952109D01*
X110663747Y-98885788D01*
X110675380Y-98827305D01*
X110675380Y-97557811D01*
X110663747Y-97499328D01*
X110663265Y-97498607D01*
X110630452Y-97449500D01*
X110619432Y-97433007D01*
X110591085Y-97414066D01*
X110553112Y-97388692D01*
X110553113Y-97388692D01*
X110523869Y-97382875D01*
X110494628Y-97377059D01*
X109905118Y-97377059D01*
X109875876Y-97382875D01*
X109846633Y-97388692D01*
X109780315Y-97433006D01*
X109780313Y-97433008D01*
X109735999Y-97499326D01*
X109724366Y-97557812D01*
X109724366Y-97768058D01*
X109702692Y-97820384D01*
X109650366Y-97842058D01*
X109058962Y-97842058D01*
X109006636Y-97820384D01*
X108085217Y-96898965D01*
X108063543Y-96846639D01*
X108071062Y-96814139D01*
X108106539Y-96741568D01*
X108110645Y-96733170D01*
X108120500Y-96665528D01*
X108120500Y-96304472D01*
X108110645Y-96236830D01*
X108059636Y-96132489D01*
X107979473Y-96052326D01*
X107957799Y-96000000D01*
X107979473Y-95947674D01*
X108007617Y-95919530D01*
X108059636Y-95867511D01*
X108110645Y-95763170D01*
X108120500Y-95695528D01*
X108120500Y-95334472D01*
X108110645Y-95266830D01*
X108059636Y-95162489D01*
X107977511Y-95080364D01*
X107973175Y-95076028D01*
X107975537Y-95073665D01*
X107951507Y-95035153D01*
X107950500Y-95022987D01*
X107950500Y-94224610D01*
X107972174Y-94172284D01*
X107996179Y-94156244D01*
X108081811Y-94120775D01*
X108196542Y-94044114D01*
X108294114Y-93946542D01*
X108370775Y-93831811D01*
X108423580Y-93704328D01*
X108450500Y-93568993D01*
X108450500Y-93431007D01*
X108423580Y-93295672D01*
X108414275Y-93273207D01*
X108370776Y-93168191D01*
X108363590Y-93157437D01*
X108294114Y-93053458D01*
X108196542Y-92955886D01*
X108196538Y-92955883D01*
X108196536Y-92955881D01*
X108108386Y-92896981D01*
X108076921Y-92849889D01*
X108075499Y-92835453D01*
X108075499Y-90974500D01*
X108097173Y-90922174D01*
X108149499Y-90900500D01*
X108345753Y-90900500D01*
X108345759Y-90900500D01*
X108413892Y-90890573D01*
X108518982Y-90839198D01*
X108601697Y-90756483D01*
X108653072Y-90651393D01*
X108662999Y-90583260D01*
X108662999Y-90562154D01*
X108684673Y-90509829D01*
X108736999Y-90488155D01*
X108789325Y-90509829D01*
X109005662Y-90726166D01*
X109027336Y-90778492D01*
X109005662Y-90830818D01*
X108964007Y-90851719D01*
X108911105Y-90859427D01*
X108806017Y-90910801D01*
X108723301Y-90993517D01*
X108671927Y-91098605D01*
X108671927Y-91098606D01*
X108662000Y-91166735D01*
X108662000Y-91533264D01*
X108671927Y-91601393D01*
X108671927Y-91601394D01*
X108723301Y-91706482D01*
X108723302Y-91706483D01*
X108806017Y-91789198D01*
X108911107Y-91840573D01*
X108979240Y-91850500D01*
X108979246Y-91850500D01*
X110220754Y-91850500D01*
X110220760Y-91850500D01*
X110288893Y-91840573D01*
X110393983Y-91789198D01*
X110461007Y-91722174D01*
X110513333Y-91700500D01*
X110963647Y-91700500D01*
X110963647Y-91700499D01*
X111052789Y-91676614D01*
X111063488Y-91670437D01*
X111132713Y-91630470D01*
X111466008Y-91297173D01*
X111518334Y-91275500D01*
X111686815Y-91275500D01*
X111686817Y-91275500D01*
X111735674Y-91269068D01*
X111842905Y-91219065D01*
X111926566Y-91135404D01*
X111976569Y-91028173D01*
X111983001Y-90979316D01*
X111983001Y-90630684D01*
X111976569Y-90581827D01*
X111926566Y-90474596D01*
X111858134Y-90406164D01*
X111836460Y-90353838D01*
X111858133Y-90301513D01*
X111922136Y-90237511D01*
X111973145Y-90133170D01*
X111983000Y-90065528D01*
X111983000Y-89704472D01*
X111973145Y-89636830D01*
X111922136Y-89532489D01*
X111841973Y-89452326D01*
X111820299Y-89400000D01*
X111841973Y-89347674D01*
X111880108Y-89309539D01*
X111922136Y-89267511D01*
X111973145Y-89163170D01*
X111983000Y-89095528D01*
X111983000Y-88734472D01*
X111973145Y-88666830D01*
X111922136Y-88562489D01*
X111840011Y-88480364D01*
X111840010Y-88480363D01*
X111735671Y-88429355D01*
X111668032Y-88419500D01*
X111668028Y-88419500D01*
X111256972Y-88419500D01*
X111256967Y-88419500D01*
X111189329Y-88429355D01*
X111189328Y-88429355D01*
X111084989Y-88480363D01*
X111066879Y-88498474D01*
X111022526Y-88542826D01*
X110970203Y-88564500D01*
X110088854Y-88564500D01*
X109999715Y-88588384D01*
X109999710Y-88588386D01*
X109919791Y-88634528D01*
X109652326Y-88901992D01*
X109600000Y-88923666D01*
X109547674Y-88901992D01*
X109092358Y-88446676D01*
X109070684Y-88394350D01*
X109070684Y-87671692D01*
X109092358Y-87619366D01*
X109114369Y-87597355D01*
X109143408Y-87568316D01*
X109194156Y-87459487D01*
X109200684Y-87409901D01*
X109200683Y-87262097D01*
X109222356Y-87209773D01*
X109373174Y-87058956D01*
X109425500Y-87037282D01*
X109477826Y-87058956D01*
X109499500Y-87111282D01*
X109499500Y-87147891D01*
X109504003Y-87170527D01*
X109511133Y-87206375D01*
X109531788Y-87237286D01*
X109555448Y-87272695D01*
X109595767Y-87299636D01*
X109621767Y-87317009D01*
X109621768Y-87317009D01*
X109621769Y-87317010D01*
X109680252Y-87328643D01*
X109680254Y-87328643D01*
X111919746Y-87328643D01*
X111919748Y-87328643D01*
X111978231Y-87317010D01*
X112044552Y-87272695D01*
X112088867Y-87206374D01*
X112100500Y-87147891D01*
X112100500Y-85908395D01*
X112088867Y-85849912D01*
X112083781Y-85842301D01*
X112074027Y-85827703D01*
X112044552Y-85783591D01*
X112015518Y-85764191D01*
X111978232Y-85739276D01*
X111978233Y-85739276D01*
X111940058Y-85731683D01*
X111919748Y-85727643D01*
X111919746Y-85727643D01*
X110147735Y-85727643D01*
X110095409Y-85705969D01*
X110073735Y-85653643D01*
X110095409Y-85601317D01*
X110402797Y-85293929D01*
X110455123Y-85272255D01*
X111919746Y-85272255D01*
X111919748Y-85272255D01*
X111978231Y-85260622D01*
X112044552Y-85216307D01*
X112088867Y-85149986D01*
X112100500Y-85091503D01*
X112100500Y-83852007D01*
X112088867Y-83793524D01*
X112044552Y-83727203D01*
X112010550Y-83704483D01*
X111978232Y-83682888D01*
X111978233Y-83682888D01*
X111948989Y-83677071D01*
X111919748Y-83671255D01*
X109680252Y-83671255D01*
X109651010Y-83677071D01*
X109621767Y-83682888D01*
X109555449Y-83727202D01*
X109555447Y-83727204D01*
X109511133Y-83793522D01*
X109499500Y-83852008D01*
X109499500Y-84673211D01*
X109477826Y-84725537D01*
X109425500Y-84747211D01*
X109373174Y-84725537D01*
X109365670Y-84716394D01*
X109364722Y-84715446D01*
X109364720Y-84715443D01*
X109332532Y-84693935D01*
X109298400Y-84671128D01*
X109298401Y-84671128D01*
X109240225Y-84659556D01*
X109193134Y-84628089D01*
X109180663Y-84586978D01*
X109180663Y-84254458D01*
X109202337Y-84202132D01*
X109203969Y-84200500D01*
X109224065Y-84180404D01*
X109274068Y-84073173D01*
X109280500Y-84024316D01*
X109280500Y-83575684D01*
X109274068Y-83526827D01*
X109224065Y-83419596D01*
X109140404Y-83335935D01*
X109033173Y-83285932D01*
X109033171Y-83285931D01*
X108997178Y-83281193D01*
X108984316Y-83279500D01*
X108635684Y-83279500D01*
X108624318Y-83280996D01*
X108586828Y-83285931D01*
X108479595Y-83335935D01*
X108395935Y-83419595D01*
X108345931Y-83526828D01*
X108339500Y-83575685D01*
X108339500Y-83871446D01*
X108317826Y-83923772D01*
X108142772Y-84098826D01*
X108090446Y-84120500D01*
X107217545Y-84120500D01*
X107165219Y-84098826D01*
X107145913Y-84079520D01*
X107054591Y-84026795D01*
X107054582Y-84026791D01*
X106952729Y-83999500D01*
X106952727Y-83999500D01*
X106847273Y-83999500D01*
X106847271Y-83999500D01*
X106745417Y-84026791D01*
X106745408Y-84026795D01*
X106654086Y-84079520D01*
X106579520Y-84154086D01*
X106526795Y-84245408D01*
X106526791Y-84245417D01*
X106499500Y-84347270D01*
X106499500Y-84452727D01*
X106499910Y-84455842D01*
X106499500Y-84457372D01*
X106499500Y-84457577D01*
X106499445Y-84457577D01*
X106485251Y-84510549D01*
X106436201Y-84538867D01*
X106426543Y-84539500D01*
X106190100Y-84539500D01*
X106140514Y-84546027D01*
X106140512Y-84546028D01*
X106031683Y-84596776D01*
X105980634Y-84647826D01*
X105928308Y-84669500D01*
X105695834Y-84669500D01*
X105643508Y-84647826D01*
X105505933Y-84510251D01*
X105484259Y-84457925D01*
X105485680Y-84443496D01*
X105500500Y-84368993D01*
X105500500Y-84231007D01*
X105473580Y-84095672D01*
X105445050Y-84026795D01*
X105420776Y-83968191D01*
X105344116Y-83853461D01*
X105344114Y-83853458D01*
X105246542Y-83755886D01*
X105246535Y-83755881D01*
X105183387Y-83713685D01*
X105151922Y-83666592D01*
X105150500Y-83652157D01*
X105150500Y-83475833D01*
X105172173Y-83423508D01*
X105396701Y-83198979D01*
X105429876Y-83179828D01*
X105454580Y-83173209D01*
X105454584Y-83173208D01*
X105454584Y-83173207D01*
X105454587Y-83173207D01*
X105545913Y-83120480D01*
X105620480Y-83045913D01*
X105673207Y-82954587D01*
X105700499Y-82852729D01*
X105700500Y-82852729D01*
X105700500Y-82747271D01*
X105700499Y-82747270D01*
X105673208Y-82645417D01*
X105673208Y-82645416D01*
X105673207Y-82645413D01*
X105620480Y-82554087D01*
X105545913Y-82479520D01*
X105454591Y-82426795D01*
X105454582Y-82426791D01*
X105352729Y-82399500D01*
X105352727Y-82399500D01*
X105247273Y-82399500D01*
X105247271Y-82399500D01*
X105145417Y-82426791D01*
X105145408Y-82426795D01*
X105054086Y-82479520D01*
X104979520Y-82554086D01*
X104926793Y-82645411D01*
X104926791Y-82645416D01*
X104920171Y-82670125D01*
X104901018Y-82703298D01*
X104852324Y-82751991D01*
X104799998Y-82773665D01*
X104747673Y-82751991D01*
X104698980Y-82703298D01*
X104679828Y-82670125D01*
X104673207Y-82645413D01*
X104620480Y-82554087D01*
X104545913Y-82479520D01*
X104454591Y-82426795D01*
X104454582Y-82426791D01*
X104352729Y-82399500D01*
X104352727Y-82399500D01*
X104247273Y-82399500D01*
X104247271Y-82399500D01*
X104145417Y-82426791D01*
X104145408Y-82426795D01*
X104054086Y-82479520D01*
X103979520Y-82554086D01*
X103926795Y-82645408D01*
X103926791Y-82645417D01*
X103899500Y-82747270D01*
X103899500Y-82852729D01*
X103926791Y-82954582D01*
X103926792Y-82954585D01*
X103926793Y-82954587D01*
X103979520Y-83045913D01*
X104054087Y-83120480D01*
X104145413Y-83173207D01*
X104170125Y-83179828D01*
X104203298Y-83198980D01*
X104427826Y-83423508D01*
X104449500Y-83475834D01*
X104449500Y-83652157D01*
X104427826Y-83704483D01*
X104416613Y-83713685D01*
X104353464Y-83755881D01*
X104353460Y-83755884D01*
X104255883Y-83853461D01*
X104179223Y-83968191D01*
X104126421Y-84095667D01*
X104126418Y-84095677D01*
X104105568Y-84200500D01*
X104100933Y-84223806D01*
X104099500Y-84231008D01*
X104099500Y-84368991D01*
X104126418Y-84504322D01*
X104126421Y-84504332D01*
X104179223Y-84631808D01*
X104249841Y-84737496D01*
X104255886Y-84746542D01*
X104353458Y-84844114D01*
X104468189Y-84920775D01*
X104468190Y-84920775D01*
X104468191Y-84920776D01*
X104595667Y-84973578D01*
X104595672Y-84973580D01*
X104731007Y-85000500D01*
X104731009Y-85000500D01*
X104868991Y-85000500D01*
X104868993Y-85000500D01*
X104943490Y-84985681D01*
X104999037Y-84996730D01*
X105010251Y-85005933D01*
X105304788Y-85300470D01*
X105363295Y-85334249D01*
X105383052Y-85345656D01*
X105384712Y-85346614D01*
X105384713Y-85346614D01*
X105384715Y-85346615D01*
X105417588Y-85355423D01*
X105473853Y-85370499D01*
X105473854Y-85370500D01*
X105473856Y-85370500D01*
X105566144Y-85370500D01*
X105928308Y-85370500D01*
X105980634Y-85392174D01*
X106031684Y-85443224D01*
X106140513Y-85493972D01*
X106190099Y-85500500D01*
X106424876Y-85500499D01*
X106477202Y-85522173D01*
X106639667Y-85684638D01*
X106695616Y-85740587D01*
X106764138Y-85780148D01*
X106764139Y-85780148D01*
X106764141Y-85780149D01*
X106781066Y-85784684D01*
X106840562Y-85800626D01*
X106840563Y-85800627D01*
X106840565Y-85800627D01*
X107116855Y-85800627D01*
X107157968Y-85813099D01*
X107181762Y-85828998D01*
X107181763Y-85828998D01*
X107181764Y-85828999D01*
X107240247Y-85840632D01*
X107240249Y-85840632D01*
X107959751Y-85840632D01*
X107959753Y-85840632D01*
X108018236Y-85828999D01*
X108084557Y-85784684D01*
X108128872Y-85718363D01*
X108140505Y-85659880D01*
X108140505Y-85340374D01*
X108128872Y-85281891D01*
X108128869Y-85281887D01*
X108127417Y-85278379D01*
X108127417Y-85263658D01*
X108121785Y-85250061D01*
X108127418Y-85221747D01*
X108127418Y-85221742D01*
X108127420Y-85221738D01*
X108128866Y-85218244D01*
X108128872Y-85218236D01*
X108140505Y-85159753D01*
X108140505Y-84840247D01*
X108128872Y-84781764D01*
X108112962Y-84757953D01*
X108112067Y-84756613D01*
X108108166Y-84737006D01*
X108099673Y-84718905D01*
X108102828Y-84710170D01*
X108101017Y-84701064D01*
X108112123Y-84684441D01*
X108118917Y-84665637D01*
X108127102Y-84662023D01*
X108132482Y-84653972D01*
X108170190Y-84641578D01*
X108171883Y-84641500D01*
X108177183Y-84641500D01*
X108280817Y-84641500D01*
X108294445Y-84635854D01*
X108307385Y-84635259D01*
X108322759Y-84640813D01*
X108339105Y-84640812D01*
X108348353Y-84650059D01*
X108360653Y-84654503D01*
X108367596Y-84669300D01*
X108379155Y-84680858D01*
X108379155Y-84693935D01*
X108384712Y-84705776D01*
X108379157Y-84721150D01*
X108379159Y-84737496D01*
X108372319Y-84750293D01*
X108351291Y-84781762D01*
X108347748Y-84799576D01*
X108339658Y-84840247D01*
X108339658Y-85159753D01*
X108342810Y-85175600D01*
X108351291Y-85218237D01*
X108352745Y-85221747D01*
X108352745Y-85236467D01*
X108358377Y-85250064D01*
X108352745Y-85263658D01*
X108352746Y-85278377D01*
X108351291Y-85281888D01*
X108347595Y-85300470D01*
X108339658Y-85340374D01*
X108339658Y-85659880D01*
X108344059Y-85682004D01*
X108351291Y-85718365D01*
X108352693Y-85721749D01*
X108352693Y-85725410D01*
X108352713Y-85725511D01*
X108352693Y-85725514D01*
X108352693Y-85774612D01*
X108352713Y-85774616D01*
X108352693Y-85774711D01*
X108352694Y-85778375D01*
X108351291Y-85781761D01*
X108345950Y-85808615D01*
X108339658Y-85840247D01*
X108339658Y-86159753D01*
X108346256Y-86192923D01*
X108351291Y-86218237D01*
X108369092Y-86244877D01*
X108395606Y-86284557D01*
X108433534Y-86309900D01*
X108461925Y-86328871D01*
X108461926Y-86328871D01*
X108461927Y-86328872D01*
X108520410Y-86340505D01*
X108694334Y-86340505D01*
X108746660Y-86362179D01*
X108860297Y-86475816D01*
X108881971Y-86528142D01*
X108860297Y-86580468D01*
X108772939Y-86667826D01*
X108720613Y-86689500D01*
X108540284Y-86689500D01*
X108490698Y-86696027D01*
X108490696Y-86696028D01*
X108381867Y-86746776D01*
X108296960Y-86831683D01*
X108246211Y-86940514D01*
X108239684Y-86990100D01*
X108239684Y-87409899D01*
X108246211Y-87459485D01*
X108246212Y-87459487D01*
X108296960Y-87568316D01*
X108348010Y-87619366D01*
X108369684Y-87671692D01*
X108369684Y-88145684D01*
X108348010Y-88198010D01*
X108295684Y-88219684D01*
X106471171Y-88219684D01*
X106393718Y-88240436D01*
X106393719Y-88240437D01*
X106382027Y-88243570D01*
X106382026Y-88243570D01*
X106302102Y-88289714D01*
X105409944Y-89181871D01*
X105357618Y-89203545D01*
X105325119Y-89196026D01*
X105301392Y-89184427D01*
X105233263Y-89174500D01*
X105233259Y-89174500D01*
X105138512Y-89174500D01*
X105086186Y-89152826D01*
X104676890Y-88743530D01*
X104596966Y-88697386D01*
X104596959Y-88697384D01*
X104592022Y-88696060D01*
X104592022Y-88696061D01*
X104507822Y-88673500D01*
X103575834Y-88673500D01*
X103523508Y-88651826D01*
X103501834Y-88599500D01*
X103523508Y-88547174D01*
X103552790Y-88517892D01*
X103589199Y-88481483D01*
X103640574Y-88376393D01*
X103650501Y-88308260D01*
X103650501Y-87216740D01*
X103650500Y-87216735D01*
X104549499Y-87216735D01*
X104549499Y-88308264D01*
X104559426Y-88376393D01*
X104559426Y-88376394D01*
X104610800Y-88481482D01*
X104610801Y-88481483D01*
X104693516Y-88564198D01*
X104798606Y-88615573D01*
X104866739Y-88625500D01*
X104866745Y-88625500D01*
X105233253Y-88625500D01*
X105233259Y-88625500D01*
X105301392Y-88615573D01*
X105406482Y-88564198D01*
X105489197Y-88481483D01*
X105540572Y-88376393D01*
X105550499Y-88308260D01*
X105550499Y-87216740D01*
X105540572Y-87148607D01*
X105489197Y-87043517D01*
X105406482Y-86960802D01*
X105406481Y-86960801D01*
X105301393Y-86909427D01*
X105233263Y-86899500D01*
X105233259Y-86899500D01*
X104866739Y-86899500D01*
X104866734Y-86899500D01*
X104798605Y-86909427D01*
X104798604Y-86909427D01*
X104693516Y-86960801D01*
X104610800Y-87043517D01*
X104559426Y-87148605D01*
X104559426Y-87148606D01*
X104549499Y-87216735D01*
X103650500Y-87216735D01*
X103640574Y-87148607D01*
X103589199Y-87043517D01*
X103522175Y-86976493D01*
X103500501Y-86924167D01*
X103500501Y-86541690D01*
X103522175Y-86489364D01*
X103528313Y-86483226D01*
X103543223Y-86468316D01*
X103593971Y-86359487D01*
X103600499Y-86309901D01*
X103600498Y-85890100D01*
X103593971Y-85840513D01*
X103543223Y-85731684D01*
X103458315Y-85646776D01*
X103349486Y-85596028D01*
X103349484Y-85596027D01*
X103312954Y-85591218D01*
X103299900Y-85589500D01*
X103299898Y-85589500D01*
X103135833Y-85589500D01*
X103083507Y-85567826D01*
X103072174Y-85556493D01*
X103050500Y-85504167D01*
X103050500Y-84947840D01*
X103072174Y-84895514D01*
X103083381Y-84886316D01*
X103146542Y-84844114D01*
X103244114Y-84746542D01*
X103320775Y-84631811D01*
X103373580Y-84504328D01*
X103400500Y-84368993D01*
X103400500Y-84231007D01*
X103373580Y-84095672D01*
X103345050Y-84026795D01*
X103320776Y-83968191D01*
X103244116Y-83853461D01*
X103244114Y-83853458D01*
X103146542Y-83755886D01*
X103103616Y-83727204D01*
X103031808Y-83679223D01*
X102904332Y-83626421D01*
X102904322Y-83626418D01*
X102813694Y-83608391D01*
X102768993Y-83599500D01*
X102631007Y-83599500D01*
X102592642Y-83607131D01*
X102495677Y-83626418D01*
X102495671Y-83626420D01*
X102490696Y-83628480D01*
X102489492Y-83628980D01*
X102489482Y-83628984D01*
X102432845Y-83628980D01*
X102424168Y-83624701D01*
X102415990Y-83619979D01*
X102415985Y-83619977D01*
X102339564Y-83599500D01*
X102339562Y-83599500D01*
X100784709Y-83599500D01*
X100705585Y-83599500D01*
X100629159Y-83619978D01*
X100629158Y-83619978D01*
X100629156Y-83619979D01*
X100629154Y-83619980D01*
X100560637Y-83659538D01*
X100152220Y-84067954D01*
X100099894Y-84089628D01*
X99865119Y-84089628D01*
X99815533Y-84096155D01*
X99815531Y-84096156D01*
X99706702Y-84146904D01*
X99621795Y-84231811D01*
X99621793Y-84231814D01*
X99610094Y-84256903D01*
X99568337Y-84295166D01*
X99543028Y-84299628D01*
X96650436Y-84299628D01*
X96574014Y-84320105D01*
X96574009Y-84320107D01*
X96526958Y-84347273D01*
X96505488Y-84359668D01*
X96107204Y-84757953D01*
X96054878Y-84779627D01*
X95925124Y-84779627D01*
X95872798Y-84757953D01*
X95653712Y-84538867D01*
X95424385Y-84309540D01*
X95424382Y-84309538D01*
X95424380Y-84309536D01*
X95407218Y-84299628D01*
X95355861Y-84269978D01*
X95355862Y-84269978D01*
X95279438Y-84249500D01*
X95279436Y-84249500D01*
X86655123Y-84249500D01*
X86602797Y-84227826D01*
X86034511Y-83659540D01*
X85965990Y-83619979D01*
X85965985Y-83619977D01*
X85889564Y-83599500D01*
X85889562Y-83599500D01*
X81060438Y-83599500D01*
X81060436Y-83599500D01*
X80984014Y-83619977D01*
X80984009Y-83619979D01*
X80915488Y-83659540D01*
X80076326Y-84498703D01*
X80024000Y-84520377D01*
X79971674Y-84498703D01*
X79950000Y-84446377D01*
X79950000Y-82274500D01*
X79971674Y-82222174D01*
X80024000Y-82200500D01*
X85779509Y-82200500D01*
X85831835Y-82222174D01*
G37*
G04 #@! TD.AperFunction*
G04 #@! TA.AperFunction,Conductor*
G36*
X74557826Y-87871674D02*
G01*
X74579500Y-87924000D01*
X74579500Y-88015532D01*
X74589355Y-88083170D01*
X74589355Y-88083171D01*
X74640363Y-88187510D01*
X74726825Y-88273972D01*
X74724455Y-88276341D01*
X74748485Y-88314798D01*
X74749500Y-88327012D01*
X74749500Y-89321146D01*
X74766478Y-89384509D01*
X74770004Y-89397667D01*
X74771842Y-89404526D01*
X74773386Y-89410289D01*
X74800049Y-89456470D01*
X74819530Y-89490212D01*
X75804787Y-90475469D01*
X75804789Y-90475470D01*
X75804790Y-90475471D01*
X75863439Y-90509332D01*
X75884712Y-90521614D01*
X75884713Y-90521614D01*
X75884715Y-90521615D01*
X75903372Y-90526614D01*
X75973853Y-90545499D01*
X75973854Y-90545500D01*
X75973856Y-90545500D01*
X76952817Y-90545500D01*
X77005143Y-90567174D01*
X77056193Y-90618224D01*
X77165022Y-90668972D01*
X77214608Y-90675500D01*
X77634409Y-90675499D01*
X77683996Y-90668972D01*
X77792825Y-90618224D01*
X77811487Y-90599562D01*
X77863813Y-90577888D01*
X77916139Y-90599562D01*
X77919088Y-90602511D01*
X78001213Y-90684636D01*
X78105554Y-90735645D01*
X78173196Y-90745500D01*
X78173202Y-90745500D01*
X78534246Y-90745500D01*
X78534252Y-90745500D01*
X78601894Y-90735645D01*
X78706235Y-90684636D01*
X78786398Y-90604473D01*
X78838724Y-90582799D01*
X78891050Y-90604473D01*
X78971213Y-90684636D01*
X79075554Y-90735645D01*
X79143196Y-90745500D01*
X79143202Y-90745500D01*
X79504246Y-90745500D01*
X79504252Y-90745500D01*
X79571894Y-90735645D01*
X79676235Y-90684636D01*
X79758360Y-90602511D01*
X79758360Y-90602510D01*
X79762696Y-90598175D01*
X79762908Y-90598387D01*
X79763411Y-90597174D01*
X79784346Y-90588502D01*
X79803571Y-90576507D01*
X79815737Y-90575500D01*
X79823302Y-90575500D01*
X79875628Y-90597174D01*
X79887818Y-90609364D01*
X79909492Y-90661690D01*
X79887818Y-90714016D01*
X79872493Y-90725775D01*
X79820752Y-90755648D01*
X79820749Y-90755651D01*
X79819310Y-90756482D01*
X79817503Y-90757525D01*
X79366107Y-91208921D01*
X79326546Y-91277442D01*
X79324691Y-91281923D01*
X79323149Y-91281284D01*
X79292295Y-91321474D01*
X79287814Y-91323859D01*
X79254056Y-91340363D01*
X79173893Y-91420527D01*
X79121567Y-91442201D01*
X79069241Y-91420527D01*
X78989077Y-91340363D01*
X78884738Y-91289355D01*
X78817099Y-91279500D01*
X78817095Y-91279500D01*
X78456039Y-91279500D01*
X78456034Y-91279500D01*
X78388396Y-91289355D01*
X78388395Y-91289355D01*
X78284056Y-91340363D01*
X78201930Y-91422489D01*
X78150922Y-91526828D01*
X78150922Y-91526829D01*
X78141067Y-91594467D01*
X78141067Y-92005532D01*
X78150922Y-92073170D01*
X78150922Y-92073171D01*
X78175674Y-92123802D01*
X78176721Y-92140678D01*
X78183193Y-92156302D01*
X78178408Y-92167852D01*
X78179183Y-92180330D01*
X78161519Y-92208628D01*
X78138108Y-92232039D01*
X78085782Y-92253713D01*
X77921718Y-92253713D01*
X77872132Y-92260240D01*
X77872130Y-92260241D01*
X77763301Y-92310989D01*
X77678394Y-92395896D01*
X77627645Y-92504727D01*
X77621118Y-92554313D01*
X77621118Y-92789089D01*
X77599444Y-92841415D01*
X77315489Y-93125371D01*
X77259540Y-93181319D01*
X77219979Y-93249840D01*
X77219977Y-93249845D01*
X77199500Y-93326266D01*
X77199500Y-94840403D01*
X77177826Y-94892729D01*
X76746034Y-95324520D01*
X76706473Y-95393041D01*
X76706471Y-95393046D01*
X76685994Y-95469467D01*
X76685994Y-96225500D01*
X76664320Y-96277826D01*
X76611994Y-96299500D01*
X76105116Y-96299500D01*
X76052790Y-96277826D01*
X75812175Y-96037211D01*
X75790501Y-95984885D01*
X75790501Y-95023526D01*
X75812175Y-94971200D01*
X75818976Y-94965493D01*
X75820403Y-94964065D01*
X75820405Y-94964065D01*
X75904066Y-94880404D01*
X75932933Y-94818497D01*
X75974690Y-94780235D01*
X76031274Y-94782705D01*
X76067066Y-94818497D01*
X76095934Y-94880404D01*
X76179595Y-94964065D01*
X76286826Y-95014068D01*
X76335683Y-95020500D01*
X76335685Y-95020500D01*
X76684313Y-95020500D01*
X76684315Y-95020500D01*
X76733172Y-95014068D01*
X76840403Y-94964065D01*
X76924064Y-94880404D01*
X76974067Y-94773173D01*
X76980499Y-94724316D01*
X76980499Y-94275684D01*
X76974067Y-94226827D01*
X76924064Y-94119596D01*
X76840403Y-94035935D01*
X76733172Y-93985932D01*
X76733170Y-93985931D01*
X76697177Y-93981193D01*
X76684315Y-93979500D01*
X76684313Y-93979500D01*
X76445122Y-93979500D01*
X76392796Y-93957826D01*
X74744511Y-92309541D01*
X74744510Y-92309540D01*
X74721307Y-92296144D01*
X74675988Y-92269979D01*
X74629866Y-92257620D01*
X74625018Y-92255547D01*
X74612989Y-92243242D01*
X74592584Y-92228619D01*
X74530251Y-92135331D01*
X74439644Y-92044724D01*
X74433177Y-92040403D01*
X74333388Y-91973726D01*
X74301922Y-91926634D01*
X74300500Y-91912197D01*
X74300500Y-87924000D01*
X74322174Y-87871674D01*
X74374500Y-87850000D01*
X74505500Y-87850000D01*
X74557826Y-87871674D01*
G37*
G04 #@! TD.AperFunction*
G04 #@! TA.AperFunction,Conductor*
G36*
X92918541Y-89872174D02*
G01*
X92921789Y-89875422D01*
X92999578Y-89953211D01*
X93100214Y-89997646D01*
X93124815Y-90000500D01*
X93400184Y-90000499D01*
X93424786Y-89997646D01*
X93466698Y-89979139D01*
X93523319Y-89977831D01*
X93555167Y-90005111D01*
X93556588Y-90004022D01*
X93559538Y-90007867D01*
X93559540Y-90007869D01*
X93837182Y-90285511D01*
X93893131Y-90341460D01*
X93961653Y-90381021D01*
X93961654Y-90381021D01*
X93961656Y-90381022D01*
X93981339Y-90386296D01*
X94038077Y-90401499D01*
X94038078Y-90401500D01*
X94038080Y-90401500D01*
X94838564Y-90401500D01*
X94838564Y-90401499D01*
X94914989Y-90381021D01*
X94983511Y-90341460D01*
X95039460Y-90285511D01*
X95422843Y-89902126D01*
X95475169Y-89880453D01*
X95527495Y-89902127D01*
X95977737Y-90352369D01*
X95999411Y-90404695D01*
X95999411Y-91188640D01*
X95977737Y-91240966D01*
X95925411Y-91262640D01*
X95894138Y-91255707D01*
X95873173Y-91245931D01*
X95873171Y-91245930D01*
X95835459Y-91240966D01*
X95824316Y-91239499D01*
X95375684Y-91239499D01*
X95364541Y-91240966D01*
X95326828Y-91245930D01*
X95219595Y-91295934D01*
X95135935Y-91379594D01*
X95085931Y-91486827D01*
X95081598Y-91519746D01*
X95079819Y-91533264D01*
X95079500Y-91535684D01*
X95079500Y-91884313D01*
X95085931Y-91933170D01*
X95135935Y-92040403D01*
X95224174Y-92128642D01*
X95223423Y-92129392D01*
X95227890Y-92131243D01*
X95236435Y-92151872D01*
X95248438Y-92170706D01*
X95249564Y-92183569D01*
X95249564Y-92230509D01*
X95227890Y-92282835D01*
X95175564Y-92304509D01*
X94973436Y-92304509D01*
X94921110Y-92282835D01*
X94899436Y-92230509D01*
X94899436Y-91415290D01*
X94899435Y-91415289D01*
X94875551Y-91326151D01*
X94875550Y-91326150D01*
X94875550Y-91326148D01*
X94871711Y-91319499D01*
X94829406Y-91246224D01*
X94747173Y-91163991D01*
X94725499Y-91111665D01*
X94725499Y-91049816D01*
X94722989Y-91028171D01*
X94722646Y-91025214D01*
X94678211Y-90924578D01*
X94600422Y-90846789D01*
X94499786Y-90802354D01*
X94499785Y-90802353D01*
X94499783Y-90802353D01*
X94478899Y-90799930D01*
X94475185Y-90799500D01*
X94475184Y-90799500D01*
X94199816Y-90799500D01*
X94175218Y-90802353D01*
X94175212Y-90802354D01*
X94074577Y-90846789D01*
X93996789Y-90924577D01*
X93952353Y-91025216D01*
X93949500Y-91049815D01*
X93949500Y-91450183D01*
X93952353Y-91474781D01*
X93952354Y-91474787D01*
X93979243Y-91535684D01*
X93996789Y-91575422D01*
X94074578Y-91653211D01*
X94154327Y-91688423D01*
X94163923Y-91698473D01*
X94176762Y-91703791D01*
X94182707Y-91718145D01*
X94193439Y-91729384D01*
X94198436Y-91756117D01*
X94198436Y-91825500D01*
X94176762Y-91877826D01*
X94124436Y-91899500D01*
X93606802Y-91899500D01*
X93531995Y-91919543D01*
X93531996Y-91919544D01*
X93517658Y-91923386D01*
X93517654Y-91923387D01*
X93512562Y-91926328D01*
X93493410Y-91928848D01*
X93475564Y-91936241D01*
X93466324Y-91932413D01*
X93456409Y-91933719D01*
X93441084Y-91921959D01*
X93423238Y-91914567D01*
X93419410Y-91905327D01*
X93411477Y-91899239D01*
X93401564Y-91862241D01*
X93401564Y-91756118D01*
X93423238Y-91703792D01*
X93445674Y-91688423D01*
X93445676Y-91688422D01*
X93525422Y-91653211D01*
X93603211Y-91575422D01*
X93647646Y-91474786D01*
X93650500Y-91450185D01*
X93650499Y-91049816D01*
X93647646Y-91025214D01*
X93603211Y-90924578D01*
X93525422Y-90846789D01*
X93424786Y-90802354D01*
X93424785Y-90802353D01*
X93424783Y-90802353D01*
X93403899Y-90799930D01*
X93400185Y-90799500D01*
X93400184Y-90799500D01*
X93124816Y-90799500D01*
X93100218Y-90802353D01*
X93100212Y-90802354D01*
X92999577Y-90846789D01*
X92921789Y-90924577D01*
X92877353Y-91025216D01*
X92874500Y-91049815D01*
X92874500Y-91111665D01*
X92852826Y-91163991D01*
X92770594Y-91246223D01*
X92750352Y-91281284D01*
X92734312Y-91309068D01*
X92728290Y-91319498D01*
X92728289Y-91319499D01*
X92724450Y-91326147D01*
X92724448Y-91326151D01*
X92700564Y-91415289D01*
X92700564Y-91856940D01*
X92678890Y-91909266D01*
X92626564Y-91930940D01*
X92574238Y-91909266D01*
X92542174Y-91877202D01*
X92520500Y-91824876D01*
X92520500Y-91585684D01*
X92514554Y-91540514D01*
X92514068Y-91536826D01*
X92464065Y-91429595D01*
X92380404Y-91345934D01*
X92273173Y-91295931D01*
X92273171Y-91295930D01*
X92237178Y-91291192D01*
X92224316Y-91289499D01*
X91775684Y-91289499D01*
X91764318Y-91290995D01*
X91726828Y-91295930D01*
X91619595Y-91345934D01*
X91535935Y-91429594D01*
X91485931Y-91536827D01*
X91485446Y-91540514D01*
X91479500Y-91585683D01*
X91479500Y-91934315D01*
X91481193Y-91947177D01*
X91485931Y-91983170D01*
X91535935Y-92090403D01*
X91623715Y-92178183D01*
X91645389Y-92230509D01*
X91623715Y-92282835D01*
X91571389Y-92304509D01*
X91419837Y-92304509D01*
X91080341Y-92304509D01*
X91051099Y-92310325D01*
X91021856Y-92316142D01*
X90955538Y-92360456D01*
X90955536Y-92360458D01*
X90911222Y-92426776D01*
X90907370Y-92446144D01*
X90900606Y-92480151D01*
X90899589Y-92485262D01*
X90899589Y-93546502D01*
X90877915Y-93598828D01*
X90844742Y-93617980D01*
X90707152Y-93654848D01*
X90707147Y-93654850D01*
X90587320Y-93724033D01*
X90489483Y-93821870D01*
X90420300Y-93941697D01*
X90420298Y-93941702D01*
X90384488Y-94075346D01*
X90384488Y-94213717D01*
X90420298Y-94347361D01*
X90420300Y-94347366D01*
X90446618Y-94392949D01*
X90489483Y-94467193D01*
X90587321Y-94565031D01*
X90707149Y-94634214D01*
X90707150Y-94634214D01*
X90707152Y-94634215D01*
X90773974Y-94652120D01*
X90840796Y-94670025D01*
X90840797Y-94670026D01*
X90840799Y-94670026D01*
X90979167Y-94670026D01*
X90979167Y-94670025D01*
X91112815Y-94634214D01*
X91138564Y-94619347D01*
X91194715Y-94611954D01*
X91239649Y-94646431D01*
X91249564Y-94683433D01*
X91249564Y-94889628D01*
X91270041Y-94966049D01*
X91270043Y-94966054D01*
X91281287Y-94985528D01*
X91297764Y-95014068D01*
X91301477Y-95020498D01*
X91301479Y-95020501D01*
X91309604Y-95034575D01*
X91998203Y-95723174D01*
X92019877Y-95775500D01*
X91998203Y-95827826D01*
X91945877Y-95849500D01*
X87364122Y-95849500D01*
X87311796Y-95827826D01*
X87290122Y-95775500D01*
X87311796Y-95723174D01*
X87517842Y-95517128D01*
X87740460Y-95294510D01*
X87757880Y-95264337D01*
X87780021Y-95225988D01*
X87800499Y-95149563D01*
X87800500Y-95149563D01*
X87800500Y-92515444D01*
X87792592Y-92485930D01*
X87792592Y-92485929D01*
X87780023Y-92439022D01*
X87780022Y-92439018D01*
X87763433Y-92410285D01*
X87740462Y-92370498D01*
X87740461Y-92370497D01*
X87740460Y-92370495D01*
X87247167Y-91877202D01*
X87225493Y-91824876D01*
X87225493Y-91590100D01*
X87218966Y-91540514D01*
X87218966Y-91540513D01*
X87168218Y-91431684D01*
X87083310Y-91346776D01*
X86974481Y-91296028D01*
X86974479Y-91296027D01*
X86937949Y-91291218D01*
X86924895Y-91289500D01*
X86924893Y-91289500D01*
X86565094Y-91289500D01*
X86515508Y-91296027D01*
X86515506Y-91296028D01*
X86406677Y-91346776D01*
X86321770Y-91431683D01*
X86321768Y-91431686D01*
X86316561Y-91442853D01*
X86274803Y-91481116D01*
X86218220Y-91478644D01*
X86179957Y-91436886D01*
X86175495Y-91411578D01*
X86175495Y-91280253D01*
X86167680Y-91240966D01*
X86163862Y-91221769D01*
X86163861Y-91221768D01*
X86162440Y-91214621D01*
X86166644Y-91213784D01*
X86166587Y-91186409D01*
X86162439Y-91185584D01*
X86175494Y-91119950D01*
X86175494Y-90880456D01*
X86169336Y-90849500D01*
X86163861Y-90821972D01*
X86163860Y-90821971D01*
X86162439Y-90814824D01*
X86166524Y-90814011D01*
X86166495Y-90786085D01*
X86162439Y-90785279D01*
X86170351Y-90745500D01*
X86175494Y-90719646D01*
X86175494Y-90624499D01*
X86197168Y-90572173D01*
X86241678Y-90553736D01*
X86241336Y-90551132D01*
X86246141Y-90550499D01*
X86246144Y-90550499D01*
X86335288Y-90526614D01*
X86415212Y-90480470D01*
X86513508Y-90382174D01*
X86565834Y-90360500D01*
X88295501Y-90360500D01*
X88347827Y-90382174D01*
X88369501Y-90434500D01*
X88369501Y-90524314D01*
X88369804Y-90526613D01*
X88375932Y-90573169D01*
X88375933Y-90573171D01*
X88425936Y-90680402D01*
X88509597Y-90764063D01*
X88616828Y-90814066D01*
X88665685Y-90820498D01*
X88665687Y-90820498D01*
X89014315Y-90820498D01*
X89014317Y-90820498D01*
X89063174Y-90814066D01*
X89170405Y-90764063D01*
X89254066Y-90680402D01*
X89282933Y-90618495D01*
X89324690Y-90580233D01*
X89381274Y-90582703D01*
X89417066Y-90618495D01*
X89445934Y-90680402D01*
X89529595Y-90764063D01*
X89636826Y-90814066D01*
X89685683Y-90820498D01*
X89685685Y-90820498D01*
X90034313Y-90820498D01*
X90034315Y-90820498D01*
X90083172Y-90814066D01*
X90190403Y-90764063D01*
X90274064Y-90680402D01*
X90324067Y-90573171D01*
X90330499Y-90524314D01*
X90330499Y-90285120D01*
X90352172Y-90232795D01*
X90532258Y-90052709D01*
X90532257Y-90052709D01*
X90588745Y-89996221D01*
X90641069Y-89974548D01*
X90693395Y-89996222D01*
X90715069Y-90048537D01*
X90715076Y-90095358D01*
X90715076Y-90139175D01*
X90715082Y-90139288D01*
X90715085Y-90155974D01*
X90715085Y-90155978D01*
X90746473Y-90273081D01*
X90804768Y-90374043D01*
X90807095Y-90378072D01*
X90892821Y-90463799D01*
X90997811Y-90524423D01*
X91114913Y-90555814D01*
X91135996Y-90555816D01*
X91136014Y-90555821D01*
X91175530Y-90555821D01*
X91175531Y-90555821D01*
X91223125Y-90555828D01*
X91223127Y-90555827D01*
X91228774Y-90555828D01*
X91228879Y-90555821D01*
X91299852Y-90555821D01*
X91300416Y-90555781D01*
X91316154Y-90555785D01*
X91433268Y-90524423D01*
X91433272Y-90524422D01*
X91433272Y-90524421D01*
X91433275Y-90524421D01*
X91538286Y-90463812D01*
X91624033Y-90378090D01*
X91684671Y-90273095D01*
X91695475Y-90232794D01*
X91729959Y-90187866D01*
X91786113Y-90180481D01*
X91795269Y-90183590D01*
X91797810Y-90184642D01*
X91797811Y-90184642D01*
X91797816Y-90184645D01*
X91914915Y-90216032D01*
X91914918Y-90216032D01*
X91935996Y-90216034D01*
X91936014Y-90216039D01*
X91975530Y-90216039D01*
X91975531Y-90216039D01*
X92023125Y-90216046D01*
X92023127Y-90216045D01*
X92028774Y-90216046D01*
X92028879Y-90216039D01*
X92099647Y-90216039D01*
X92100504Y-90215982D01*
X92116147Y-90215985D01*
X92116147Y-90215984D01*
X92116150Y-90215985D01*
X92233263Y-90184626D01*
X92233266Y-90184624D01*
X92233267Y-90184624D01*
X92282910Y-90155974D01*
X92338269Y-90124026D01*
X92424014Y-90038314D01*
X92484656Y-89933331D01*
X92492165Y-89905332D01*
X92526652Y-89860406D01*
X92563639Y-89850500D01*
X92866215Y-89850500D01*
X92918541Y-89872174D01*
G37*
G04 #@! TD.AperFunction*
G04 #@! TA.AperFunction,Conductor*
G36*
X86951982Y-92431959D02*
G01*
X87177826Y-92657803D01*
X87199500Y-92710129D01*
X87199500Y-94954876D01*
X87177826Y-95007202D01*
X86827202Y-95357826D01*
X86774876Y-95379500D01*
X86535683Y-95379500D01*
X86524317Y-95380996D01*
X86486827Y-95385931D01*
X86379594Y-95435935D01*
X86295934Y-95519595D01*
X86295934Y-95519596D01*
X86267067Y-95581501D01*
X86225309Y-95619764D01*
X86168726Y-95617294D01*
X86132933Y-95581501D01*
X86129065Y-95573207D01*
X86104066Y-95519596D01*
X86036796Y-95452326D01*
X86015122Y-95400000D01*
X86036796Y-95347674D01*
X86060156Y-95324314D01*
X86104066Y-95280404D01*
X86154069Y-95173173D01*
X86160501Y-95124316D01*
X86160501Y-94675684D01*
X86154069Y-94626827D01*
X86104066Y-94519596D01*
X86020405Y-94435935D01*
X85928220Y-94392948D01*
X85889958Y-94351191D01*
X85885495Y-94325882D01*
X85885495Y-93454325D01*
X85907169Y-93401999D01*
X85959495Y-93380325D01*
X86011821Y-93401999D01*
X86023581Y-93417325D01*
X86054520Y-93470913D01*
X86129087Y-93545480D01*
X86220413Y-93598207D01*
X86322270Y-93625499D01*
X86322271Y-93625500D01*
X86322273Y-93625500D01*
X86427729Y-93625500D01*
X86427729Y-93625499D01*
X86529587Y-93598207D01*
X86620913Y-93545480D01*
X86695480Y-93470913D01*
X86748207Y-93379587D01*
X86775499Y-93277729D01*
X86775500Y-93277729D01*
X86775500Y-93172271D01*
X86775499Y-93172270D01*
X86770458Y-93153458D01*
X86748207Y-93070413D01*
X86695480Y-92979087D01*
X86642629Y-92926236D01*
X86620955Y-92873910D01*
X86642629Y-92821584D01*
X86657949Y-92809828D01*
X86671069Y-92802254D01*
X86745636Y-92727687D01*
X86798363Y-92636361D01*
X86825655Y-92534503D01*
X86825656Y-92534503D01*
X86825656Y-92484285D01*
X86847330Y-92431959D01*
X86899656Y-92410285D01*
X86951982Y-92431959D01*
G37*
G04 #@! TD.AperFunction*
G04 #@! TA.AperFunction,Conductor*
G36*
X102874880Y-88603973D02*
G01*
X102898608Y-88615573D01*
X102966741Y-88625500D01*
X102966747Y-88625500D01*
X103225170Y-88625500D01*
X103277496Y-88647174D01*
X103299170Y-88699500D01*
X103277496Y-88751824D01*
X102955934Y-89073386D01*
X102869527Y-89159793D01*
X102849570Y-89194360D01*
X102817987Y-89223839D01*
X102793519Y-89235801D01*
X102793518Y-89235801D01*
X102710802Y-89318517D01*
X102659428Y-89423605D01*
X102659428Y-89423606D01*
X102649501Y-89491735D01*
X102649501Y-90583264D01*
X102659428Y-90651393D01*
X102659428Y-90651394D01*
X102710802Y-90756482D01*
X102710803Y-90756483D01*
X102777827Y-90823507D01*
X102799501Y-90875831D01*
X102799501Y-91198306D01*
X102777827Y-91250632D01*
X102696775Y-91331683D01*
X102646026Y-91440514D01*
X102639499Y-91490100D01*
X102639499Y-91909899D01*
X102646026Y-91959485D01*
X102646027Y-91959487D01*
X102696775Y-92068316D01*
X102781683Y-92153224D01*
X102890512Y-92203972D01*
X102940098Y-92210500D01*
X103299899Y-92210499D01*
X103349486Y-92203972D01*
X103458315Y-92153224D01*
X103543223Y-92068316D01*
X103593971Y-91959487D01*
X103600499Y-91909901D01*
X103600498Y-91490100D01*
X103593971Y-91440513D01*
X103543223Y-91331684D01*
X103522175Y-91310636D01*
X103500501Y-91258310D01*
X103500501Y-90875832D01*
X103522174Y-90823507D01*
X103589199Y-90756483D01*
X103640574Y-90651393D01*
X103650501Y-90583260D01*
X103650501Y-89491740D01*
X103645755Y-89459168D01*
X103659658Y-89404266D01*
X103708312Y-89375273D01*
X103718982Y-89374500D01*
X104285844Y-89374500D01*
X104338170Y-89396174D01*
X104527825Y-89585829D01*
X104549499Y-89638155D01*
X104549499Y-90583264D01*
X104559426Y-90651393D01*
X104559426Y-90651394D01*
X104610800Y-90756482D01*
X104610801Y-90756483D01*
X104693516Y-90839198D01*
X104798606Y-90890573D01*
X104866739Y-90900500D01*
X104866745Y-90900500D01*
X105233253Y-90900500D01*
X105233259Y-90900500D01*
X105233264Y-90900499D01*
X105235930Y-90900306D01*
X105236056Y-90902056D01*
X105286036Y-90914640D01*
X105315095Y-90963254D01*
X105301267Y-91018177D01*
X105294209Y-91026350D01*
X103252731Y-93067827D01*
X103200405Y-93089501D01*
X103040100Y-93089501D01*
X102990514Y-93096028D01*
X102990512Y-93096029D01*
X102881683Y-93146777D01*
X102796776Y-93231684D01*
X102746027Y-93340515D01*
X102739500Y-93390101D01*
X102739500Y-93809900D01*
X102746027Y-93859486D01*
X102746028Y-93859488D01*
X102796776Y-93968317D01*
X102877826Y-94049367D01*
X102899500Y-94101693D01*
X102899500Y-94424625D01*
X102877826Y-94476951D01*
X102825500Y-94498625D01*
X102736246Y-94498625D01*
X102707004Y-94504441D01*
X102677761Y-94510258D01*
X102611443Y-94554572D01*
X102611442Y-94554573D01*
X102596028Y-94577642D01*
X102548935Y-94609106D01*
X102493386Y-94598056D01*
X102461922Y-94550963D01*
X102460500Y-94536528D01*
X102460500Y-94463854D01*
X102460499Y-94463853D01*
X102452905Y-94435513D01*
X102441501Y-94392949D01*
X102436615Y-94374715D01*
X102436613Y-94374710D01*
X102390471Y-94294791D01*
X102390470Y-94294790D01*
X102390469Y-94294788D01*
X102325212Y-94229531D01*
X101924982Y-93829301D01*
X101522508Y-93426826D01*
X101500834Y-93374500D01*
X101522508Y-93322174D01*
X101574834Y-93300500D01*
X101652729Y-93300500D01*
X101652729Y-93300499D01*
X101754587Y-93273207D01*
X101845913Y-93220480D01*
X101920480Y-93145913D01*
X101973207Y-93054587D01*
X101973509Y-93053461D01*
X101979828Y-93029876D01*
X101998979Y-92996701D01*
X102380470Y-92615212D01*
X102426614Y-92535288D01*
X102450499Y-92446146D01*
X102450500Y-92446146D01*
X102450500Y-88988334D01*
X102472173Y-88936009D01*
X102790054Y-88618127D01*
X102842379Y-88596454D01*
X102874880Y-88603973D01*
G37*
G04 #@! TD.AperFunction*
G04 #@! TA.AperFunction,Conductor*
G36*
X80710767Y-92934474D02*
G01*
X80749030Y-92976231D01*
X80753493Y-93001541D01*
X80753493Y-94072453D01*
X80731819Y-94124779D01*
X80538772Y-94317826D01*
X80486446Y-94339500D01*
X79627120Y-94339500D01*
X79574794Y-94317826D01*
X79560053Y-94296774D01*
X79549236Y-94273578D01*
X79524064Y-94219596D01*
X79440403Y-94135935D01*
X79333172Y-94085932D01*
X79333170Y-94085931D01*
X79297177Y-94081193D01*
X79284315Y-94079500D01*
X78935683Y-94079500D01*
X78924317Y-94080996D01*
X78886827Y-94085931D01*
X78779594Y-94135935D01*
X78695934Y-94219595D01*
X78695934Y-94219596D01*
X78667067Y-94281501D01*
X78625309Y-94319764D01*
X78568726Y-94317294D01*
X78532933Y-94281501D01*
X78529238Y-94273578D01*
X78504066Y-94219596D01*
X78420405Y-94135935D01*
X78313174Y-94085932D01*
X78313172Y-94085931D01*
X78277179Y-94081193D01*
X78264317Y-94079500D01*
X77915685Y-94079500D01*
X77915684Y-94079500D01*
X77884157Y-94083650D01*
X77829450Y-94068990D01*
X77801133Y-94019940D01*
X77800500Y-94010283D01*
X77800500Y-93520953D01*
X77822173Y-93468628D01*
X78054415Y-93236385D01*
X78106741Y-93214712D01*
X78341518Y-93214712D01*
X78391105Y-93208185D01*
X78499934Y-93157437D01*
X78574268Y-93083102D01*
X78626593Y-93061429D01*
X78678919Y-93083103D01*
X78753251Y-93157435D01*
X78862080Y-93208183D01*
X78911666Y-93214711D01*
X79331467Y-93214710D01*
X79381054Y-93208183D01*
X79489883Y-93157435D01*
X79564215Y-93083103D01*
X79616541Y-93061429D01*
X79668867Y-93083103D01*
X79743201Y-93157437D01*
X79852030Y-93208185D01*
X79901616Y-93214713D01*
X80321417Y-93214712D01*
X80371004Y-93208185D01*
X80479833Y-93157437D01*
X80564741Y-93072529D01*
X80612427Y-92970265D01*
X80654183Y-92932004D01*
X80710767Y-92934474D01*
G37*
G04 #@! TD.AperFunction*
G04 #@! TA.AperFunction,Conductor*
G36*
X102524120Y-87632301D02*
G01*
X102601993Y-87710174D01*
X102623667Y-87762500D01*
X102601993Y-87814826D01*
X101819529Y-88597289D01*
X101790507Y-88647559D01*
X101790506Y-88647561D01*
X101773387Y-88677209D01*
X101773384Y-88677216D01*
X101749500Y-88766354D01*
X101749500Y-92224165D01*
X101727826Y-92276491D01*
X101503297Y-92501019D01*
X101470124Y-92520171D01*
X101445416Y-92526791D01*
X101445411Y-92526793D01*
X101354086Y-92579520D01*
X101279520Y-92654086D01*
X101226795Y-92745408D01*
X101226791Y-92745417D01*
X101199500Y-92847270D01*
X101199500Y-92952729D01*
X101226791Y-93054582D01*
X101226795Y-93054591D01*
X101275240Y-93138500D01*
X101282633Y-93194653D01*
X101248154Y-93239586D01*
X101211154Y-93249500D01*
X100447841Y-93249500D01*
X100395515Y-93227826D01*
X100386312Y-93216612D01*
X100344114Y-93153458D01*
X100344113Y-93153457D01*
X100298547Y-93107891D01*
X100246542Y-93055886D01*
X100245629Y-93055276D01*
X100131808Y-92979223D01*
X100004332Y-92926421D01*
X100004322Y-92926418D01*
X99898900Y-92905449D01*
X99868993Y-92899500D01*
X99731007Y-92899500D01*
X99698213Y-92906023D01*
X99642664Y-92894972D01*
X99631452Y-92885770D01*
X99042508Y-92296826D01*
X99020834Y-92244500D01*
X99042508Y-92192174D01*
X99094834Y-92170500D01*
X99364315Y-92170500D01*
X99364317Y-92170500D01*
X99413174Y-92164068D01*
X99520405Y-92114065D01*
X99604066Y-92030404D01*
X99654069Y-91923173D01*
X99660501Y-91874316D01*
X99660501Y-91425684D01*
X99654069Y-91376827D01*
X99604066Y-91269596D01*
X99520405Y-91185935D01*
X99515827Y-91181357D01*
X99517398Y-91179785D01*
X99491623Y-91139312D01*
X99490501Y-91126473D01*
X99490501Y-90878334D01*
X99512175Y-90826008D01*
X99540631Y-90808290D01*
X99548818Y-90805500D01*
X99550001Y-90805500D01*
X99595729Y-90800348D01*
X99672679Y-90763290D01*
X99676899Y-90761852D01*
X99701047Y-90763405D01*
X99725209Y-90762048D01*
X99731171Y-90765343D01*
X99733419Y-90765488D01*
X99735296Y-90767623D01*
X99746906Y-90774040D01*
X99760836Y-90785149D01*
X99849999Y-90805500D01*
X99850003Y-90805500D01*
X100415824Y-90805500D01*
X100415825Y-90805500D01*
X100461388Y-90799501D01*
X100469006Y-90798498D01*
X100469006Y-90798497D01*
X100469013Y-90798497D01*
X100596180Y-90764422D01*
X100645742Y-90743893D01*
X100759756Y-90678067D01*
X100802316Y-90645409D01*
X100895408Y-90552317D01*
X100928066Y-90509757D01*
X100993892Y-90395743D01*
X101014421Y-90346181D01*
X101048496Y-90219014D01*
X101048889Y-90216033D01*
X101055499Y-90165825D01*
X101055499Y-89600123D01*
X101077173Y-89547797D01*
X101150023Y-89474947D01*
X101240460Y-89384510D01*
X101258179Y-89353819D01*
X101280021Y-89315988D01*
X101300499Y-89239563D01*
X101300500Y-89239563D01*
X101300500Y-87781990D01*
X101322174Y-87729664D01*
X101343227Y-87714923D01*
X101368316Y-87703224D01*
X101439239Y-87632300D01*
X101491564Y-87610627D01*
X102471794Y-87610627D01*
X102524120Y-87632301D01*
G37*
G04 #@! TD.AperFunction*
G04 #@! TA.AperFunction,Conductor*
G36*
X84646660Y-89938865D02*
G01*
X84646661Y-89938866D01*
X84705144Y-89950499D01*
X84705146Y-89950499D01*
X84944638Y-89950499D01*
X84944640Y-89950499D01*
X84998118Y-89939861D01*
X85053666Y-89950910D01*
X85085132Y-89998002D01*
X85085132Y-90026875D01*
X85079994Y-90052709D01*
X85074495Y-90080354D01*
X85074495Y-90319850D01*
X85081256Y-90353838D01*
X85087550Y-90385481D01*
X85083461Y-90386294D01*
X85083552Y-90413724D01*
X85087549Y-90414519D01*
X85086127Y-90421666D01*
X85086127Y-90421667D01*
X85074494Y-90480150D01*
X85074494Y-90719646D01*
X85083401Y-90764422D01*
X85087549Y-90785277D01*
X85083497Y-90786082D01*
X85083511Y-90814020D01*
X85087549Y-90814824D01*
X85086127Y-90821971D01*
X85086127Y-90821972D01*
X85074494Y-90880455D01*
X85074494Y-91119951D01*
X85083254Y-91163991D01*
X85087549Y-91185582D01*
X85083526Y-91186382D01*
X85083611Y-91213837D01*
X85087550Y-91214621D01*
X85086128Y-91221768D01*
X85086128Y-91221769D01*
X85074495Y-91280252D01*
X85074495Y-91519748D01*
X85078626Y-91540514D01*
X85087550Y-91585379D01*
X85083552Y-91586174D01*
X85083583Y-91613629D01*
X85087549Y-91614418D01*
X85086127Y-91621565D01*
X85086127Y-91621566D01*
X85074494Y-91680049D01*
X85074494Y-91919545D01*
X85082439Y-91959485D01*
X85087549Y-91985176D01*
X85083497Y-91985981D01*
X85083511Y-92013919D01*
X85087549Y-92014723D01*
X85086127Y-92021870D01*
X85086127Y-92021871D01*
X85074494Y-92080354D01*
X85074494Y-92319850D01*
X85086127Y-92378333D01*
X85087549Y-92385481D01*
X85083495Y-92386287D01*
X85083522Y-92413717D01*
X85087550Y-92414519D01*
X85086128Y-92421666D01*
X85086128Y-92421667D01*
X85074495Y-92480150D01*
X85074495Y-92719646D01*
X85077791Y-92736218D01*
X85085132Y-92773124D01*
X85074082Y-92828673D01*
X85026990Y-92860138D01*
X84998118Y-92860138D01*
X84944640Y-92849501D01*
X84705144Y-92849501D01*
X84646661Y-92861134D01*
X84646660Y-92861134D01*
X84639513Y-92862556D01*
X84638711Y-92858528D01*
X84611281Y-92858501D01*
X84610475Y-92862555D01*
X84603327Y-92861133D01*
X84544844Y-92849500D01*
X84305348Y-92849500D01*
X84246865Y-92861133D01*
X84246864Y-92861133D01*
X84239717Y-92862555D01*
X84238913Y-92858517D01*
X84210975Y-92858503D01*
X84210170Y-92862555D01*
X84203022Y-92861133D01*
X84144539Y-92849500D01*
X83905043Y-92849500D01*
X83846560Y-92861133D01*
X83846559Y-92861133D01*
X83840543Y-92862330D01*
X83810848Y-92859403D01*
X83810373Y-92861793D01*
X83803225Y-92860371D01*
X83744742Y-92848738D01*
X83505246Y-92848738D01*
X83446763Y-92860371D01*
X83446762Y-92860371D01*
X83439615Y-92861793D01*
X83439145Y-92859432D01*
X83409363Y-92862364D01*
X83390078Y-92858528D01*
X83344691Y-92849500D01*
X83105195Y-92849500D01*
X83046712Y-92861133D01*
X83046711Y-92861133D01*
X83039565Y-92862555D01*
X83038771Y-92858566D01*
X83011073Y-92858519D01*
X83010271Y-92862555D01*
X83003123Y-92861133D01*
X82944640Y-92849500D01*
X82705144Y-92849500D01*
X82646661Y-92861133D01*
X82646660Y-92861133D01*
X82639513Y-92862555D01*
X82638718Y-92858558D01*
X82611288Y-92858467D01*
X82610475Y-92862556D01*
X82603327Y-92861134D01*
X82544844Y-92849501D01*
X82305348Y-92849501D01*
X82251869Y-92860138D01*
X82196320Y-92849088D01*
X82164855Y-92801996D01*
X82164855Y-92773126D01*
X82175493Y-92719646D01*
X82175493Y-92480150D01*
X82163860Y-92421667D01*
X82163859Y-92421666D01*
X82162438Y-92414519D01*
X82166678Y-92413675D01*
X82166549Y-92386300D01*
X82162439Y-92385483D01*
X82173347Y-92330645D01*
X82175494Y-92319850D01*
X82175494Y-92080354D01*
X82163861Y-92021871D01*
X82163860Y-92021870D01*
X82162439Y-92014723D01*
X82166563Y-92013902D01*
X82166562Y-91986250D01*
X82162439Y-91985430D01*
X82163861Y-91978282D01*
X82175494Y-91919799D01*
X82175494Y-91680303D01*
X82163861Y-91621820D01*
X82163860Y-91621819D01*
X82162439Y-91614672D01*
X82166345Y-91613894D01*
X82166360Y-91585144D01*
X82162439Y-91584365D01*
X82173883Y-91526829D01*
X82175494Y-91518732D01*
X82175494Y-91279236D01*
X82163861Y-91220753D01*
X82163860Y-91220751D01*
X82162523Y-91214030D01*
X82162523Y-91185156D01*
X82163859Y-91178435D01*
X82163861Y-91178434D01*
X82175494Y-91119951D01*
X82175494Y-90880455D01*
X82163861Y-90821972D01*
X82163860Y-90821971D01*
X82162439Y-90814824D01*
X82166524Y-90814011D01*
X82166495Y-90786085D01*
X82162439Y-90785279D01*
X82170351Y-90745500D01*
X82175494Y-90719646D01*
X82175494Y-90480150D01*
X82163861Y-90421667D01*
X82162439Y-90414517D01*
X82166700Y-90413669D01*
X82166526Y-90386296D01*
X82162438Y-90385483D01*
X82170256Y-90346180D01*
X82175493Y-90319850D01*
X82175493Y-90080354D01*
X82164855Y-90026874D01*
X82175904Y-89971327D01*
X82222996Y-89939861D01*
X82251867Y-89939861D01*
X82305348Y-89950499D01*
X82305350Y-89950499D01*
X82544843Y-89950499D01*
X82544844Y-89950499D01*
X82588763Y-89941763D01*
X82610477Y-89937444D01*
X82611343Y-89941801D01*
X82638719Y-89941426D01*
X82639511Y-89937445D01*
X82661220Y-89941763D01*
X82705144Y-89950500D01*
X82705145Y-89950500D01*
X82944639Y-89950500D01*
X82944640Y-89950500D01*
X82988564Y-89941763D01*
X83010273Y-89937445D01*
X83011091Y-89941559D01*
X83039017Y-89941471D01*
X83039818Y-89937445D01*
X83046965Y-89938866D01*
X83046966Y-89938867D01*
X83105449Y-89950500D01*
X83105451Y-89950500D01*
X83344943Y-89950500D01*
X83344945Y-89950500D01*
X83403428Y-89938867D01*
X83403428Y-89938866D01*
X83410273Y-89937505D01*
X83439088Y-89940347D01*
X83439615Y-89937699D01*
X83446762Y-89939120D01*
X83446763Y-89939121D01*
X83505246Y-89950754D01*
X83505248Y-89950754D01*
X83744740Y-89950754D01*
X83744742Y-89950754D01*
X83803225Y-89939121D01*
X83803225Y-89939120D01*
X83810373Y-89937699D01*
X83810901Y-89940357D01*
X83839714Y-89937505D01*
X83846559Y-89938866D01*
X83846560Y-89938867D01*
X83905043Y-89950500D01*
X83905045Y-89950500D01*
X84144538Y-89950500D01*
X84144539Y-89950500D01*
X84188463Y-89941763D01*
X84210172Y-89937445D01*
X84210990Y-89941559D01*
X84238916Y-89941471D01*
X84239717Y-89937445D01*
X84246864Y-89938866D01*
X84246865Y-89938867D01*
X84305348Y-89950500D01*
X84305350Y-89950500D01*
X84544843Y-89950500D01*
X84544844Y-89950500D01*
X84588768Y-89941763D01*
X84610477Y-89937445D01*
X84611335Y-89941763D01*
X84638712Y-89941469D01*
X84639513Y-89937444D01*
X84646660Y-89938865D01*
G37*
G04 #@! TD.AperFunction*
G04 #@! TA.AperFunction,Conductor*
G36*
X79977826Y-87871674D02*
G01*
X79999500Y-87924000D01*
X79999500Y-88039564D01*
X80019977Y-88115985D01*
X80019979Y-88115990D01*
X80045860Y-88160817D01*
X80059540Y-88184511D01*
X80339540Y-88464511D01*
X80395489Y-88520460D01*
X80446485Y-88549902D01*
X80476552Y-88582714D01*
X80493153Y-88618315D01*
X80493154Y-88618316D01*
X80578062Y-88703224D01*
X80686891Y-88753972D01*
X80736477Y-88760500D01*
X81156278Y-88760499D01*
X81205865Y-88753972D01*
X81314694Y-88703224D01*
X81383360Y-88634558D01*
X81435686Y-88612884D01*
X81488012Y-88634558D01*
X81556678Y-88703224D01*
X81665507Y-88753972D01*
X81715093Y-88760500D01*
X81904876Y-88760499D01*
X81957202Y-88782173D01*
X82102922Y-88927893D01*
X82124596Y-88980219D01*
X82124596Y-89030251D01*
X82124596Y-89297358D01*
X82123732Y-89299447D01*
X82123777Y-89399102D01*
X82124596Y-89401076D01*
X82124596Y-89769746D01*
X82135233Y-89823225D01*
X82124183Y-89878774D01*
X82077091Y-89910239D01*
X82048219Y-89910239D01*
X81994741Y-89899602D01*
X81678553Y-89899602D01*
X81668896Y-89898969D01*
X81664558Y-89898398D01*
X81664555Y-89898398D01*
X81241604Y-89898398D01*
X81212435Y-89892407D01*
X81208406Y-89890678D01*
X81187114Y-89878386D01*
X81172611Y-89874500D01*
X81167480Y-89873125D01*
X81167475Y-89873123D01*
X81097970Y-89854500D01*
X80746686Y-89854500D01*
X80694360Y-89832826D01*
X80643310Y-89781776D01*
X80617514Y-89769747D01*
X80534481Y-89731028D01*
X80534479Y-89731027D01*
X80497949Y-89726218D01*
X80484895Y-89724500D01*
X80484893Y-89724500D01*
X80065094Y-89724500D01*
X80015508Y-89731027D01*
X80015506Y-89731028D01*
X79906677Y-89781776D01*
X79906673Y-89781779D01*
X79851987Y-89836465D01*
X79799661Y-89858139D01*
X79747336Y-89836465D01*
X79676234Y-89765363D01*
X79571895Y-89714355D01*
X79504256Y-89704500D01*
X79504252Y-89704500D01*
X79143196Y-89704500D01*
X79143191Y-89704500D01*
X79075553Y-89714355D01*
X79075552Y-89714355D01*
X78971213Y-89765363D01*
X78891050Y-89845527D01*
X78838724Y-89867201D01*
X78786398Y-89845527D01*
X78706234Y-89765363D01*
X78601895Y-89714355D01*
X78534256Y-89704500D01*
X78534252Y-89704500D01*
X78173196Y-89704500D01*
X78173191Y-89704500D01*
X78105553Y-89714355D01*
X78105552Y-89714355D01*
X78001213Y-89765363D01*
X77946139Y-89820438D01*
X77893813Y-89842112D01*
X77841487Y-89820438D01*
X77792825Y-89771776D01*
X77741136Y-89747673D01*
X77683996Y-89721028D01*
X77683994Y-89721027D01*
X77647464Y-89716218D01*
X77634410Y-89714500D01*
X77634408Y-89714500D01*
X77214609Y-89714500D01*
X77165023Y-89721027D01*
X77165021Y-89721028D01*
X77056192Y-89771776D01*
X77005143Y-89822826D01*
X76952817Y-89844500D01*
X76195834Y-89844500D01*
X76143508Y-89822826D01*
X75472174Y-89151492D01*
X75450500Y-89099166D01*
X75450500Y-88327012D01*
X75472174Y-88274686D01*
X75474044Y-88273102D01*
X75477509Y-88269636D01*
X75477511Y-88269636D01*
X75559636Y-88187511D01*
X75610645Y-88083170D01*
X75620500Y-88015528D01*
X75620500Y-87924000D01*
X75642174Y-87871674D01*
X75694500Y-87850000D01*
X79925500Y-87850000D01*
X79977826Y-87871674D01*
G37*
G04 #@! TD.AperFunction*
G04 #@! TA.AperFunction,Conductor*
G36*
X95137077Y-84872174D02*
G01*
X95497827Y-85232924D01*
X95519501Y-85285250D01*
X95519501Y-85524443D01*
X95520867Y-85534819D01*
X95525932Y-85573298D01*
X95544473Y-85613058D01*
X95575936Y-85680531D01*
X95659597Y-85764192D01*
X95766828Y-85814195D01*
X95815685Y-85820627D01*
X96054878Y-85820627D01*
X96107204Y-85842301D01*
X96457826Y-86192923D01*
X96479500Y-86245249D01*
X96479500Y-86364442D01*
X96485931Y-86413299D01*
X96485932Y-86413301D01*
X96535935Y-86520532D01*
X96619596Y-86604193D01*
X96679856Y-86632293D01*
X96681501Y-86633060D01*
X96719764Y-86674818D01*
X96717294Y-86731401D01*
X96681501Y-86767194D01*
X96619596Y-86796061D01*
X96619595Y-86796061D01*
X96544548Y-86871108D01*
X96492222Y-86892782D01*
X96453814Y-86879747D01*
X96452998Y-86881162D01*
X96357476Y-86826012D01*
X96357467Y-86826008D01*
X96255614Y-86798717D01*
X96255612Y-86798717D01*
X96150158Y-86798717D01*
X96150156Y-86798717D01*
X96048302Y-86826008D01*
X96048293Y-86826012D01*
X95956971Y-86878737D01*
X95882405Y-86953303D01*
X95829680Y-87044625D01*
X95829676Y-87044634D01*
X95802385Y-87146487D01*
X95802385Y-87251946D01*
X95829676Y-87353799D01*
X95829680Y-87353808D01*
X95870550Y-87424597D01*
X95882405Y-87445130D01*
X95956972Y-87519697D01*
X96048298Y-87572424D01*
X96150155Y-87599716D01*
X96150156Y-87599717D01*
X96150158Y-87599717D01*
X96255614Y-87599717D01*
X96255614Y-87599716D01*
X96357472Y-87572424D01*
X96441738Y-87523772D01*
X96497889Y-87516380D01*
X96531115Y-87535586D01*
X96535834Y-87540315D01*
X96535935Y-87540530D01*
X96592760Y-87597355D01*
X96593206Y-87597801D01*
X96593206Y-87597802D01*
X96593258Y-87597854D01*
X96603961Y-87623766D01*
X96614880Y-87650127D01*
X96614864Y-87650163D01*
X96614880Y-87650201D01*
X96604158Y-87676012D01*
X96593206Y-87702453D01*
X96535935Y-87759723D01*
X96530129Y-87772174D01*
X96510241Y-87814826D01*
X96506875Y-87822044D01*
X96465118Y-87860307D01*
X96439808Y-87864770D01*
X96261815Y-87864770D01*
X96209489Y-87843096D01*
X96171183Y-87804790D01*
X96079861Y-87752065D01*
X96079852Y-87752061D01*
X95977999Y-87724770D01*
X95977997Y-87724770D01*
X95872543Y-87724770D01*
X95872541Y-87724770D01*
X95770687Y-87752061D01*
X95770678Y-87752065D01*
X95679356Y-87804790D01*
X95604790Y-87879356D01*
X95552065Y-87970678D01*
X95552061Y-87970687D01*
X95531109Y-88048881D01*
X95496630Y-88093814D01*
X95440478Y-88101206D01*
X95407305Y-88082054D01*
X94802174Y-87476923D01*
X94780500Y-87424597D01*
X94780500Y-87344478D01*
X94780500Y-87344472D01*
X94770645Y-87276830D01*
X94719636Y-87172489D01*
X94637511Y-87090364D01*
X94637510Y-87090363D01*
X94533171Y-87039355D01*
X94465532Y-87029500D01*
X94465528Y-87029500D01*
X94104472Y-87029500D01*
X94104467Y-87029500D01*
X94036829Y-87039355D01*
X94036828Y-87039355D01*
X93932489Y-87090363D01*
X93852326Y-87170527D01*
X93800000Y-87192201D01*
X93747674Y-87170527D01*
X93667510Y-87090363D01*
X93563171Y-87039355D01*
X93495532Y-87029500D01*
X93495528Y-87029500D01*
X93134472Y-87029500D01*
X93134467Y-87029500D01*
X93066829Y-87039355D01*
X93066828Y-87039355D01*
X92962489Y-87090363D01*
X92880363Y-87172489D01*
X92829355Y-87276828D01*
X92829355Y-87276829D01*
X92819500Y-87344467D01*
X92819500Y-87755532D01*
X92829355Y-87823170D01*
X92829355Y-87823171D01*
X92880363Y-87927510D01*
X92880364Y-87927511D01*
X92962489Y-88009636D01*
X92981773Y-88019063D01*
X93013360Y-88048544D01*
X93034527Y-88085207D01*
X93034528Y-88085208D01*
X93034530Y-88085211D01*
X93203406Y-88254087D01*
X93371493Y-88422174D01*
X93393167Y-88474500D01*
X93371493Y-88526826D01*
X93319167Y-88548500D01*
X90271435Y-88548500D01*
X90195013Y-88568977D01*
X90195008Y-88568979D01*
X90140414Y-88600500D01*
X90126487Y-88608540D01*
X89977202Y-88757826D01*
X89924876Y-88779500D01*
X89685683Y-88779500D01*
X89674317Y-88780996D01*
X89636827Y-88785931D01*
X89529594Y-88835935D01*
X89445934Y-88919595D01*
X89445934Y-88919596D01*
X89417067Y-88981501D01*
X89375309Y-89019764D01*
X89318726Y-89017294D01*
X89282933Y-88981501D01*
X89278394Y-88971768D01*
X89254066Y-88919596D01*
X89170405Y-88835935D01*
X89170402Y-88835933D01*
X89121620Y-88813185D01*
X89083357Y-88771428D01*
X89085829Y-88714844D01*
X89100566Y-88693796D01*
X90172190Y-87622174D01*
X90224516Y-87600500D01*
X90252729Y-87600500D01*
X90252729Y-87600499D01*
X90354587Y-87573207D01*
X90445913Y-87520480D01*
X90520480Y-87445913D01*
X90573207Y-87354587D01*
X90600499Y-87252729D01*
X90600500Y-87252729D01*
X90600500Y-87147271D01*
X90600499Y-87147270D01*
X90598617Y-87140248D01*
X90573207Y-87045413D01*
X90520480Y-86954087D01*
X90445913Y-86879520D01*
X90380379Y-86841684D01*
X90354591Y-86826795D01*
X90354582Y-86826791D01*
X90252729Y-86799500D01*
X90252727Y-86799500D01*
X90147273Y-86799500D01*
X90147271Y-86799500D01*
X90045417Y-86826791D01*
X90045408Y-86826795D01*
X89954086Y-86879520D01*
X89902326Y-86931281D01*
X89850000Y-86952955D01*
X89797674Y-86931281D01*
X89745913Y-86879520D01*
X89654591Y-86826795D01*
X89654582Y-86826791D01*
X89552729Y-86799500D01*
X89552727Y-86799500D01*
X89447273Y-86799500D01*
X89447271Y-86799500D01*
X89345417Y-86826791D01*
X89345408Y-86826795D01*
X89254086Y-86879520D01*
X89226825Y-86906782D01*
X89174499Y-86928456D01*
X89122173Y-86906782D01*
X89100499Y-86854456D01*
X89100499Y-85830253D01*
X89100250Y-85828999D01*
X89088866Y-85771769D01*
X89083802Y-85764191D01*
X89070731Y-85744628D01*
X89044551Y-85705448D01*
X89013407Y-85684638D01*
X88978231Y-85661133D01*
X88978232Y-85661133D01*
X88940575Y-85653643D01*
X88919747Y-85649500D01*
X88080251Y-85649500D01*
X88059423Y-85653643D01*
X88021766Y-85661133D01*
X87955448Y-85705447D01*
X87955446Y-85705449D01*
X87911132Y-85771767D01*
X87908780Y-85783591D01*
X87899749Y-85828998D01*
X87899499Y-85830253D01*
X87899499Y-86678475D01*
X87877825Y-86730801D01*
X87825499Y-86752475D01*
X87794226Y-86745542D01*
X87709487Y-86706028D01*
X87709485Y-86706027D01*
X87672955Y-86701218D01*
X87659901Y-86699500D01*
X87659899Y-86699500D01*
X87240100Y-86699500D01*
X87190514Y-86706027D01*
X87190512Y-86706028D01*
X87081683Y-86756776D01*
X86996776Y-86841683D01*
X86946027Y-86950514D01*
X86939500Y-87000100D01*
X86939500Y-87065987D01*
X86917826Y-87118313D01*
X86865500Y-87139987D01*
X86834227Y-87133054D01*
X86733172Y-87085932D01*
X86733170Y-87085931D01*
X86697177Y-87081193D01*
X86684315Y-87079500D01*
X86424122Y-87079500D01*
X86371796Y-87057826D01*
X86350122Y-87005500D01*
X86371796Y-86953174D01*
X86468194Y-86856776D01*
X86740460Y-86584511D01*
X86741973Y-86581891D01*
X86746365Y-86574285D01*
X86773004Y-86528143D01*
X86780021Y-86515989D01*
X86800499Y-86439564D01*
X86800500Y-86439564D01*
X86800500Y-84924500D01*
X86822174Y-84872174D01*
X86874500Y-84850500D01*
X95084751Y-84850500D01*
X95137077Y-84872174D01*
G37*
G04 #@! TD.AperFunction*
G04 #@! TA.AperFunction,Conductor*
G36*
X101977826Y-84222174D02*
G01*
X101999500Y-84274500D01*
X101999500Y-84368991D01*
X102026418Y-84504322D01*
X102026421Y-84504332D01*
X102079223Y-84631808D01*
X102149841Y-84737496D01*
X102155886Y-84746542D01*
X102253458Y-84844114D01*
X102316613Y-84886312D01*
X102348078Y-84933403D01*
X102349500Y-84947840D01*
X102349500Y-85726147D01*
X102369444Y-85800576D01*
X102370197Y-85803388D01*
X102371598Y-85808615D01*
X102373386Y-85815290D01*
X102419530Y-85895213D01*
X102617825Y-86093508D01*
X102639499Y-86145834D01*
X102639499Y-86309899D01*
X102646026Y-86359485D01*
X102646027Y-86359487D01*
X102696775Y-86468316D01*
X102777827Y-86549368D01*
X102799501Y-86601694D01*
X102799501Y-86841518D01*
X102777827Y-86893844D01*
X102725501Y-86915518D01*
X102706349Y-86912997D01*
X102693772Y-86909627D01*
X101451819Y-86909627D01*
X101399493Y-86887953D01*
X101368316Y-86856776D01*
X101314504Y-86831683D01*
X101259487Y-86806028D01*
X101259485Y-86806027D01*
X101221264Y-86800996D01*
X101209901Y-86799500D01*
X101209899Y-86799500D01*
X100790100Y-86799500D01*
X100740514Y-86806027D01*
X100740512Y-86806028D01*
X100631683Y-86856776D01*
X100546776Y-86941683D01*
X100546775Y-86941685D01*
X100539740Y-86956773D01*
X100530036Y-86965665D01*
X100524999Y-86977826D01*
X100509974Y-86984049D01*
X100497984Y-86995037D01*
X100472673Y-86999500D01*
X100418159Y-86999500D01*
X100377046Y-86987028D01*
X100353251Y-86971128D01*
X100353252Y-86971128D01*
X100324008Y-86965311D01*
X100294767Y-86959495D01*
X99755271Y-86959495D01*
X99726029Y-86965311D01*
X99696786Y-86971128D01*
X99630468Y-87015442D01*
X99630466Y-87015444D01*
X99586152Y-87081762D01*
X99574519Y-87140248D01*
X99574519Y-87459752D01*
X99585345Y-87514182D01*
X99574295Y-87569731D01*
X99565832Y-87580042D01*
X99521192Y-87646849D01*
X99512467Y-87690714D01*
X99509559Y-87705335D01*
X99509559Y-88244831D01*
X99515356Y-88273972D01*
X99521192Y-88303315D01*
X99537092Y-88327110D01*
X99565507Y-88369635D01*
X99602495Y-88394350D01*
X99631826Y-88413949D01*
X99631827Y-88413949D01*
X99631828Y-88413950D01*
X99690311Y-88425583D01*
X99900481Y-88425583D01*
X99952807Y-88447257D01*
X99974481Y-88499583D01*
X99974481Y-88552729D01*
X100001772Y-88654582D01*
X100001776Y-88654591D01*
X100054501Y-88745913D01*
X100076762Y-88768174D01*
X100098436Y-88820500D01*
X100076762Y-88872826D01*
X100024436Y-88894500D01*
X99849999Y-88894500D01*
X99838449Y-88895801D01*
X99804271Y-88899651D01*
X99731339Y-88934775D01*
X99674791Y-88937950D01*
X99653094Y-88925960D01*
X99650217Y-88923666D01*
X99639164Y-88914851D01*
X99550001Y-88894500D01*
X98984175Y-88894500D01*
X98978956Y-88895187D01*
X98930993Y-88901501D01*
X98930984Y-88901503D01*
X98803823Y-88935576D01*
X98752753Y-88956730D01*
X98696116Y-88956729D01*
X98656068Y-88916679D01*
X98650436Y-88888362D01*
X98650436Y-88368223D01*
X98662908Y-88327110D01*
X98669589Y-88317110D01*
X98678808Y-88303314D01*
X98690441Y-88244831D01*
X98690441Y-87705335D01*
X98678808Y-87646852D01*
X98674924Y-87641040D01*
X98649656Y-87603224D01*
X98634493Y-87580531D01*
X98634492Y-87580530D01*
X98630444Y-87574472D01*
X98631837Y-87573540D01*
X98613232Y-87528610D01*
X98614654Y-87514182D01*
X98625481Y-87459753D01*
X98625481Y-87140247D01*
X98613848Y-87081764D01*
X98613845Y-87081760D01*
X98612446Y-87078381D01*
X98612446Y-87074716D01*
X98612426Y-87074616D01*
X98612446Y-87074612D01*
X98612446Y-87025515D01*
X98612426Y-87025511D01*
X98612446Y-87025405D01*
X98612447Y-87021743D01*
X98613843Y-87018369D01*
X98613848Y-87018363D01*
X98625481Y-86959880D01*
X98625481Y-86770526D01*
X98647155Y-86718200D01*
X98699481Y-86696526D01*
X98750224Y-86717544D01*
X98750238Y-86717527D01*
X98750303Y-86717577D01*
X98751807Y-86718200D01*
X98754087Y-86720480D01*
X98845413Y-86773207D01*
X98947270Y-86800499D01*
X98947271Y-86800500D01*
X98947273Y-86800500D01*
X99052729Y-86800500D01*
X99052729Y-86800499D01*
X99154587Y-86773207D01*
X99245913Y-86720480D01*
X99320480Y-86645913D01*
X99373207Y-86554587D01*
X99400499Y-86452729D01*
X99400500Y-86452729D01*
X99400500Y-86398554D01*
X99422174Y-86346228D01*
X99570775Y-86197627D01*
X99570777Y-86197625D01*
X99576416Y-86184012D01*
X99603306Y-86119093D01*
X99643353Y-86079046D01*
X99686107Y-86074835D01*
X99690310Y-86075671D01*
X99690311Y-86075671D01*
X100009815Y-86075671D01*
X100009817Y-86075671D01*
X100068300Y-86064038D01*
X100134621Y-86019723D01*
X100178936Y-85953402D01*
X100190569Y-85894919D01*
X100190569Y-85740289D01*
X100210772Y-85689477D01*
X100211503Y-85688702D01*
X100285479Y-85614727D01*
X100287598Y-85611057D01*
X100325040Y-85546205D01*
X100345518Y-85469780D01*
X100345519Y-85469780D01*
X100345519Y-85118128D01*
X100367193Y-85065802D01*
X100378575Y-85057838D01*
X100378033Y-85057064D01*
X100383330Y-85053353D01*
X100383335Y-85053352D01*
X100468243Y-84968444D01*
X100518991Y-84859615D01*
X100525519Y-84810029D01*
X100525518Y-84575249D01*
X100547191Y-84522925D01*
X100847944Y-84222174D01*
X100900270Y-84200500D01*
X101925500Y-84200500D01*
X101977826Y-84222174D01*
G37*
G04 #@! TD.AperFunction*
G04 #@! TA.AperFunction,Conductor*
G36*
X85747203Y-84222174D02*
G01*
X86177826Y-84652797D01*
X86199500Y-84705123D01*
X86199500Y-86244877D01*
X86177826Y-86297203D01*
X85417203Y-87057826D01*
X85372489Y-87079107D01*
X85368689Y-87079500D01*
X85315685Y-87079500D01*
X85266828Y-87085932D01*
X85255525Y-87091202D01*
X85243143Y-87092483D01*
X85227024Y-87087679D01*
X85210218Y-87088412D01*
X85200933Y-87079903D01*
X85188865Y-87076307D01*
X85180863Y-87061511D01*
X85168462Y-87050146D01*
X85164117Y-87030543D01*
X85161924Y-87026488D01*
X85162666Y-87023997D01*
X85161531Y-87018876D01*
X85161531Y-85750604D01*
X85183205Y-85698278D01*
X85235531Y-85676604D01*
X85259882Y-85682004D01*
X85260074Y-85681349D01*
X85265505Y-85682932D01*
X85265507Y-85682933D01*
X85315093Y-85689461D01*
X85734894Y-85689460D01*
X85784481Y-85682933D01*
X85893310Y-85632185D01*
X85978218Y-85547277D01*
X86028966Y-85438448D01*
X86035494Y-85388862D01*
X86035493Y-85029061D01*
X86028966Y-84979474D01*
X85978218Y-84870645D01*
X85893310Y-84785737D01*
X85784481Y-84734989D01*
X85784479Y-84734988D01*
X85747949Y-84730179D01*
X85734895Y-84728461D01*
X85734893Y-84728461D01*
X85315094Y-84728461D01*
X85265508Y-84734988D01*
X85265506Y-84734989D01*
X85156677Y-84785737D01*
X85071770Y-84870644D01*
X85071770Y-84870645D01*
X85055407Y-84905735D01*
X85045702Y-84914626D01*
X85040666Y-84926787D01*
X85025639Y-84933011D01*
X85013649Y-84943998D01*
X84988340Y-84948461D01*
X84886237Y-84948461D01*
X84833911Y-84926787D01*
X84824709Y-84915574D01*
X84811305Y-84895514D01*
X84784584Y-84855524D01*
X84738111Y-84824471D01*
X84718264Y-84811209D01*
X84718265Y-84811209D01*
X84689021Y-84805392D01*
X84659780Y-84799576D01*
X83890286Y-84799576D01*
X83861044Y-84805392D01*
X83831801Y-84811209D01*
X83765483Y-84855523D01*
X83765481Y-84855525D01*
X83721167Y-84921843D01*
X83721167Y-84921845D01*
X83711899Y-84968441D01*
X83709534Y-84980329D01*
X83709534Y-85539058D01*
X83687860Y-85591384D01*
X83635534Y-85613058D01*
X83621098Y-85611636D01*
X83559702Y-85599424D01*
X82790208Y-85599424D01*
X82763045Y-85604827D01*
X82731723Y-85611057D01*
X82665405Y-85655371D01*
X82665403Y-85655373D01*
X82621089Y-85721691D01*
X82617390Y-85740289D01*
X82609462Y-85780149D01*
X82609456Y-85780177D01*
X82609456Y-85845500D01*
X82587782Y-85897826D01*
X82535456Y-85919500D01*
X82461648Y-85919500D01*
X82409322Y-85897826D01*
X82394581Y-85876774D01*
X82390311Y-85867619D01*
X82378218Y-85841684D01*
X82293310Y-85756776D01*
X82184481Y-85706028D01*
X82184479Y-85706027D01*
X82147949Y-85701218D01*
X82134895Y-85699500D01*
X82134893Y-85699500D01*
X81715094Y-85699500D01*
X81665508Y-85706027D01*
X81665506Y-85706028D01*
X81556677Y-85756776D01*
X81471770Y-85841683D01*
X81421021Y-85950514D01*
X81414494Y-86000100D01*
X81414494Y-86359899D01*
X81421021Y-86409485D01*
X81421022Y-86409487D01*
X81471770Y-86518316D01*
X81556678Y-86603224D01*
X81665507Y-86653972D01*
X81715093Y-86660500D01*
X82134894Y-86660499D01*
X82184481Y-86653972D01*
X82293310Y-86603224D01*
X82378218Y-86518316D01*
X82391405Y-86490034D01*
X82394581Y-86483226D01*
X82404285Y-86474334D01*
X82409322Y-86462174D01*
X82424348Y-86455949D01*
X82436339Y-86444963D01*
X82461648Y-86440500D01*
X82556374Y-86440500D01*
X82608700Y-86462174D01*
X82617902Y-86473387D01*
X82647923Y-86518315D01*
X82665404Y-86544476D01*
X82690930Y-86561532D01*
X82731723Y-86588790D01*
X82731724Y-86588790D01*
X82731725Y-86588791D01*
X82790208Y-86600424D01*
X82840494Y-86600424D01*
X82892820Y-86622098D01*
X82914494Y-86674424D01*
X82914494Y-86776968D01*
X82892820Y-86829294D01*
X82872994Y-86843449D01*
X82797483Y-86880363D01*
X82715357Y-86962489D01*
X82664349Y-87066828D01*
X82664349Y-87066829D01*
X82654494Y-87134467D01*
X82654494Y-87495532D01*
X82664349Y-87563170D01*
X82664349Y-87563171D01*
X82715357Y-87667510D01*
X82795521Y-87747674D01*
X82817195Y-87800000D01*
X82795521Y-87852326D01*
X82715357Y-87932489D01*
X82664349Y-88036828D01*
X82664349Y-88036829D01*
X82654494Y-88104467D01*
X82654494Y-88450871D01*
X82632820Y-88503197D01*
X82580494Y-88524871D01*
X82528168Y-88503197D01*
X82457167Y-88432196D01*
X82435493Y-88379870D01*
X82435493Y-88100100D01*
X82428966Y-88050514D01*
X82428966Y-88050513D01*
X82378218Y-87941684D01*
X82293310Y-87856776D01*
X82184481Y-87806028D01*
X82184479Y-87806027D01*
X82147949Y-87801218D01*
X82134895Y-87799500D01*
X82134893Y-87799500D01*
X81715094Y-87799500D01*
X81665508Y-87806027D01*
X81665506Y-87806028D01*
X81556677Y-87856776D01*
X81488012Y-87925442D01*
X81435686Y-87947116D01*
X81383360Y-87925442D01*
X81314694Y-87856776D01*
X81245478Y-87824500D01*
X81205865Y-87806028D01*
X81205863Y-87806027D01*
X81169333Y-87801218D01*
X81156279Y-87799500D01*
X81156277Y-87799500D01*
X80736477Y-87799500D01*
X80684156Y-87806387D01*
X80629449Y-87791726D01*
X80601133Y-87742676D01*
X80600500Y-87733020D01*
X80600500Y-84855123D01*
X80622174Y-84802797D01*
X81202797Y-84222174D01*
X81255123Y-84200500D01*
X85694877Y-84200500D01*
X85747203Y-84222174D01*
G37*
G04 #@! TD.AperFunction*
G04 #@! TA.AperFunction,Conductor*
G36*
X83828891Y-85788363D02*
G01*
X83831801Y-85788941D01*
X83831803Y-85788943D01*
X83890286Y-85800576D01*
X84566531Y-85800576D01*
X84618857Y-85822250D01*
X84640531Y-85874576D01*
X84640531Y-87324895D01*
X84618857Y-87377221D01*
X83821820Y-88174258D01*
X83769494Y-88195932D01*
X83717168Y-88174258D01*
X83695494Y-88121932D01*
X83695494Y-88104478D01*
X83695494Y-88104472D01*
X83685639Y-88036830D01*
X83634630Y-87932489D01*
X83554467Y-87852326D01*
X83532793Y-87800000D01*
X83554467Y-87747674D01*
X83591967Y-87710174D01*
X83634630Y-87667511D01*
X83685639Y-87563170D01*
X83695494Y-87495528D01*
X83695494Y-87134472D01*
X83685639Y-87066830D01*
X83634630Y-86962489D01*
X83552505Y-86880364D01*
X83552504Y-86880363D01*
X83476994Y-86843449D01*
X83468719Y-86834078D01*
X83457168Y-86829294D01*
X83450696Y-86813670D01*
X83439504Y-86800996D01*
X83435494Y-86776968D01*
X83435494Y-86674424D01*
X83457168Y-86622098D01*
X83509494Y-86600424D01*
X83559700Y-86600424D01*
X83559702Y-86600424D01*
X83618185Y-86588791D01*
X83684506Y-86544476D01*
X83728821Y-86478155D01*
X83740454Y-86419672D01*
X83740454Y-85860941D01*
X83762128Y-85808615D01*
X83814454Y-85786941D01*
X83828891Y-85788363D01*
G37*
G04 #@! TD.AperFunction*
M02*
